<?xml version="1.0" encoding="UTF-8" standalone="no"?>
<!DOCTYPE svg PUBLIC "-//W3C//DTD SVG 1.1//EN"
 "http://www.w3.org/Graphics/SVG/1.1/DTD/svg11.dtd">
<!-- Generated by graphviz version 2.38.0 (20140413.2041)
 -->
<!-- Title: xxx Pages: 1 -->
<svg width="395pt" height="509pt"
 viewBox="0.00 0.00 395.00 509.00" xmlns="http://www.w3.org/2000/svg" xmlns:xlink="http://www.w3.org/1999/xlink">
<g id="graph0" class="graph" transform="scale(1 1) rotate(0) translate(4 505)">
<title>xxx</title>
<polygon fill="white" stroke="none" points="-4,4 -4,-505 391,-505 391,4 -4,4"/>
<text text-anchor="middle" x="193.5" y="-6.8" font-family="Times,serif" font-size="14.00"> &#160;</text>
<!-- 1a -->
<g id="node1" class="node"><title>1a</title>
<polygon fill="lightblue" stroke="black" points="20,-461 40,-491 1.77636e-14,-491 20,-461"/>
<text text-anchor="middle" x="20" y="-476.8" font-family="Times,serif" font-size="14.00">p1</text>
</g>
<!-- 1 -->
<g id="node5" class="node"><title>1</title>
<polygon fill="none" stroke="black" points="157,-388 95,-388 95,-326 157,-326 157,-388"/>
<text text-anchor="middle" x="126" y="-352.8" font-family="Times,serif" font-size="14.00">1</text>
</g>
<!-- 1a&#45;&gt;1 -->
<g id="edge1" class="edge"><title>1a&#45;&gt;1</title>
<path fill="none" stroke="black" d="M27.2858,-471.614C41.9729,-454.71 75.7732,-415.808 99.719,-388.248"/>
</g>
<!-- 2a -->
<g id="node2" class="node"><title>2a</title>
<polygon fill="orange" stroke="black" points="255,-461 275,-491 235,-491 255,-461"/>
<text text-anchor="middle" x="255" y="-476.8" font-family="Times,serif" font-size="14.00">p2</text>
</g>
<!-- 2 -->
<g id="node6" class="node"><title>2</title>
<polygon fill="none" stroke="black" points="291,-388 229,-388 229,-326 291,-326 291,-388"/>
<text text-anchor="middle" x="260" y="-352.8" font-family="Times,serif" font-size="14.00">2</text>
</g>
<!-- 2a&#45;&gt;2 -->
<g id="edge3" class="edge"><title>2a&#45;&gt;2</title>
<path fill="none" stroke="black" d="M255.738,-461.998C256.531,-442.644 257.806,-411.54 258.755,-388.383"/>
</g>
<!-- 1b -->
<g id="node3" class="node"><title>1b</title>
<polygon fill="lightblue" stroke="black" points="132,-461 152,-491 112,-491 132,-461"/>
<text text-anchor="middle" x="132" y="-476.8" font-family="Times,serif" font-size="14.00">p1</text>
</g>
<!-- 1b&#45;&gt;1 -->
<g id="edge2" class="edge"><title>1b&#45;&gt;1</title>
<path fill="none" stroke="black" d="M131.128,-462.26C130.172,-442.831 128.623,-411.337 127.477,-388.041"/>
</g>
<!-- 2b -->
<g id="node4" class="node"><title>2b</title>
<polygon fill="orange" stroke="black" points="367,-461 387,-491 347,-491 367,-461"/>
<text text-anchor="middle" x="367" y="-476.8" font-family="Times,serif" font-size="14.00">p2</text>
</g>
<!-- 2b&#45;&gt;2 -->
<g id="edge4" class="edge"><title>2b&#45;&gt;2</title>
<path fill="none" stroke="black" d="M359.645,-471.614C344.82,-454.71 310.701,-415.808 286.529,-388.248"/>
</g>
<!-- 3 -->
<g id="node7" class="node"><title>3</title>
<polygon fill="none" stroke="black" points="229,-236 167,-236 167,-174 229,-174 229,-236"/>
<text text-anchor="middle" x="198" y="-200.8" font-family="Times,serif" font-size="14.00">3</text>
</g>
<!-- 1&#45;&gt;3 -->
<g id="edge5" class="edge"><title>1&#45;&gt;3</title>
<path fill="none" stroke="black" d="M140.57,-325.645C153.103,-299.535 171.084,-262.075 183.574,-236.053"/>
<text text-anchor="middle" x="173.75" y="-275.6" font-family="Times,serif" font-size="18.00" fill="red"> 2</text>
</g>
<!-- 2&#45;&gt;3 -->
<g id="edge6" class="edge"><title>2&#45;&gt;3</title>
<path fill="none" stroke="black" d="M247.453,-325.645C236.661,-299.535 221.178,-262.075 210.422,-236.053"/>
<text text-anchor="middle" x="239.75" y="-275.6" font-family="Times,serif" font-size="18.00" fill="red"> 2</text>
</g>
<!-- s3 -->
<g id="node8" class="node"><title>s3</title>
<polygon fill="violet" stroke="black" points="229,-53 213.5,-84 182.5,-84 167,-53 182.5,-22 213.5,-22 229,-53"/>
<text text-anchor="middle" x="198" y="-48.8" font-family="Times,serif" font-size="14.00">s3</text>
</g>
<!-- 3&#45;&gt;s3 -->
<g id="edge7" class="edge"><title>3&#45;&gt;s3</title>
<path fill="none" stroke="black" d="M198,-173.645C198,-147.535 198,-110.075 198,-84.0533"/>
<text text-anchor="middle" x="204.75" y="-123.6" font-family="Times,serif" font-size="18.00" fill="purple"> 2</text>
</g>
</g>
</svg>
