<?xml version="1.0" encoding="UTF-8" standalone="no"?>
<!DOCTYPE svg PUBLIC "-//W3C//DTD SVG 1.1//EN"
 "http://www.w3.org/Graphics/SVG/1.1/DTD/svg11.dtd">
<!-- Generated by graphviz version 2.38.0 (20140413.2041)
 -->
<!-- Title: xxx Pages: 1 -->
<svg width="832pt" height="661pt"
 viewBox="0.00 0.00 832.00 661.00" xmlns="http://www.w3.org/2000/svg" xmlns:xlink="http://www.w3.org/1999/xlink">
<g id="graph0" class="graph" transform="scale(1 1) rotate(0) translate(4 657)">
<title>xxx</title>
<polygon fill="white" stroke="none" points="-4,4 -4,-657 828,-657 828,4 -4,4"/>
<text text-anchor="middle" x="412" y="-6.8" font-family="Times,serif" font-size="14.00"> &#160;</text>
<!-- 1a -->
<g id="node1" class="node"><title>1a</title>
<polygon fill="lightblue" stroke="black" points="20,-613 40,-643 1.77636e-14,-643 20,-613"/>
<text text-anchor="middle" x="20" y="-628.8" font-family="Times,serif" font-size="14.00">p1</text>
</g>
<!-- 1 -->
<g id="node9" class="node"><title>1</title>
<polygon fill="none" stroke="black" points="163,-540 101,-540 101,-478 163,-478 163,-540"/>
<text text-anchor="middle" x="132" y="-504.8" font-family="Times,serif" font-size="14.00">1</text>
</g>
<!-- 1a&#45;&gt;1 -->
<g id="edge1" class="edge"><title>1a&#45;&gt;1</title>
<path fill="none" stroke="black" d="M27.3486,-623.995C42.6784,-607.297 78.7573,-567.996 104.252,-540.226"/>
</g>
<!-- 2a -->
<g id="node2" class="node"><title>2a</title>
<polygon fill="orange" stroke="black" points="244,-613 264,-643 224,-643 244,-613"/>
<text text-anchor="middle" x="244" y="-628.8" font-family="Times,serif" font-size="14.00">p2</text>
</g>
<!-- 2 -->
<g id="node10" class="node"><title>2</title>
<polygon fill="none" stroke="black" points="299,-540 237,-540 237,-478 299,-478 299,-540"/>
<text text-anchor="middle" x="268" y="-504.8" font-family="Times,serif" font-size="14.00">2</text>
</g>
<!-- 2a&#45;&gt;2 -->
<g id="edge3" class="edge"><title>2a&#45;&gt;2</title>
<path fill="none" stroke="black" d="M246.943,-617.04C250.698,-597.952 257.282,-564.483 262.091,-540.04"/>
</g>
<!-- 3a -->
<g id="node3" class="node"><title>3a</title>
<polygon fill="lightblue" stroke="black" points="468,-613 488,-643 448,-643 468,-613"/>
<text text-anchor="middle" x="468" y="-628.8" font-family="Times,serif" font-size="14.00">p1</text>
</g>
<!-- 3 -->
<g id="node11" class="node"><title>3</title>
<polygon fill="none" stroke="black" points="580,-540 518,-540 518,-478 580,-478 580,-540"/>
<text text-anchor="middle" x="549" y="-504.8" font-family="Times,serif" font-size="14.00">3</text>
</g>
<!-- 3a&#45;&gt;3 -->
<g id="edge5" class="edge"><title>3a&#45;&gt;3</title>
<path fill="none" stroke="black" d="M474.356,-622.427C485.992,-604.901 511.165,-566.986 529.055,-540.04"/>
</g>
<!-- 4a -->
<g id="node4" class="node"><title>4a</title>
<polygon fill="orange" stroke="black" points="692,-613 712,-643 672,-643 692,-613"/>
<text text-anchor="middle" x="692" y="-628.8" font-family="Times,serif" font-size="14.00">p2</text>
</g>
<!-- 4 -->
<g id="node12" class="node"><title>4</title>
<polygon fill="none" stroke="black" points="723,-540 661,-540 661,-478 723,-478 723,-540"/>
<text text-anchor="middle" x="692" y="-504.8" font-family="Times,serif" font-size="14.00">4</text>
</g>
<!-- 4a&#45;&gt;4 -->
<g id="edge7" class="edge"><title>4a&#45;&gt;4</title>
<path fill="none" stroke="black" d="M692,-612.938C692,-593.503 692,-563.06 692,-540.314"/>
</g>
<!-- 1b -->
<g id="node5" class="node"><title>1b</title>
<polygon fill="lightblue" stroke="black" points="132,-613 152,-643 112,-643 132,-613"/>
<text text-anchor="middle" x="132" y="-628.8" font-family="Times,serif" font-size="14.00">p1</text>
</g>
<!-- 1b&#45;&gt;1 -->
<g id="edge2" class="edge"><title>1b&#45;&gt;1</title>
<path fill="none" stroke="black" d="M132,-612.938C132,-593.503 132,-563.06 132,-540.314"/>
</g>
<!-- 2b -->
<g id="node6" class="node"><title>2b</title>
<polygon fill="orange" stroke="black" points="356,-613 376,-643 336,-643 356,-613"/>
<text text-anchor="middle" x="356" y="-628.8" font-family="Times,serif" font-size="14.00">p2</text>
</g>
<!-- 2b&#45;&gt;2 -->
<g id="edge4" class="edge"><title>2b&#45;&gt;2</title>
<path fill="none" stroke="black" d="M349.386,-622.83C336.875,-605.485 309.245,-567.18 289.657,-540.024"/>
</g>
<!-- 3b -->
<g id="node7" class="node"><title>3b</title>
<polygon fill="lightblue" stroke="black" points="580,-613 600,-643 560,-643 580,-613"/>
<text text-anchor="middle" x="580" y="-628.8" font-family="Times,serif" font-size="14.00">p1</text>
</g>
<!-- 3b&#45;&gt;3 -->
<g id="edge6" class="edge"><title>3b&#45;&gt;3</title>
<path fill="none" stroke="black" d="M576.444,-618.005C571.641,-599.103 562.956,-564.923 556.639,-540.064"/>
</g>
<!-- 4b -->
<g id="node8" class="node"><title>4b</title>
<polygon fill="orange" stroke="black" points="804,-613 824,-643 784,-643 804,-613"/>
<text text-anchor="middle" x="804" y="-628.8" font-family="Times,serif" font-size="14.00">p2</text>
</g>
<!-- 4b&#45;&gt;4 -->
<g id="edge8" class="edge"><title>4b&#45;&gt;4</title>
<path fill="none" stroke="black" d="M796.651,-623.995C781.322,-607.297 745.243,-567.996 719.748,-540.226"/>
</g>
<!-- 5 -->
<g id="node13" class="node"><title>5</title>
<polygon fill="none" stroke="black" points="299,-388 237,-388 237,-326 299,-326 299,-388"/>
<text text-anchor="middle" x="268" y="-352.8" font-family="Times,serif" font-size="14.00">5</text>
</g>
<!-- 1&#45;&gt;5 -->
<g id="edge9" class="edge"><title>1&#45;&gt;5</title>
<path fill="none" stroke="black" d="M159.522,-477.645C183.195,-451.535 217.158,-414.075 240.752,-388.053"/>
<text text-anchor="middle" x="215.75" y="-427.6" font-family="Times,serif" font-size="18.00" fill="red"> 2</text>
</g>
<!-- 2&#45;&gt;5 -->
<g id="edge10" class="edge"><title>2&#45;&gt;5</title>
<path fill="none" stroke="black" d="M268,-477.645C268,-451.535 268,-414.075 268,-388.053"/>
<text text-anchor="middle" x="274.75" y="-427.6" font-family="Times,serif" font-size="18.00" fill="red"> 2</text>
</g>
<!-- 6 -->
<g id="node14" class="node"><title>6</title>
<polygon fill="none" stroke="black" points="580,-388 518,-388 518,-326 580,-326 580,-388"/>
<text text-anchor="middle" x="549" y="-352.8" font-family="Times,serif" font-size="14.00">6</text>
</g>
<!-- 3&#45;&gt;6 -->
<g id="edge11" class="edge"><title>3&#45;&gt;6</title>
<path fill="none" stroke="black" d="M549,-477.645C549,-451.535 549,-414.075 549,-388.053"/>
<text text-anchor="middle" x="555.75" y="-427.6" font-family="Times,serif" font-size="18.00" fill="red"> 2</text>
</g>
<!-- 4&#45;&gt;6 -->
<g id="edge12" class="edge"><title>4&#45;&gt;6</title>
<path fill="none" stroke="black" d="M663.062,-477.645C638.17,-451.535 602.459,-414.075 577.651,-388.053"/>
<text text-anchor="middle" x="635.75" y="-427.6" font-family="Times,serif" font-size="18.00" fill="red"> 2</text>
</g>
<!-- 7 -->
<g id="node15" class="node"><title>7</title>
<polygon fill="none" stroke="black" points="440,-236 378,-236 378,-174 440,-174 440,-236"/>
<text text-anchor="middle" x="409" y="-200.8" font-family="Times,serif" font-size="14.00">7</text>
</g>
<!-- 5&#45;&gt;7 -->
<g id="edge13" class="edge"><title>5&#45;&gt;7</title>
<path fill="none" stroke="black" d="M296.533,-325.645C321.077,-299.535 356.289,-262.075 380.75,-236.053"/>
<text text-anchor="middle" x="353.75" y="-275.6" font-family="Times,serif" font-size="18.00" fill="red"> 2</text>
</g>
<!-- s5 -->
<g id="node16" class="node"><title>s5</title>
<polygon fill="violet" stroke="black" points="299,-205 283.5,-236 252.5,-236 237,-205 252.5,-174 283.5,-174 299,-205"/>
<text text-anchor="middle" x="268" y="-200.8" font-family="Times,serif" font-size="14.00">s5</text>
</g>
<!-- 5&#45;&gt;s5 -->
<g id="edge15" class="edge"><title>5&#45;&gt;s5</title>
<path fill="none" stroke="black" d="M265.739,-325.681C264.801,-309.713 264.028,-289.801 264.5,-272 264.81,-260.3 265.429,-247.446 266.061,-236.215"/>
<text text-anchor="middle" x="271.75" y="-275.6" font-family="Times,serif" font-size="18.00" fill="purple"> 1</text>
</g>
<!-- 6&#45;&gt;7 -->
<g id="edge14" class="edge"><title>6&#45;&gt;7</title>
<path fill="none" stroke="black" d="M520.669,-325.645C496.3,-299.535 461.337,-262.075 437.05,-236.053"/>
<text text-anchor="middle" x="494.75" y="-275.6" font-family="Times,serif" font-size="18.00" fill="red"> 2</text>
</g>
<!-- s6 -->
<g id="node17" class="node"><title>s6</title>
<polygon fill="violet" stroke="black" points="580,-205 564.5,-236 533.5,-236 518,-205 533.5,-174 564.5,-174 580,-205"/>
<text text-anchor="middle" x="549" y="-200.8" font-family="Times,serif" font-size="14.00">s6</text>
</g>
<!-- 6&#45;&gt;s6 -->
<g id="edge16" class="edge"><title>6&#45;&gt;s6</title>
<path fill="none" stroke="black" d="M549,-325.645C549,-299.535 549,-262.075 549,-236.053"/>
<text text-anchor="middle" x="555.75" y="-275.6" font-family="Times,serif" font-size="18.00" fill="purple"> 1</text>
</g>
<!-- s7 -->
<g id="node18" class="node"><title>s7</title>
<polygon fill="violet" stroke="black" points="440,-53 424.5,-84 393.5,-84 378,-53 393.5,-22 424.5,-22 440,-53"/>
<text text-anchor="middle" x="409" y="-48.8" font-family="Times,serif" font-size="14.00">s7</text>
</g>
<!-- 7&#45;&gt;s7 -->
<g id="edge17" class="edge"><title>7&#45;&gt;s7</title>
<path fill="none" stroke="black" d="M409,-173.645C409,-147.535 409,-110.075 409,-84.0533"/>
<text text-anchor="middle" x="415.75" y="-123.6" font-family="Times,serif" font-size="18.00" fill="purple"> 2</text>
</g>
</g>
</svg>
