<?xml version="1.0" encoding="UTF-8" standalone="no"?>
<!DOCTYPE svg PUBLIC "-//W3C//DTD SVG 1.1//EN"
 "http://www.w3.org/Graphics/SVG/1.1/DTD/svg11.dtd">
<!-- Generated by graphviz version 2.38.0 (20140413.2041)
 -->
<!-- Title: xxx Pages: 1 -->
<svg width="1263pt" height="813pt"
 viewBox="0.00 0.00 1263.00 813.00" xmlns="http://www.w3.org/2000/svg" xmlns:xlink="http://www.w3.org/1999/xlink">
<g id="graph0" class="graph" transform="scale(1 1) rotate(0) translate(4 809)">
<title>xxx</title>
<polygon fill="white" stroke="none" points="-4,4 -4,-809 1259,-809 1259,4 -4,4"/>
<text text-anchor="middle" x="627.5" y="-6.8" font-family="Times,serif" font-size="14.00"> &#160;</text>
<!-- 1a -->
<g id="node1" class="node"><title>1a</title>
<polygon fill="lightblue" stroke="black" points="279,-765 299,-795 259,-795 279,-765"/>
<text text-anchor="middle" x="279" y="-780.8" font-family="Times,serif" font-size="14.00">p1</text>
</g>
<!-- 1 -->
<g id="node17" class="node"><title>1</title>
<polygon fill="none" stroke="black" points="416,-692 354,-692 354,-630 416,-630 416,-692"/>
<text text-anchor="middle" x="385" y="-656.8" font-family="Times,serif" font-size="14.00">1</text>
</g>
<!-- 1a&#45;&gt;1 -->
<g id="edge1" class="edge"><title>1a&#45;&gt;1</title>
<path fill="none" stroke="black" d="M286.286,-775.614C300.973,-758.71 334.773,-719.808 358.719,-692.248"/>
</g>
<!-- 2a -->
<g id="node2" class="node"><title>2a</title>
<polygon fill="orange" stroke="black" points="514,-765 534,-795 494,-795 514,-765"/>
<text text-anchor="middle" x="514" y="-780.8" font-family="Times,serif" font-size="14.00">p2</text>
</g>
<!-- 2 -->
<g id="node18" class="node"><title>2</title>
<polygon fill="none" stroke="black" points="550,-692 488,-692 488,-630 550,-630 550,-692"/>
<text text-anchor="middle" x="519" y="-656.8" font-family="Times,serif" font-size="14.00">2</text>
</g>
<!-- 2a&#45;&gt;2 -->
<g id="edge3" class="edge"><title>2a&#45;&gt;2</title>
<path fill="none" stroke="black" d="M514.738,-765.998C515.531,-746.644 516.806,-715.54 517.755,-692.383"/>
</g>
<!-- 3a -->
<g id="node3" class="node"><title>3a</title>
<polygon fill="lightblue" stroke="black" points="145,-641 165,-671 125,-671 145,-641"/>
<text text-anchor="middle" x="145" y="-656.8" font-family="Times,serif" font-size="14.00">p1</text>
</g>
<!-- 3 -->
<g id="node19" class="node"><title>3</title>
<polygon fill="none" stroke="black" points="286,-540 224,-540 224,-478 286,-478 286,-540"/>
<text text-anchor="middle" x="255" y="-504.8" font-family="Times,serif" font-size="14.00">3</text>
</g>
<!-- 3a&#45;&gt;3 -->
<g id="edge5" class="edge"><title>3a&#45;&gt;3</title>
<path fill="none" stroke="black" d="M151.881,-650.617C167.779,-628.938 207.626,-574.6 232.874,-540.171"/>
</g>
<!-- 4a -->
<g id="node4" class="node"><title>4a</title>
<polygon fill="lightblue" stroke="black" points="720,-641 740,-671 700,-671 720,-641"/>
<text text-anchor="middle" x="720" y="-656.8" font-family="Times,serif" font-size="14.00">p1</text>
</g>
<!-- 4 -->
<g id="node20" class="node"><title>4</title>
<polygon fill="none" stroke="black" points="807,-540 745,-540 745,-478 807,-478 807,-540"/>
<text text-anchor="middle" x="776" y="-504.8" font-family="Times,serif" font-size="14.00">4</text>
</g>
<!-- 4a&#45;&gt;4 -->
<g id="edge7" class="edge"><title>4a&#45;&gt;4</title>
<path fill="none" stroke="black" d="M724.583,-647.725C733.281,-624.425 752.415,-573.174 764.73,-540.187"/>
</g>
<!-- 5a -->
<g id="node5" class="node"><title>5a</title>
<polygon fill="lightblue" stroke="black" points="20,-489 40,-519 1.77636e-14,-519 20,-489"/>
<text text-anchor="middle" x="20" y="-504.8" font-family="Times,serif" font-size="14.00">p1</text>
</g>
<!-- 5 -->
<g id="node21" class="node"><title>5</title>
<polygon fill="none" stroke="black" points="163,-388 101,-388 101,-326 163,-326 163,-388"/>
<text text-anchor="middle" x="132" y="-352.8" font-family="Times,serif" font-size="14.00">5</text>
</g>
<!-- 5a&#45;&gt;5 -->
<g id="edge9" class="edge"><title>5a&#45;&gt;5</title>
<path fill="none" stroke="black" d="M27.0061,-498.617C43.1928,-476.938 83.765,-422.6 109.472,-388.171"/>
</g>
<!-- 6a -->
<g id="node6" class="node"><title>6a</title>
<polygon fill="lightblue" stroke="black" points="512,-489 532,-519 492,-519 512,-489"/>
<text text-anchor="middle" x="512" y="-504.8" font-family="Times,serif" font-size="14.00">p1</text>
</g>
<!-- 6 -->
<g id="node22" class="node"><title>6</title>
<polygon fill="none" stroke="black" points="514,-388 452,-388 452,-326 514,-326 514,-388"/>
<text text-anchor="middle" x="483" y="-352.8" font-family="Times,serif" font-size="14.00">6</text>
</g>
<!-- 6a&#45;&gt;6 -->
<g id="edge11" class="edge"><title>6a&#45;&gt;6</title>
<path fill="none" stroke="black" d="M509.113,-493.069C504.4,-468.689 494.962,-419.87 488.817,-388.087"/>
</g>
<!-- 7a -->
<g id="node7" class="node"><title>7a</title>
<polygon fill="lightblue" stroke="black" points="1011,-489 1031,-519 991,-519 1011,-489"/>
<text text-anchor="middle" x="1011" y="-504.8" font-family="Times,serif" font-size="14.00">p1</text>
</g>
<!-- 7 -->
<g id="node23" class="node"><title>7</title>
<polygon fill="none" stroke="black" points="989,-388 927,-388 927,-326 989,-326 989,-388"/>
<text text-anchor="middle" x="958" y="-352.8" font-family="Times,serif" font-size="14.00">7</text>
</g>
<!-- 7a&#45;&gt;7 -->
<g id="edge13" class="edge"><title>7a&#45;&gt;7</title>
<path fill="none" stroke="black" d="M1006.57,-495.469C998.288,-472.022 980.233,-420.924 968.622,-388.061"/>
</g>
<!-- 8a -->
<g id="node8" class="node"><title>8a</title>
<polygon fill="lightblue" stroke="black" points="1123,-489 1143,-519 1103,-519 1123,-489"/>
<text text-anchor="middle" x="1123" y="-504.8" font-family="Times,serif" font-size="14.00">p1</text>
</g>
<!-- 8 -->
<g id="node24" class="node"><title>8</title>
<polygon fill="none" stroke="black" points="1154,-388 1092,-388 1092,-326 1154,-326 1154,-388"/>
<text text-anchor="middle" x="1123" y="-352.8" font-family="Times,serif" font-size="14.00">8</text>
</g>
<!-- 8a&#45;&gt;8 -->
<g id="edge15" class="edge"><title>8a&#45;&gt;8</title>
<path fill="none" stroke="black" d="M1123,-488.697C1123,-463.219 1123,-418.094 1123,-388.111"/>
</g>
<!-- 1b -->
<g id="node9" class="node"><title>1b</title>
<polygon fill="lightblue" stroke="black" points="391,-765 411,-795 371,-795 391,-765"/>
<text text-anchor="middle" x="391" y="-780.8" font-family="Times,serif" font-size="14.00">p1</text>
</g>
<!-- 1b&#45;&gt;1 -->
<g id="edge2" class="edge"><title>1b&#45;&gt;1</title>
<path fill="none" stroke="black" d="M390.128,-766.26C389.172,-746.831 387.623,-715.337 386.477,-692.041"/>
</g>
<!-- 2b -->
<g id="node10" class="node"><title>2b</title>
<polygon fill="orange" stroke="black" points="626,-765 646,-795 606,-795 626,-765"/>
<text text-anchor="middle" x="626" y="-780.8" font-family="Times,serif" font-size="14.00">p2</text>
</g>
<!-- 2b&#45;&gt;2 -->
<g id="edge4" class="edge"><title>2b&#45;&gt;2</title>
<path fill="none" stroke="black" d="M618.645,-775.614C603.82,-758.71 569.701,-719.808 545.529,-692.248"/>
</g>
<!-- 3b -->
<g id="node11" class="node"><title>3b</title>
<polygon fill="lightblue" stroke="black" points="257,-641 277,-671 237,-671 257,-641"/>
<text text-anchor="middle" x="257" y="-656.8" font-family="Times,serif" font-size="14.00">p1</text>
</g>
<!-- 3b&#45;&gt;3 -->
<g id="edge6" class="edge"><title>3b&#45;&gt;3</title>
<path fill="none" stroke="black" d="M256.751,-641.306C256.413,-615.939 255.804,-570.32 255.401,-540.098"/>
</g>
<!-- 4b -->
<g id="node12" class="node"><title>4b</title>
<polygon fill="lightblue" stroke="black" points="832,-641 852,-671 812,-671 832,-641"/>
<text text-anchor="middle" x="832" y="-656.8" font-family="Times,serif" font-size="14.00">p1</text>
</g>
<!-- 4b&#45;&gt;4 -->
<g id="edge8" class="edge"><title>4b&#45;&gt;4</title>
<path fill="none" stroke="black" d="M827.417,-647.725C818.719,-624.425 799.585,-573.174 787.27,-540.187"/>
</g>
<!-- 5b -->
<g id="node13" class="node"><title>5b</title>
<polygon fill="lightblue" stroke="black" points="132,-489 152,-519 112,-519 132,-489"/>
<text text-anchor="middle" x="132" y="-504.8" font-family="Times,serif" font-size="14.00">p1</text>
</g>
<!-- 5b&#45;&gt;5 -->
<g id="edge10" class="edge"><title>5b&#45;&gt;5</title>
<path fill="none" stroke="black" d="M132,-488.697C132,-463.219 132,-418.094 132,-388.111"/>
</g>
<!-- 6b -->
<g id="node14" class="node"><title>6b</title>
<polygon fill="lightblue" stroke="black" points="653,-489 673,-519 633,-519 653,-489"/>
<text text-anchor="middle" x="653" y="-504.8" font-family="Times,serif" font-size="14.00">p1</text>
</g>
<!-- 6b&#45;&gt;6 -->
<g id="edge12" class="edge"><title>6b&#45;&gt;6</title>
<path fill="none" stroke="black" d="M649.258,-494.181C643.747,-476.08 631.891,-444.269 612,-424 584.512,-395.99 542.623,-377.609 514.091,-367.523"/>
</g>
<!-- 7b -->
<g id="node15" class="node"><title>7b</title>
<polygon fill="lightblue" stroke="black" points="899,-489 919,-519 879,-519 899,-489"/>
<text text-anchor="middle" x="899" y="-504.8" font-family="Times,serif" font-size="14.00">p1</text>
</g>
<!-- 7b&#45;&gt;7 -->
<g id="edge14" class="edge"><title>7b&#45;&gt;7</title>
<path fill="none" stroke="black" d="M903.728,-495.978C912.862,-472.759 933.174,-421.116 946.194,-388.015"/>
</g>
<!-- 8b -->
<g id="node16" class="node"><title>8b</title>
<polygon fill="lightblue" stroke="black" points="1235,-489 1255,-519 1215,-519 1235,-489"/>
<text text-anchor="middle" x="1235" y="-504.8" font-family="Times,serif" font-size="14.00">p1</text>
</g>
<!-- 8b&#45;&gt;8 -->
<g id="edge16" class="edge"><title>8b&#45;&gt;8</title>
<path fill="none" stroke="black" d="M1228.8,-498.21C1218.65,-482.314 1197.61,-450.045 1178,-424 1168.94,-411.966 1158.46,-399.155 1149.11,-388.052"/>
</g>
<!-- 9 -->
<g id="node25" class="node"><title>9</title>
<polygon fill="none" stroke="black" points="420,-540 358,-540 358,-478 420,-478 420,-540"/>
<text text-anchor="middle" x="389" y="-504.8" font-family="Times,serif" font-size="14.00">9</text>
</g>
<!-- 1&#45;&gt;9 -->
<g id="edge17" class="edge"><title>1&#45;&gt;9</title>
<path fill="none" stroke="black" d="M385.809,-629.645C386.506,-603.535 387.505,-566.075 388.199,-540.053"/>
<text text-anchor="middle" x="394.75" y="-579.6" font-family="Times,serif" font-size="18.00" fill="red"> 2</text>
</g>
<!-- 2&#45;&gt;9 -->
<g id="edge18" class="edge"><title>2&#45;&gt;9</title>
<path fill="none" stroke="black" d="M492.693,-629.645C470.064,-603.535 437.599,-566.075 415.046,-540.053"/>
<text text-anchor="middle" x="468.75" y="-579.6" font-family="Times,serif" font-size="18.00" fill="red"> 2</text>
</g>
<!-- 10 -->
<g id="node26" class="node"><title>10</title>
<polygon fill="none" stroke="black" points="314,-388 252,-388 252,-326 314,-326 314,-388"/>
<text text-anchor="middle" x="283" y="-352.8" font-family="Times,serif" font-size="14.00">10</text>
</g>
<!-- 3&#45;&gt;10 -->
<g id="edge19" class="edge"><title>3&#45;&gt;10</title>
<path fill="none" stroke="black" d="M260.666,-477.645C265.54,-451.535 272.533,-414.075 277.39,-388.053"/>
<text text-anchor="middle" x="277.75" y="-427.6" font-family="Times,serif" font-size="18.00" fill="red"> 2</text>
</g>
<!-- 11 -->
<g id="node27" class="node"><title>11</title>
<polygon fill="none" stroke="black" points="807,-388 745,-388 745,-326 807,-326 807,-388"/>
<text text-anchor="middle" x="776" y="-352.8" font-family="Times,serif" font-size="14.00">11</text>
</g>
<!-- 4&#45;&gt;11 -->
<g id="edge21" class="edge"><title>4&#45;&gt;11</title>
<path fill="none" stroke="black" d="M776,-477.645C776,-451.535 776,-414.075 776,-388.053"/>
<text text-anchor="middle" x="782.75" y="-427.6" font-family="Times,serif" font-size="18.00" fill="red"> 2</text>
</g>
<!-- 12 -->
<g id="node28" class="node"><title>12</title>
<polygon fill="none" stroke="black" points="231,-236 169,-236 169,-174 231,-174 231,-236"/>
<text text-anchor="middle" x="200" y="-200.8" font-family="Times,serif" font-size="14.00">12</text>
</g>
<!-- 5&#45;&gt;12 -->
<g id="edge23" class="edge"><title>5&#45;&gt;12</title>
<path fill="none" stroke="black" d="M138.016,-325.627C141.861,-309.285 147.621,-289.045 155.5,-272 161.241,-259.581 169.196,-246.897 176.795,-236.01"/>
<text text-anchor="middle" x="162.75" y="-275.6" font-family="Times,serif" font-size="18.00" fill="red"> 2</text>
</g>
<!-- 13 -->
<g id="node29" class="node"><title>13</title>
<polygon fill="none" stroke="black" points="466,-236 404,-236 404,-174 466,-174 466,-236"/>
<text text-anchor="middle" x="435" y="-200.8" font-family="Times,serif" font-size="14.00">13</text>
</g>
<!-- 6&#45;&gt;13 -->
<g id="edge25" class="edge"><title>6&#45;&gt;13</title>
<path fill="none" stroke="black" d="M473.286,-325.645C464.931,-299.535 452.944,-262.075 444.617,-236.053"/>
<text text-anchor="middle" x="468.75" y="-275.6" font-family="Times,serif" font-size="18.00" fill="red"> 2</text>
</g>
<!-- 14 -->
<g id="node30" class="node"><title>14</title>
<polygon fill="none" stroke="black" points="895,-236 833,-236 833,-174 895,-174 895,-236"/>
<text text-anchor="middle" x="864" y="-200.8" font-family="Times,serif" font-size="14.00">14</text>
</g>
<!-- 7&#45;&gt;14 -->
<g id="edge27" class="edge"><title>7&#45;&gt;14</title>
<path fill="none" stroke="black" d="M938.978,-325.645C922.615,-299.535 899.141,-262.075 882.833,-236.053"/>
<text text-anchor="middle" x="922.75" y="-275.6" font-family="Times,serif" font-size="18.00" fill="red"> 2</text>
</g>
<!-- 15 -->
<g id="node31" class="node"><title>15</title>
<polygon fill="none" stroke="black" points="1073,-236 1011,-236 1011,-174 1073,-174 1073,-236"/>
<text text-anchor="middle" x="1042" y="-200.8" font-family="Times,serif" font-size="14.00">15</text>
</g>
<!-- 8&#45;&gt;15 -->
<g id="edge29" class="edge"><title>8&#45;&gt;15</title>
<path fill="none" stroke="black" d="M1106.61,-325.645C1092.51,-299.535 1072.28,-262.075 1058.23,-236.053"/>
<text text-anchor="middle" x="1093.75" y="-275.6" font-family="Times,serif" font-size="18.00" fill="red"> 2</text>
</g>
<!-- 9&#45;&gt;10 -->
<g id="edge20" class="edge"><title>9&#45;&gt;10</title>
<path fill="none" stroke="black" d="M367.549,-477.645C349.098,-451.535 322.627,-414.075 304.238,-388.053"/>
<text text-anchor="middle" x="349.75" y="-427.6" font-family="Times,serif" font-size="18.00" fill="red"> 2</text>
</g>
<!-- 9&#45;&gt;11 -->
<g id="edge22" class="edge"><title>9&#45;&gt;11</title>
<path fill="none" stroke="black" d="M420.185,-493.553C431.41,-488.481 444.212,-482.844 456,-478 560.822,-434.927 687.36,-389.328 744.86,-368.95"/>
<text text-anchor="middle" x="594.75" y="-427.6" font-family="Times,serif" font-size="18.00" fill="red"> 2</text>
</g>
<!-- 10&#45;&gt;12 -->
<g id="edge24" class="edge"><title>10&#45;&gt;12</title>
<path fill="none" stroke="black" d="M266.204,-325.645C251.756,-299.535 231.028,-262.075 216.629,-236.053"/>
<text text-anchor="middle" x="253.75" y="-275.6" font-family="Times,serif" font-size="18.00" fill="red"> 2</text>
</g>
<!-- 10&#45;&gt;13 -->
<g id="edge26" class="edge"><title>10&#45;&gt;13</title>
<path fill="none" stroke="black" d="M313.759,-325.645C340.218,-299.535 378.177,-262.075 404.546,-236.053"/>
<text text-anchor="middle" x="375.75" y="-275.6" font-family="Times,serif" font-size="18.00" fill="red"> 2</text>
</g>
<!-- 11&#45;&gt;14 -->
<g id="edge28" class="edge"><title>11&#45;&gt;14</title>
<path fill="none" stroke="black" d="M767.728,-325.681C764.84,-308.977 764.123,-288.372 772.5,-272 785.08,-247.414 811.56,-229.89 832.812,-219.106"/>
<text text-anchor="middle" x="779.75" y="-275.6" font-family="Times,serif" font-size="18.00" fill="red"> 2</text>
</g>
<!-- 11&#45;&gt;15 -->
<g id="edge30" class="edge"><title>11&#45;&gt;15</title>
<path fill="none" stroke="black" d="M805.892,-325.914C824.442,-308.466 849.451,-287.04 874.5,-272 918.983,-245.292 976.206,-225.47 1010.94,-214.833"/>
<text text-anchor="middle" x="881.75" y="-275.6" font-family="Times,serif" font-size="18.00" fill="red"> 2</text>
</g>
<!-- s12 -->
<g id="node32" class="node"><title>s12</title>
<polygon fill="violet" stroke="black" points="231,-53 215.5,-84 184.5,-84 169,-53 184.5,-22 215.5,-22 231,-53"/>
<text text-anchor="middle" x="200" y="-48.8" font-family="Times,serif" font-size="14.00">s12</text>
</g>
<!-- 12&#45;&gt;s12 -->
<g id="edge31" class="edge"><title>12&#45;&gt;s12</title>
<path fill="none" stroke="black" d="M200,-173.645C200,-147.535 200,-110.075 200,-84.0533"/>
<text text-anchor="middle" x="206.75" y="-123.6" font-family="Times,serif" font-size="18.00" fill="purple"> 2</text>
</g>
<!-- s13 -->
<g id="node33" class="node"><title>s13</title>
<polygon fill="violet" stroke="black" points="466,-53 450.5,-84 419.5,-84 404,-53 419.5,-22 450.5,-22 466,-53"/>
<text text-anchor="middle" x="435" y="-48.8" font-family="Times,serif" font-size="14.00">s13</text>
</g>
<!-- 13&#45;&gt;s13 -->
<g id="edge32" class="edge"><title>13&#45;&gt;s13</title>
<path fill="none" stroke="black" d="M435,-173.645C435,-147.535 435,-110.075 435,-84.0533"/>
<text text-anchor="middle" x="441.75" y="-123.6" font-family="Times,serif" font-size="18.00" fill="purple"> 2</text>
</g>
<!-- s14 -->
<g id="node34" class="node"><title>s14</title>
<polygon fill="violet" stroke="black" points="895,-53 879.5,-84 848.5,-84 833,-53 848.5,-22 879.5,-22 895,-53"/>
<text text-anchor="middle" x="864" y="-48.8" font-family="Times,serif" font-size="14.00">s14</text>
</g>
<!-- 14&#45;&gt;s14 -->
<g id="edge33" class="edge"><title>14&#45;&gt;s14</title>
<path fill="none" stroke="black" d="M864,-173.645C864,-147.535 864,-110.075 864,-84.0533"/>
<text text-anchor="middle" x="870.75" y="-123.6" font-family="Times,serif" font-size="18.00" fill="purple"> 2</text>
</g>
<!-- s15 -->
<g id="node35" class="node"><title>s15</title>
<polygon fill="violet" stroke="black" points="1073,-53 1057.5,-84 1026.5,-84 1011,-53 1026.5,-22 1057.5,-22 1073,-53"/>
<text text-anchor="middle" x="1042" y="-48.8" font-family="Times,serif" font-size="14.00">s15</text>
</g>
<!-- 15&#45;&gt;s15 -->
<g id="edge34" class="edge"><title>15&#45;&gt;s15</title>
<path fill="none" stroke="black" d="M1042,-173.645C1042,-147.535 1042,-110.075 1042,-84.0533"/>
<text text-anchor="middle" x="1048.75" y="-123.6" font-family="Times,serif" font-size="18.00" fill="purple"> 2</text>
</g>
</g>
</svg>
