<?xml version="1.0" encoding="UTF-8" standalone="no"?>
<!DOCTYPE svg PUBLIC "-//W3C//DTD SVG 1.1//EN"
 "http://www.w3.org/Graphics/SVG/1.1/DTD/svg11.dtd">
<!-- Generated by graphviz version 2.38.0 (20140413.2041)
 -->
<!-- Title: xxx Pages: 1 -->
<svg width="1484pt" height="813pt"
 viewBox="0.00 0.00 1484.00 813.00" xmlns="http://www.w3.org/2000/svg" xmlns:xlink="http://www.w3.org/1999/xlink">
<g id="graph0" class="graph" transform="scale(1 1) rotate(0) translate(4 809)">
<title>xxx</title>
<polygon fill="white" stroke="none" points="-4,4 -4,-809 1480,-809 1480,4 -4,4"/>
<text text-anchor="middle" x="738" y="-6.8" font-family="Times,serif" font-size="14.00"> &#160;</text>
<!-- 1a -->
<g id="node1" class="node"><title>1a</title>
<polygon fill="lightblue" stroke="black" points="714,-765 734,-795 694,-795 714,-765"/>
<text text-anchor="middle" x="714" y="-780.8" font-family="Times,serif" font-size="14.00">p1</text>
</g>
<!-- 1 -->
<g id="node21" class="node"><title>1</title>
<polygon fill="none" stroke="black" points="835,-692 773,-692 773,-630 835,-630 835,-692"/>
<text text-anchor="middle" x="804" y="-656.8" font-family="Times,serif" font-size="14.00">1</text>
</g>
<!-- 1a&#45;&gt;1 -->
<g id="edge1" class="edge"><title>1a&#45;&gt;1</title>
<path fill="none" stroke="black" d="M720.765,-774.83C733.56,-757.485 761.818,-719.18 781.851,-692.024"/>
</g>
<!-- 2a -->
<g id="node2" class="node"><title>2a</title>
<polygon fill="lightblue" stroke="black" points="266,-765 286,-795 246,-795 266,-765"/>
<text text-anchor="middle" x="266" y="-780.8" font-family="Times,serif" font-size="14.00">p1</text>
</g>
<!-- 2 -->
<g id="node22" class="node"><title>2</title>
<polygon fill="none" stroke="black" points="409,-692 347,-692 347,-630 409,-630 409,-692"/>
<text text-anchor="middle" x="378" y="-656.8" font-family="Times,serif" font-size="14.00">2</text>
</g>
<!-- 2a&#45;&gt;2 -->
<g id="edge3" class="edge"><title>2a&#45;&gt;2</title>
<path fill="none" stroke="black" d="M273.349,-775.995C288.678,-759.297 324.757,-719.996 350.252,-692.226"/>
</g>
<!-- 3a -->
<g id="node3" class="node"><title>3a</title>
<polygon fill="lightblue" stroke="black" points="1164,-641 1184,-671 1144,-671 1164,-641"/>
<text text-anchor="middle" x="1164" y="-656.8" font-family="Times,serif" font-size="14.00">p1</text>
</g>
<!-- 3 -->
<g id="node23" class="node"><title>3</title>
<polygon fill="none" stroke="black" points="1251,-540 1189,-540 1189,-478 1251,-478 1251,-540"/>
<text text-anchor="middle" x="1220" y="-504.8" font-family="Times,serif" font-size="14.00">3</text>
</g>
<!-- 3a&#45;&gt;3 -->
<g id="edge5" class="edge"><title>3a&#45;&gt;3</title>
<path fill="none" stroke="black" d="M1168.58,-647.725C1177.28,-624.425 1196.41,-573.174 1208.73,-540.187"/>
</g>
<!-- 4a -->
<g id="node4" class="node"><title>4a</title>
<polygon fill="lightblue" stroke="black" points="143,-641 163,-671 123,-671 143,-641"/>
<text text-anchor="middle" x="143" y="-656.8" font-family="Times,serif" font-size="14.00">p1</text>
</g>
<!-- 4 -->
<g id="node24" class="node"><title>4</title>
<polygon fill="none" stroke="black" points="286,-540 224,-540 224,-478 286,-478 286,-540"/>
<text text-anchor="middle" x="255" y="-504.8" font-family="Times,serif" font-size="14.00">4</text>
</g>
<!-- 4a&#45;&gt;4 -->
<g id="edge7" class="edge"><title>4a&#45;&gt;4</title>
<path fill="none" stroke="black" d="M150.006,-650.617C166.193,-628.938 206.765,-574.6 232.472,-540.171"/>
</g>
<!-- 5a -->
<g id="node5" class="node"><title>5a</title>
<polygon fill="lightblue" stroke="black" points="1456,-489 1476,-519 1436,-519 1456,-489"/>
<text text-anchor="middle" x="1456" y="-504.8" font-family="Times,serif" font-size="14.00">p1</text>
</g>
<!-- 5 -->
<g id="node25" class="node"><title>5</title>
<polygon fill="none" stroke="black" points="1378,-388 1316,-388 1316,-326 1378,-326 1378,-388"/>
<text text-anchor="middle" x="1347" y="-352.8" font-family="Times,serif" font-size="14.00">5</text>
</g>
<!-- 5a&#45;&gt;5 -->
<g id="edge9" class="edge"><title>5a&#45;&gt;5</title>
<path fill="none" stroke="black" d="M1449.9,-497.942C1440.08,-481.943 1419.97,-449.865 1401,-424 1392.16,-411.942 1381.89,-399.125 1372.69,-388.025"/>
</g>
<!-- 6a -->
<g id="node6" class="node"><title>6a</title>
<polygon fill="lightblue" stroke="black" points="1097,-489 1117,-519 1077,-519 1097,-489"/>
<text text-anchor="middle" x="1097" y="-504.8" font-family="Times,serif" font-size="14.00">p1</text>
</g>
<!-- 6 -->
<g id="node26" class="node"><title>6</title>
<polygon fill="none" stroke="black" points="1105,-388 1043,-388 1043,-326 1105,-326 1105,-388"/>
<text text-anchor="middle" x="1074" y="-352.8" font-family="Times,serif" font-size="14.00">6</text>
</g>
<!-- 6a&#45;&gt;6 -->
<g id="edge11" class="edge"><title>6a&#45;&gt;6</title>
<path fill="none" stroke="black" d="M1094.63,-492.512C1090.86,-467.961 1083.45,-419.662 1078.62,-388.118"/>
</g>
<!-- 7a -->
<g id="node7" class="node"><title>7a</title>
<polygon fill="lightblue" stroke="black" points="512,-489 532,-519 492,-519 512,-489"/>
<text text-anchor="middle" x="512" y="-504.8" font-family="Times,serif" font-size="14.00">p1</text>
</g>
<!-- 7 -->
<g id="node27" class="node"><title>7</title>
<polygon fill="none" stroke="black" points="542,-388 480,-388 480,-326 542,-326 542,-388"/>
<text text-anchor="middle" x="511" y="-352.8" font-family="Times,serif" font-size="14.00">7</text>
</g>
<!-- 7a&#45;&gt;7 -->
<g id="edge13" class="edge"><title>7a&#45;&gt;7</title>
<path fill="none" stroke="black" d="M511.873,-489.002C511.704,-463.618 511.402,-418.348 511.202,-388.245"/>
</g>
<!-- 8a -->
<g id="node8" class="node"><title>8a</title>
<polygon fill="lightblue" stroke="black" points="20,-489 40,-519 1.77636e-14,-519 20,-489"/>
<text text-anchor="middle" x="20" y="-504.8" font-family="Times,serif" font-size="14.00">p1</text>
</g>
<!-- 8 -->
<g id="node28" class="node"><title>8</title>
<polygon fill="none" stroke="black" points="163,-388 101,-388 101,-326 163,-326 163,-388"/>
<text text-anchor="middle" x="132" y="-352.8" font-family="Times,serif" font-size="14.00">8</text>
</g>
<!-- 8a&#45;&gt;8 -->
<g id="edge15" class="edge"><title>8a&#45;&gt;8</title>
<path fill="none" stroke="black" d="M27.0061,-498.617C43.1928,-476.938 83.765,-422.6 109.472,-388.171"/>
</g>
<!-- 9a -->
<g id="node9" class="node"><title>9a</title>
<polygon fill="orange" stroke="black" points="938,-765 958,-795 918,-795 938,-765"/>
<text text-anchor="middle" x="938" y="-780.8" font-family="Times,serif" font-size="14.00">p2</text>
</g>
<!-- 9 -->
<g id="node29" class="node"><title>9</title>
<polygon fill="none" stroke="black" points="969,-692 907,-692 907,-630 969,-630 969,-692"/>
<text text-anchor="middle" x="938" y="-656.8" font-family="Times,serif" font-size="14.00">9</text>
</g>
<!-- 9a&#45;&gt;9 -->
<g id="edge17" class="edge"><title>9a&#45;&gt;9</title>
<path fill="none" stroke="black" d="M938,-764.938C938,-745.503 938,-715.06 938,-692.314"/>
</g>
<!-- 10a -->
<g id="node10" class="node"><title>10a</title>
<polygon fill="orange" stroke="black" points="490,-765 510,-795 470,-795 490,-765"/>
<text text-anchor="middle" x="490" y="-780.8" font-family="Times,serif" font-size="14.00">p2</text>
</g>
<!-- 10 -->
<g id="node30" class="node"><title>10</title>
<polygon fill="none" stroke="black" points="543,-692 481,-692 481,-630 543,-630 543,-692"/>
<text text-anchor="middle" x="512" y="-656.8" font-family="Times,serif" font-size="14.00">10</text>
</g>
<!-- 10a&#45;&gt;10 -->
<g id="edge19" class="edge"><title>10a&#45;&gt;10</title>
<path fill="none" stroke="black" d="M492.698,-769.04C496.14,-749.952 502.175,-716.483 506.583,-692.04"/>
</g>
<!-- 1b -->
<g id="node11" class="node"><title>1b</title>
<polygon fill="lightblue" stroke="black" points="826,-765 846,-795 806,-795 826,-765"/>
<text text-anchor="middle" x="826" y="-780.8" font-family="Times,serif" font-size="14.00">p1</text>
</g>
<!-- 1b&#45;&gt;1 -->
<g id="edge2" class="edge"><title>1b&#45;&gt;1</title>
<path fill="none" stroke="black" d="M823.302,-769.04C819.86,-749.952 813.825,-716.483 809.417,-692.04"/>
</g>
<!-- 2b -->
<g id="node12" class="node"><title>2b</title>
<polygon fill="lightblue" stroke="black" points="378,-765 398,-795 358,-795 378,-765"/>
<text text-anchor="middle" x="378" y="-780.8" font-family="Times,serif" font-size="14.00">p1</text>
</g>
<!-- 2b&#45;&gt;2 -->
<g id="edge4" class="edge"><title>2b&#45;&gt;2</title>
<path fill="none" stroke="black" d="M378,-764.938C378,-745.503 378,-715.06 378,-692.314"/>
</g>
<!-- 3b -->
<g id="node13" class="node"><title>3b</title>
<polygon fill="lightblue" stroke="black" points="1276,-641 1296,-671 1256,-671 1276,-641"/>
<text text-anchor="middle" x="1276" y="-656.8" font-family="Times,serif" font-size="14.00">p1</text>
</g>
<!-- 3b&#45;&gt;3 -->
<g id="edge6" class="edge"><title>3b&#45;&gt;3</title>
<path fill="none" stroke="black" d="M1271.42,-647.725C1262.72,-624.425 1243.59,-573.174 1231.27,-540.187"/>
</g>
<!-- 4b -->
<g id="node14" class="node"><title>4b</title>
<polygon fill="lightblue" stroke="black" points="255,-641 275,-671 235,-671 255,-641"/>
<text text-anchor="middle" x="255" y="-656.8" font-family="Times,serif" font-size="14.00">p1</text>
</g>
<!-- 4b&#45;&gt;4 -->
<g id="edge8" class="edge"><title>4b&#45;&gt;4</title>
<path fill="none" stroke="black" d="M255,-640.697C255,-615.219 255,-570.094 255,-540.111"/>
</g>
<!-- 5b -->
<g id="node15" class="node"><title>5b</title>
<polygon fill="lightblue" stroke="black" points="1344,-489 1364,-519 1324,-519 1344,-489"/>
<text text-anchor="middle" x="1344" y="-504.8" font-family="Times,serif" font-size="14.00">p1</text>
</g>
<!-- 5b&#45;&gt;5 -->
<g id="edge10" class="edge"><title>5b&#45;&gt;5</title>
<path fill="none" stroke="black" d="M1344.37,-489.306C1344.88,-463.939 1345.79,-418.32 1346.4,-388.098"/>
</g>
<!-- 6b -->
<g id="node16" class="node"><title>6b</title>
<polygon fill="lightblue" stroke="black" points="927,-489 947,-519 907,-519 927,-489"/>
<text text-anchor="middle" x="927" y="-504.8" font-family="Times,serif" font-size="14.00">p1</text>
</g>
<!-- 6b&#45;&gt;6 -->
<g id="edge12" class="edge"><title>6b&#45;&gt;6</title>
<path fill="none" stroke="black" d="M930.904,-494.73C936.664,-476.957 948.869,-445.207 968,-424 988.91,-400.821 1019.84,-382.836 1042.89,-371.535"/>
</g>
<!-- 7b -->
<g id="node17" class="node"><title>7b</title>
<polygon fill="lightblue" stroke="black" points="681,-489 701,-519 661,-519 681,-489"/>
<text text-anchor="middle" x="681" y="-504.8" font-family="Times,serif" font-size="14.00">p1</text>
</g>
<!-- 7b&#45;&gt;7 -->
<g id="edge14" class="edge"><title>7b&#45;&gt;7</title>
<path fill="none" stroke="black" d="M677.258,-494.181C671.747,-476.08 659.891,-444.269 640,-424 612.512,-395.99 570.623,-377.609 542.091,-367.523"/>
</g>
<!-- 8b -->
<g id="node18" class="node"><title>8b</title>
<polygon fill="lightblue" stroke="black" points="132,-489 152,-519 112,-519 132,-489"/>
<text text-anchor="middle" x="132" y="-504.8" font-family="Times,serif" font-size="14.00">p1</text>
</g>
<!-- 8b&#45;&gt;8 -->
<g id="edge16" class="edge"><title>8b&#45;&gt;8</title>
<path fill="none" stroke="black" d="M132,-488.697C132,-463.219 132,-418.094 132,-388.111"/>
</g>
<!-- 9b -->
<g id="node19" class="node"><title>9b</title>
<polygon fill="orange" stroke="black" points="1050,-765 1070,-795 1030,-795 1050,-765"/>
<text text-anchor="middle" x="1050" y="-780.8" font-family="Times,serif" font-size="14.00">p2</text>
</g>
<!-- 9b&#45;&gt;9 -->
<g id="edge18" class="edge"><title>9b&#45;&gt;9</title>
<path fill="none" stroke="black" d="M1042.65,-775.995C1027.32,-759.297 991.243,-719.996 965.748,-692.226"/>
</g>
<!-- 10b -->
<g id="node20" class="node"><title>10b</title>
<polygon fill="orange" stroke="black" points="602,-765 622,-795 582,-795 602,-765"/>
<text text-anchor="middle" x="602" y="-780.8" font-family="Times,serif" font-size="14.00">p2</text>
</g>
<!-- 10b&#45;&gt;10 -->
<g id="edge20" class="edge"><title>10b&#45;&gt;10</title>
<path fill="none" stroke="black" d="M595.235,-774.83C582.44,-757.485 554.182,-719.18 534.149,-692.024"/>
</g>
<!-- 11 -->
<g id="node31" class="node"><title>11</title>
<polygon fill="none" stroke="black" points="835,-540 773,-540 773,-478 835,-478 835,-540"/>
<text text-anchor="middle" x="804" y="-504.8" font-family="Times,serif" font-size="14.00">11</text>
</g>
<!-- 1&#45;&gt;11 -->
<g id="edge21" class="edge"><title>1&#45;&gt;11</title>
<path fill="none" stroke="black" d="M804,-629.645C804,-603.535 804,-566.075 804,-540.053"/>
<text text-anchor="middle" x="810.75" y="-579.6" font-family="Times,serif" font-size="18.00" fill="red"> 2</text>
</g>
<!-- 12 -->
<g id="node32" class="node"><title>12</title>
<polygon fill="none" stroke="black" points="420,-540 358,-540 358,-478 420,-478 420,-540"/>
<text text-anchor="middle" x="389" y="-504.8" font-family="Times,serif" font-size="14.00">12</text>
</g>
<!-- 2&#45;&gt;12 -->
<g id="edge23" class="edge"><title>2&#45;&gt;12</title>
<path fill="none" stroke="black" d="M380.226,-629.645C382.141,-603.535 384.888,-566.075 386.796,-540.053"/>
<text text-anchor="middle" x="391.75" y="-579.6" font-family="Times,serif" font-size="18.00" fill="red"> 2</text>
</g>
<!-- 14 -->
<g id="node34" class="node"><title>14</title>
<polygon fill="none" stroke="black" points="1242,-388 1180,-388 1180,-326 1242,-326 1242,-388"/>
<text text-anchor="middle" x="1211" y="-352.8" font-family="Times,serif" font-size="14.00">14</text>
</g>
<!-- 3&#45;&gt;14 -->
<g id="edge27" class="edge"><title>3&#45;&gt;14</title>
<path fill="none" stroke="black" d="M1218.18,-477.645C1216.61,-451.535 1214.36,-414.075 1212.8,-388.053"/>
<text text-anchor="middle" x="1223.75" y="-427.6" font-family="Times,serif" font-size="18.00" fill="red"> 2</text>
</g>
<!-- 15 -->
<g id="node35" class="node"><title>15</title>
<polygon fill="none" stroke="black" points="397,-388 335,-388 335,-326 397,-326 397,-388"/>
<text text-anchor="middle" x="366" y="-352.8" font-family="Times,serif" font-size="14.00">15</text>
</g>
<!-- 4&#45;&gt;15 -->
<g id="edge29" class="edge"><title>4&#45;&gt;15</title>
<path fill="none" stroke="black" d="M277.463,-477.645C296.784,-451.535 324.504,-414.075 343.761,-388.053"/>
<text text-anchor="middle" x="324.75" y="-427.6" font-family="Times,serif" font-size="18.00" fill="red"> 2</text>
</g>
<!-- 16 -->
<g id="node36" class="node"><title>16</title>
<polygon fill="none" stroke="black" points="1308,-236 1246,-236 1246,-174 1308,-174 1308,-236"/>
<text text-anchor="middle" x="1277" y="-200.8" font-family="Times,serif" font-size="14.00">16</text>
</g>
<!-- 5&#45;&gt;16 -->
<g id="edge31" class="edge"><title>5&#45;&gt;16</title>
<path fill="none" stroke="black" d="M1332.83,-325.645C1320.65,-299.535 1303.17,-262.075 1291.02,-236.053"/>
<text text-anchor="middle" x="1323.75" y="-275.6" font-family="Times,serif" font-size="18.00" fill="red"> 2</text>
</g>
<!-- 17 -->
<g id="node37" class="node"><title>17</title>
<polygon fill="none" stroke="black" points="1140,-236 1078,-236 1078,-174 1140,-174 1140,-236"/>
<text text-anchor="middle" x="1109" y="-200.8" font-family="Times,serif" font-size="14.00">17</text>
</g>
<!-- 6&#45;&gt;17 -->
<g id="edge33" class="edge"><title>6&#45;&gt;17</title>
<path fill="none" stroke="black" d="M1068.4,-325.968C1066.45,-309.726 1065.78,-289.472 1070.5,-272 1073.89,-259.45 1080.33,-246.837 1086.98,-236.048"/>
<text text-anchor="middle" x="1077.75" y="-275.6" font-family="Times,serif" font-size="18.00" fill="red"> 2</text>
</g>
<!-- 18 -->
<g id="node38" class="node"><title>18</title>
<polygon fill="none" stroke="black" points="500,-236 438,-236 438,-174 500,-174 500,-236"/>
<text text-anchor="middle" x="469" y="-200.8" font-family="Times,serif" font-size="14.00">18</text>
</g>
<!-- 7&#45;&gt;18 -->
<g id="edge35" class="edge"><title>7&#45;&gt;18</title>
<path fill="none" stroke="black" d="M502.501,-325.645C495.19,-299.535 484.701,-262.075 477.415,-236.053"/>
<text text-anchor="middle" x="499.75" y="-275.6" font-family="Times,serif" font-size="18.00" fill="red"> 2</text>
</g>
<!-- 19 -->
<g id="node39" class="node"><title>19</title>
<polygon fill="none" stroke="black" points="269,-236 207,-236 207,-174 269,-174 269,-236"/>
<text text-anchor="middle" x="238" y="-200.8" font-family="Times,serif" font-size="14.00">19</text>
</g>
<!-- 8&#45;&gt;19 -->
<g id="edge37" class="edge"><title>8&#45;&gt;19</title>
<path fill="none" stroke="black" d="M147.027,-325.914C155.723,-309.472 167.333,-289.045 179.5,-272 188.307,-259.662 199.051,-246.997 208.917,-236.102"/>
<text text-anchor="middle" x="186.75" y="-275.6" font-family="Times,serif" font-size="18.00" fill="red"> 2</text>
</g>
<!-- 9&#45;&gt;11 -->
<g id="edge22" class="edge"><title>9&#45;&gt;11</title>
<path fill="none" stroke="black" d="M910.883,-629.645C887.558,-603.535 854.094,-566.075 830.848,-540.053"/>
<text text-anchor="middle" x="886.75" y="-579.6" font-family="Times,serif" font-size="18.00" fill="red"> 2</text>
</g>
<!-- 10&#45;&gt;12 -->
<g id="edge24" class="edge"><title>10&#45;&gt;12</title>
<path fill="none" stroke="black" d="M487.109,-629.645C465.699,-603.535 434.982,-566.075 413.644,-540.053"/>
<text text-anchor="middle" x="464.75" y="-579.6" font-family="Times,serif" font-size="18.00" fill="red"> 2</text>
</g>
<!-- 13 -->
<g id="node33" class="node"><title>13</title>
<polygon fill="none" stroke="black" points="754,-388 692,-388 692,-326 754,-326 754,-388"/>
<text text-anchor="middle" x="723" y="-352.8" font-family="Times,serif" font-size="14.00">13</text>
</g>
<!-- 11&#45;&gt;13 -->
<g id="edge25" class="edge"><title>11&#45;&gt;13</title>
<path fill="none" stroke="black" d="M787.608,-477.645C773.509,-451.535 753.281,-414.075 739.229,-388.053"/>
<text text-anchor="middle" x="775.75" y="-427.6" font-family="Times,serif" font-size="18.00" fill="red"> 2</text>
</g>
<!-- 11&#45;&gt;14 -->
<g id="edge28" class="edge"><title>11&#45;&gt;14</title>
<path fill="none" stroke="black" d="M835.087,-493.309C846.303,-488.214 859.124,-482.625 871,-478 988.868,-432.097 1022.77,-432.952 1141,-388 1153.85,-383.113 1167.82,-377.246 1179.87,-372.001"/>
<text text-anchor="middle" x="1040.75" y="-427.6" font-family="Times,serif" font-size="18.00" fill="red"> 2</text>
</g>
<!-- 12&#45;&gt;13 -->
<g id="edge26" class="edge"><title>12&#45;&gt;13</title>
<path fill="none" stroke="black" d="M420.122,-494.023C483.766,-465.44 628.155,-400.595 691.835,-371.996"/>
<text text-anchor="middle" x="582.75" y="-427.6" font-family="Times,serif" font-size="18.00" fill="red"> 2</text>
</g>
<!-- 12&#45;&gt;15 -->
<g id="edge30" class="edge"><title>12&#45;&gt;15</title>
<path fill="none" stroke="black" d="M384.346,-477.645C380.342,-451.535 374.598,-414.075 370.608,-388.053"/>
<text text-anchor="middle" x="385.75" y="-427.6" font-family="Times,serif" font-size="18.00" fill="red"> 2</text>
</g>
<!-- s13 -->
<g id="node40" class="node"><title>s13</title>
<polygon fill="violet" stroke="black" points="754,-205 738.5,-236 707.5,-236 692,-205 707.5,-174 738.5,-174 754,-205"/>
<text text-anchor="middle" x="723" y="-200.8" font-family="Times,serif" font-size="14.00">s13</text>
</g>
<!-- 13&#45;&gt;s13 -->
<g id="edge39" class="edge"><title>13&#45;&gt;s13</title>
<path fill="none" stroke="black" d="M723,-325.645C723,-299.535 723,-262.075 723,-236.053"/>
<text text-anchor="middle" x="729.75" y="-275.6" font-family="Times,serif" font-size="18.00" fill="purple"> 2</text>
</g>
<!-- 14&#45;&gt;16 -->
<g id="edge32" class="edge"><title>14&#45;&gt;16</title>
<path fill="none" stroke="black" d="M1224.36,-325.645C1235.84,-299.535 1252.33,-262.075 1263.78,-236.053"/>
<text text-anchor="middle" x="1254.75" y="-275.6" font-family="Times,serif" font-size="18.00" fill="red"> 2</text>
</g>
<!-- 14&#45;&gt;17 -->
<g id="edge34" class="edge"><title>14&#45;&gt;17</title>
<path fill="none" stroke="black" d="M1190.36,-325.645C1172.6,-299.535 1147.13,-262.075 1129.44,-236.053"/>
<text text-anchor="middle" x="1173.75" y="-275.6" font-family="Times,serif" font-size="18.00" fill="red"> 2</text>
</g>
<!-- 15&#45;&gt;18 -->
<g id="edge36" class="edge"><title>15&#45;&gt;18</title>
<path fill="none" stroke="black" d="M386.844,-325.645C404.772,-299.535 430.495,-262.075 448.363,-236.053"/>
<text text-anchor="middle" x="430.75" y="-275.6" font-family="Times,serif" font-size="18.00" fill="red"> 2</text>
</g>
<!-- 15&#45;&gt;19 -->
<g id="edge38" class="edge"><title>15&#45;&gt;19</title>
<path fill="none" stroke="black" d="M340.097,-325.645C317.817,-299.535 285.851,-262.075 263.645,-236.053"/>
<text text-anchor="middle" x="316.75" y="-275.6" font-family="Times,serif" font-size="18.00" fill="red"> 2</text>
</g>
<!-- s16 -->
<g id="node41" class="node"><title>s16</title>
<polygon fill="violet" stroke="black" points="1308,-53 1292.5,-84 1261.5,-84 1246,-53 1261.5,-22 1292.5,-22 1308,-53"/>
<text text-anchor="middle" x="1277" y="-48.8" font-family="Times,serif" font-size="14.00">s16</text>
</g>
<!-- 16&#45;&gt;s16 -->
<g id="edge40" class="edge"><title>16&#45;&gt;s16</title>
<path fill="none" stroke="black" d="M1277,-173.645C1277,-147.535 1277,-110.075 1277,-84.0533"/>
<text text-anchor="middle" x="1283.75" y="-123.6" font-family="Times,serif" font-size="18.00" fill="purple"> 2</text>
</g>
<!-- s17 -->
<g id="node42" class="node"><title>s17</title>
<polygon fill="violet" stroke="black" points="1140,-53 1124.5,-84 1093.5,-84 1078,-53 1093.5,-22 1124.5,-22 1140,-53"/>
<text text-anchor="middle" x="1109" y="-48.8" font-family="Times,serif" font-size="14.00">s17</text>
</g>
<!-- 17&#45;&gt;s17 -->
<g id="edge41" class="edge"><title>17&#45;&gt;s17</title>
<path fill="none" stroke="black" d="M1109,-173.645C1109,-147.535 1109,-110.075 1109,-84.0533"/>
<text text-anchor="middle" x="1115.75" y="-123.6" font-family="Times,serif" font-size="18.00" fill="purple"> 2</text>
</g>
<!-- s18 -->
<g id="node43" class="node"><title>s18</title>
<polygon fill="violet" stroke="black" points="500,-53 484.5,-84 453.5,-84 438,-53 453.5,-22 484.5,-22 500,-53"/>
<text text-anchor="middle" x="469" y="-48.8" font-family="Times,serif" font-size="14.00">s18</text>
</g>
<!-- 18&#45;&gt;s18 -->
<g id="edge42" class="edge"><title>18&#45;&gt;s18</title>
<path fill="none" stroke="black" d="M469,-173.645C469,-147.535 469,-110.075 469,-84.0533"/>
<text text-anchor="middle" x="475.75" y="-123.6" font-family="Times,serif" font-size="18.00" fill="purple"> 2</text>
</g>
<!-- s19 -->
<g id="node44" class="node"><title>s19</title>
<polygon fill="violet" stroke="black" points="269,-53 253.5,-84 222.5,-84 207,-53 222.5,-22 253.5,-22 269,-53"/>
<text text-anchor="middle" x="238" y="-48.8" font-family="Times,serif" font-size="14.00">s19</text>
</g>
<!-- 19&#45;&gt;s19 -->
<g id="edge43" class="edge"><title>19&#45;&gt;s19</title>
<path fill="none" stroke="black" d="M238,-173.645C238,-147.535 238,-110.075 238,-84.0533"/>
<text text-anchor="middle" x="244.75" y="-123.6" font-family="Times,serif" font-size="18.00" fill="purple"> 2</text>
</g>
</g>
</svg>
