<?xml version="1.0" encoding="UTF-8" standalone="no"?>
<!DOCTYPE svg PUBLIC "-//W3C//DTD SVG 1.1//EN"
 "http://www.w3.org/Graphics/SVG/1.1/DTD/svg11.dtd">
<!-- Generated by graphviz version 2.38.0 (20140413.2041)
 -->
<!-- Title: xxx Pages: 1 -->
<svg width="932pt" height="813pt"
 viewBox="0.00 0.00 932.00 813.00" xmlns="http://www.w3.org/2000/svg" xmlns:xlink="http://www.w3.org/1999/xlink">
<g id="graph0" class="graph" transform="scale(1 1) rotate(0) translate(4 809)">
<title>xxx</title>
<polygon fill="white" stroke="none" points="-4,4 -4,-809 928,-809 928,4 -4,4"/>
<text text-anchor="middle" x="462" y="-6.8" font-family="Times,serif" font-size="14.00"> &#160;</text>
<!-- 1a -->
<g id="node1" class="node"><title>1a</title>
<polygon fill="lightblue" stroke="black" points="277,-765 297,-795 257,-795 277,-765"/>
<text text-anchor="middle" x="277" y="-780.8" font-family="Times,serif" font-size="14.00">p1</text>
</g>
<!-- 1 -->
<g id="node13" class="node"><title>1</title>
<polygon fill="none" stroke="black" points="414,-692 352,-692 352,-630 414,-630 414,-692"/>
<text text-anchor="middle" x="383" y="-656.8" font-family="Times,serif" font-size="14.00">1</text>
</g>
<!-- 1a&#45;&gt;1 -->
<g id="edge1" class="edge"><title>1a&#45;&gt;1</title>
<path fill="none" stroke="black" d="M284.286,-775.614C298.973,-758.71 332.773,-719.808 356.719,-692.248"/>
</g>
<!-- 2a -->
<g id="node2" class="node"><title>2a</title>
<polygon fill="lightblue" stroke="black" points="148,-641 168,-671 128,-671 148,-641"/>
<text text-anchor="middle" x="148" y="-656.8" font-family="Times,serif" font-size="14.00">p1</text>
</g>
<!-- 2 -->
<g id="node14" class="node"><title>2</title>
<polygon fill="none" stroke="black" points="291,-540 229,-540 229,-478 291,-478 291,-540"/>
<text text-anchor="middle" x="260" y="-504.8" font-family="Times,serif" font-size="14.00">2</text>
</g>
<!-- 2a&#45;&gt;2 -->
<g id="edge3" class="edge"><title>2a&#45;&gt;2</title>
<path fill="none" stroke="black" d="M155.006,-650.617C171.193,-628.938 211.765,-574.6 237.472,-540.171"/>
</g>
<!-- 3a -->
<g id="node3" class="node"><title>3a</title>
<polygon fill="lightblue" stroke="black" points="20,-489 40,-519 1.77636e-14,-519 20,-489"/>
<text text-anchor="middle" x="20" y="-504.8" font-family="Times,serif" font-size="14.00">p1</text>
</g>
<!-- 3 -->
<g id="node15" class="node"><title>3</title>
<polygon fill="none" stroke="black" points="148,-388 86,-388 86,-326 148,-326 148,-388"/>
<text text-anchor="middle" x="117" y="-352.8" font-family="Times,serif" font-size="14.00">3</text>
</g>
<!-- 3a&#45;&gt;3 -->
<g id="edge5" class="edge"><title>3a&#45;&gt;3</title>
<path fill="none" stroke="black" d="M26.3644,-498.158C40.5684,-476.193 75.3403,-422.422 97.4508,-388.231"/>
</g>
<!-- 4a -->
<g id="node4" class="node"><title>4a</title>
<polygon fill="lightblue" stroke="black" points="640,-641 660,-671 620,-671 640,-641"/>
<text text-anchor="middle" x="640" y="-656.8" font-family="Times,serif" font-size="14.00">p1</text>
</g>
<!-- 4 -->
<g id="node16" class="node"><title>4</title>
<polygon fill="none" stroke="black" points="671,-540 609,-540 609,-478 671,-478 671,-540"/>
<text text-anchor="middle" x="640" y="-504.8" font-family="Times,serif" font-size="14.00">4</text>
</g>
<!-- 4a&#45;&gt;4 -->
<g id="edge7" class="edge"><title>4a&#45;&gt;4</title>
<path fill="none" stroke="black" d="M640,-640.697C640,-615.219 640,-570.094 640,-540.111"/>
</g>
<!-- 5a -->
<g id="node5" class="node"><title>5a</title>
<polygon fill="lightblue" stroke="black" points="904,-489 924,-519 884,-519 904,-489"/>
<text text-anchor="middle" x="904" y="-504.8" font-family="Times,serif" font-size="14.00">p1</text>
</g>
<!-- 5 -->
<g id="node17" class="node"><title>5</title>
<polygon fill="none" stroke="black" points="830,-388 768,-388 768,-326 830,-326 830,-388"/>
<text text-anchor="middle" x="799" y="-352.8" font-family="Times,serif" font-size="14.00">5</text>
</g>
<!-- 5a&#45;&gt;5 -->
<g id="edge9" class="edge"><title>5a&#45;&gt;5</title>
<path fill="none" stroke="black" d="M897.953,-497.989C888.244,-482.054 868.395,-450.062 850,-424 841.566,-412.051 831.849,-399.257 823.174,-388.145"/>
</g>
<!-- 6a -->
<g id="node6" class="node"><title>6a</title>
<polygon fill="orange" stroke="black" points="512,-765 532,-795 492,-795 512,-765"/>
<text text-anchor="middle" x="512" y="-780.8" font-family="Times,serif" font-size="14.00">p2</text>
</g>
<!-- 6 -->
<g id="node18" class="node"><title>6</title>
<polygon fill="none" stroke="black" points="548,-692 486,-692 486,-630 548,-630 548,-692"/>
<text text-anchor="middle" x="517" y="-656.8" font-family="Times,serif" font-size="14.00">6</text>
</g>
<!-- 6a&#45;&gt;6 -->
<g id="edge11" class="edge"><title>6a&#45;&gt;6</title>
<path fill="none" stroke="black" d="M512.738,-765.998C513.531,-746.644 514.806,-715.54 515.755,-692.383"/>
</g>
<!-- 1b -->
<g id="node7" class="node"><title>1b</title>
<polygon fill="lightblue" stroke="black" points="389,-765 409,-795 369,-795 389,-765"/>
<text text-anchor="middle" x="389" y="-780.8" font-family="Times,serif" font-size="14.00">p1</text>
</g>
<!-- 1b&#45;&gt;1 -->
<g id="edge2" class="edge"><title>1b&#45;&gt;1</title>
<path fill="none" stroke="black" d="M388.128,-766.26C387.172,-746.831 385.623,-715.337 384.477,-692.041"/>
</g>
<!-- 2b -->
<g id="node8" class="node"><title>2b</title>
<polygon fill="lightblue" stroke="black" points="260,-641 280,-671 240,-671 260,-641"/>
<text text-anchor="middle" x="260" y="-656.8" font-family="Times,serif" font-size="14.00">p1</text>
</g>
<!-- 2b&#45;&gt;2 -->
<g id="edge4" class="edge"><title>2b&#45;&gt;2</title>
<path fill="none" stroke="black" d="M260,-640.697C260,-615.219 260,-570.094 260,-540.111"/>
</g>
<!-- 3b -->
<g id="node9" class="node"><title>3b</title>
<polygon fill="lightblue" stroke="black" points="132,-489 152,-519 112,-519 132,-489"/>
<text text-anchor="middle" x="132" y="-504.8" font-family="Times,serif" font-size="14.00">p1</text>
</g>
<!-- 3b&#45;&gt;3 -->
<g id="edge6" class="edge"><title>3b&#45;&gt;3</title>
<path fill="none" stroke="black" d="M130.337,-491.374C127.851,-466.508 123.124,-419.236 120.017,-388.171"/>
</g>
<!-- 4b -->
<g id="node10" class="node"><title>4b</title>
<polygon fill="lightblue" stroke="black" points="752,-641 772,-671 732,-671 752,-641"/>
<text text-anchor="middle" x="752" y="-656.8" font-family="Times,serif" font-size="14.00">p1</text>
</g>
<!-- 4b&#45;&gt;4 -->
<g id="edge8" class="edge"><title>4b&#45;&gt;4</title>
<path fill="none" stroke="black" d="M745.805,-650.21C735.647,-634.314 714.614,-602.045 695,-576 685.938,-563.966 675.465,-551.155 666.105,-540.052"/>
</g>
<!-- 5b -->
<g id="node11" class="node"><title>5b</title>
<polygon fill="lightblue" stroke="black" points="792,-489 812,-519 772,-519 792,-489"/>
<text text-anchor="middle" x="792" y="-504.8" font-family="Times,serif" font-size="14.00">p1</text>
</g>
<!-- 5b&#45;&gt;5 -->
<g id="edge10" class="edge"><title>5b&#45;&gt;5</title>
<path fill="none" stroke="black" d="M792.83,-490.204C794.004,-465.06 796.163,-418.798 797.59,-388.214"/>
</g>
<!-- 6b -->
<g id="node12" class="node"><title>6b</title>
<polygon fill="orange" stroke="black" points="624,-765 644,-795 604,-795 624,-765"/>
<text text-anchor="middle" x="624" y="-780.8" font-family="Times,serif" font-size="14.00">p2</text>
</g>
<!-- 6b&#45;&gt;6 -->
<g id="edge12" class="edge"><title>6b&#45;&gt;6</title>
<path fill="none" stroke="black" d="M616.645,-775.614C601.82,-758.71 567.701,-719.808 543.529,-692.248"/>
</g>
<!-- 7 -->
<g id="node19" class="node"><title>7</title>
<polygon fill="none" stroke="black" points="486,-540 424,-540 424,-478 486,-478 486,-540"/>
<text text-anchor="middle" x="455" y="-504.8" font-family="Times,serif" font-size="14.00">7</text>
</g>
<!-- 1&#45;&gt;7 -->
<g id="edge13" class="edge"><title>1&#45;&gt;7</title>
<path fill="none" stroke="black" d="M397.57,-629.645C410.103,-603.535 428.084,-566.075 440.574,-540.053"/>
<text text-anchor="middle" x="430.75" y="-579.6" font-family="Times,serif" font-size="18.00" fill="red"> 2</text>
</g>
<!-- 8 -->
<g id="node20" class="node"><title>8</title>
<polygon fill="none" stroke="black" points="306,-388 244,-388 244,-326 306,-326 306,-388"/>
<text text-anchor="middle" x="275" y="-352.8" font-family="Times,serif" font-size="14.00">8</text>
</g>
<!-- 2&#45;&gt;8 -->
<g id="edge15" class="edge"><title>2&#45;&gt;8</title>
<path fill="none" stroke="black" d="M263.035,-477.645C265.646,-451.535 269.392,-414.075 271.995,-388.053"/>
<text text-anchor="middle" x="275.75" y="-427.6" font-family="Times,serif" font-size="18.00" fill="red"> 2</text>
</g>
<!-- 10 -->
<g id="node22" class="node"><title>10</title>
<polygon fill="none" stroke="black" points="172,-236 110,-236 110,-174 172,-174 172,-236"/>
<text text-anchor="middle" x="141" y="-200.8" font-family="Times,serif" font-size="14.00">10</text>
</g>
<!-- 3&#45;&gt;10 -->
<g id="edge19" class="edge"><title>3&#45;&gt;10</title>
<path fill="none" stroke="black" d="M112.297,-325.795C110.65,-309.684 109.979,-289.604 113.5,-272 115.934,-259.828 120.663,-247.094 125.522,-236.095"/>
<text text-anchor="middle" x="120.75" y="-275.6" font-family="Times,serif" font-size="18.00" fill="red"> 2</text>
</g>
<!-- 9 -->
<g id="node21" class="node"><title>9</title>
<polygon fill="none" stroke="black" points="652,-388 590,-388 590,-326 652,-326 652,-388"/>
<text text-anchor="middle" x="621" y="-352.8" font-family="Times,serif" font-size="14.00">9</text>
</g>
<!-- 4&#45;&gt;9 -->
<g id="edge17" class="edge"><title>4&#45;&gt;9</title>
<path fill="none" stroke="black" d="M636.155,-477.645C632.848,-451.535 628.103,-414.075 624.807,-388.053"/>
<text text-anchor="middle" x="637.75" y="-427.6" font-family="Times,serif" font-size="18.00" fill="red"> 2</text>
</g>
<!-- 11 -->
<g id="node23" class="node"><title>11</title>
<polygon fill="none" stroke="black" points="806,-236 744,-236 744,-174 806,-174 806,-236"/>
<text text-anchor="middle" x="775" y="-200.8" font-family="Times,serif" font-size="14.00">11</text>
</g>
<!-- 5&#45;&gt;11 -->
<g id="edge21" class="edge"><title>5&#45;&gt;11</title>
<path fill="none" stroke="black" d="M794.143,-325.645C789.966,-299.535 783.972,-262.075 779.809,-236.053"/>
<text text-anchor="middle" x="794.75" y="-275.6" font-family="Times,serif" font-size="18.00" fill="red"> 2</text>
</g>
<!-- 6&#45;&gt;7 -->
<g id="edge14" class="edge"><title>6&#45;&gt;7</title>
<path fill="none" stroke="black" d="M504.453,-629.645C493.661,-603.535 478.178,-566.075 467.422,-540.053"/>
<text text-anchor="middle" x="496.75" y="-579.6" font-family="Times,serif" font-size="18.00" fill="red"> 2</text>
</g>
<!-- 7&#45;&gt;8 -->
<g id="edge16" class="edge"><title>7&#45;&gt;8</title>
<path fill="none" stroke="black" d="M423.646,-481.872C390.709,-454.424 339.211,-411.509 306.296,-384.08"/>
<text text-anchor="middle" x="382.75" y="-427.6" font-family="Times,serif" font-size="18.00" fill="red"> 2</text>
</g>
<!-- 7&#45;&gt;9 -->
<g id="edge18" class="edge"><title>7&#45;&gt;9</title>
<path fill="none" stroke="black" d="M486.223,-479.786C515.902,-452.969 560.285,-412.863 589.917,-386.087"/>
<text text-anchor="middle" x="554.75" y="-427.6" font-family="Times,serif" font-size="18.00" fill="red"> 2</text>
</g>
<!-- 8&#45;&gt;10 -->
<g id="edge20" class="edge"><title>8&#45;&gt;10</title>
<path fill="none" stroke="black" d="M247.883,-325.645C224.558,-299.535 191.094,-262.075 167.848,-236.053"/>
<text text-anchor="middle" x="223.75" y="-275.6" font-family="Times,serif" font-size="18.00" fill="red"> 2</text>
</g>
<!-- s8 -->
<g id="node24" class="node"><title>s8</title>
<polygon fill="violet" stroke="black" points="330,-205 314.5,-236 283.5,-236 268,-205 283.5,-174 314.5,-174 330,-205"/>
<text text-anchor="middle" x="299" y="-200.8" font-family="Times,serif" font-size="14.00">s8</text>
</g>
<!-- 8&#45;&gt;s8 -->
<g id="edge23" class="edge"><title>8&#45;&gt;s8</title>
<path fill="none" stroke="black" d="M279.857,-325.645C284.034,-299.535 290.028,-262.075 294.191,-236.053"/>
<text text-anchor="middle" x="295.75" y="-275.6" font-family="Times,serif" font-size="18.00" fill="purple"> 1</text>
</g>
<!-- 9&#45;&gt;11 -->
<g id="edge22" class="edge"><title>9&#45;&gt;11</title>
<path fill="none" stroke="black" d="M652.164,-325.645C678.97,-299.535 717.429,-262.075 744.145,-236.053"/>
<text text-anchor="middle" x="713.75" y="-275.6" font-family="Times,serif" font-size="18.00" fill="red"> 2</text>
</g>
<!-- s9 -->
<g id="node25" class="node"><title>s9</title>
<polygon fill="violet" stroke="black" points="648,-205 632.5,-236 601.5,-236 586,-205 601.5,-174 632.5,-174 648,-205"/>
<text text-anchor="middle" x="617" y="-200.8" font-family="Times,serif" font-size="14.00">s9</text>
</g>
<!-- 9&#45;&gt;s9 -->
<g id="edge24" class="edge"><title>9&#45;&gt;s9</title>
<path fill="none" stroke="black" d="M616.845,-325.833C615.491,-314.607 614.165,-301.744 613.5,-290 612.493,-272.221 613.241,-252.311 614.299,-236.338"/>
<text text-anchor="middle" x="619.75" y="-275.6" font-family="Times,serif" font-size="18.00" fill="purple"> 1</text>
</g>
<!-- s10 -->
<g id="node26" class="node"><title>s10</title>
<polygon fill="violet" stroke="black" points="172,-53 156.5,-84 125.5,-84 110,-53 125.5,-22 156.5,-22 172,-53"/>
<text text-anchor="middle" x="141" y="-48.8" font-family="Times,serif" font-size="14.00">s10</text>
</g>
<!-- 10&#45;&gt;s10 -->
<g id="edge25" class="edge"><title>10&#45;&gt;s10</title>
<path fill="none" stroke="black" d="M141,-173.645C141,-147.535 141,-110.075 141,-84.0533"/>
<text text-anchor="middle" x="147.75" y="-123.6" font-family="Times,serif" font-size="18.00" fill="purple"> 2</text>
</g>
<!-- s11 -->
<g id="node27" class="node"><title>s11</title>
<polygon fill="violet" stroke="black" points="806,-53 790.5,-84 759.5,-84 744,-53 759.5,-22 790.5,-22 806,-53"/>
<text text-anchor="middle" x="775" y="-48.8" font-family="Times,serif" font-size="14.00">s11</text>
</g>
<!-- 11&#45;&gt;s11 -->
<g id="edge26" class="edge"><title>11&#45;&gt;s11</title>
<path fill="none" stroke="black" d="M775,-173.645C775,-147.535 775,-110.075 775,-84.0533"/>
<text text-anchor="middle" x="781.75" y="-123.6" font-family="Times,serif" font-size="18.00" fill="purple"> 2</text>
</g>
</g>
</svg>
