<?xml version="1.0" encoding="UTF-8" standalone="no"?>
<!DOCTYPE svg PUBLIC "-//W3C//DTD SVG 1.1//EN"
 "http://www.w3.org/Graphics/SVG/1.1/DTD/svg11.dtd">
<!-- Generated by graphviz version 2.38.0 (20140413.2041)
 -->
<!-- Title: xxx Pages: 1 -->
<svg width="666pt" height="813pt"
 viewBox="0.00 0.00 666.00 813.00" xmlns="http://www.w3.org/2000/svg" xmlns:xlink="http://www.w3.org/1999/xlink">
<g id="graph0" class="graph" transform="scale(1 1) rotate(0) translate(4 809)">
<title>xxx</title>
<polygon fill="white" stroke="none" points="-4,4 -4,-809 662,-809 662,4 -4,4"/>
<text text-anchor="middle" x="329" y="-6.8" font-family="Times,serif" font-size="14.00"> &#160;</text>
<!-- 1a -->
<g id="node1" class="node"><title>1a</title>
<polygon fill="lightblue" stroke="black" points="291,-765 311,-795 271,-795 291,-765"/>
<text text-anchor="middle" x="291" y="-780.8" font-family="Times,serif" font-size="14.00">p1</text>
</g>
<!-- 1 -->
<g id="node9" class="node"><title>1</title>
<polygon fill="none" stroke="black" points="428,-692 366,-692 366,-630 428,-630 428,-692"/>
<text text-anchor="middle" x="397" y="-656.8" font-family="Times,serif" font-size="14.00">1</text>
</g>
<!-- 1a&#45;&gt;1 -->
<g id="edge1" class="edge"><title>1a&#45;&gt;1</title>
<path fill="none" stroke="black" d="M298.286,-775.614C312.973,-758.71 346.773,-719.808 370.719,-692.248"/>
</g>
<!-- 2a -->
<g id="node2" class="node"><title>2a</title>
<polygon fill="lightblue" stroke="black" points="157,-641 177,-671 137,-671 157,-641"/>
<text text-anchor="middle" x="157" y="-656.8" font-family="Times,serif" font-size="14.00">p1</text>
</g>
<!-- 2 -->
<g id="node10" class="node"><title>2</title>
<polygon fill="none" stroke="black" points="291,-540 229,-540 229,-478 291,-478 291,-540"/>
<text text-anchor="middle" x="260" y="-504.8" font-family="Times,serif" font-size="14.00">2</text>
</g>
<!-- 2a&#45;&gt;2 -->
<g id="edge3" class="edge"><title>2a&#45;&gt;2</title>
<path fill="none" stroke="black" d="M163.443,-650.617C178.329,-628.938 215.641,-574.6 239.282,-540.171"/>
</g>
<!-- 3a -->
<g id="node3" class="node"><title>3a</title>
<polygon fill="lightblue" stroke="black" points="20,-489 40,-519 1.77636e-14,-519 20,-489"/>
<text text-anchor="middle" x="20" y="-504.8" font-family="Times,serif" font-size="14.00">p1</text>
</g>
<!-- 3 -->
<g id="node11" class="node"><title>3</title>
<polygon fill="none" stroke="black" points="148,-388 86,-388 86,-326 148,-326 148,-388"/>
<text text-anchor="middle" x="117" y="-352.8" font-family="Times,serif" font-size="14.00">3</text>
</g>
<!-- 3a&#45;&gt;3 -->
<g id="edge5" class="edge"><title>3a&#45;&gt;3</title>
<path fill="none" stroke="black" d="M26.3644,-498.158C40.5684,-476.193 75.3403,-422.422 97.4508,-388.231"/>
</g>
<!-- 4a -->
<g id="node4" class="node"><title>4a</title>
<polygon fill="orange" stroke="black" points="526,-765 546,-795 506,-795 526,-765"/>
<text text-anchor="middle" x="526" y="-780.8" font-family="Times,serif" font-size="14.00">p2</text>
</g>
<!-- 4 -->
<g id="node12" class="node"><title>4</title>
<polygon fill="none" stroke="black" points="562,-692 500,-692 500,-630 562,-630 562,-692"/>
<text text-anchor="middle" x="531" y="-656.8" font-family="Times,serif" font-size="14.00">4</text>
</g>
<!-- 4a&#45;&gt;4 -->
<g id="edge7" class="edge"><title>4a&#45;&gt;4</title>
<path fill="none" stroke="black" d="M526.738,-765.998C527.531,-746.644 528.806,-715.54 529.755,-692.383"/>
</g>
<!-- 1b -->
<g id="node5" class="node"><title>1b</title>
<polygon fill="lightblue" stroke="black" points="403,-765 423,-795 383,-795 403,-765"/>
<text text-anchor="middle" x="403" y="-780.8" font-family="Times,serif" font-size="14.00">p1</text>
</g>
<!-- 1b&#45;&gt;1 -->
<g id="edge2" class="edge"><title>1b&#45;&gt;1</title>
<path fill="none" stroke="black" d="M402.128,-766.26C401.172,-746.831 399.623,-715.337 398.477,-692.041"/>
</g>
<!-- 2b -->
<g id="node6" class="node"><title>2b</title>
<polygon fill="lightblue" stroke="black" points="269,-641 289,-671 249,-671 269,-641"/>
<text text-anchor="middle" x="269" y="-656.8" font-family="Times,serif" font-size="14.00">p1</text>
</g>
<!-- 2b&#45;&gt;2 -->
<g id="edge4" class="edge"><title>2b&#45;&gt;2</title>
<path fill="none" stroke="black" d="M267.95,-642.5C266.443,-617.383 263.646,-570.765 261.804,-540.062"/>
</g>
<!-- 3b -->
<g id="node7" class="node"><title>3b</title>
<polygon fill="lightblue" stroke="black" points="132,-489 152,-519 112,-519 132,-489"/>
<text text-anchor="middle" x="132" y="-504.8" font-family="Times,serif" font-size="14.00">p1</text>
</g>
<!-- 3b&#45;&gt;3 -->
<g id="edge6" class="edge"><title>3b&#45;&gt;3</title>
<path fill="none" stroke="black" d="M130.337,-491.374C127.851,-466.508 123.124,-419.236 120.017,-388.171"/>
</g>
<!-- 4b -->
<g id="node8" class="node"><title>4b</title>
<polygon fill="orange" stroke="black" points="638,-765 658,-795 618,-795 638,-765"/>
<text text-anchor="middle" x="638" y="-780.8" font-family="Times,serif" font-size="14.00">p2</text>
</g>
<!-- 4b&#45;&gt;4 -->
<g id="edge8" class="edge"><title>4b&#45;&gt;4</title>
<path fill="none" stroke="black" d="M630.645,-775.614C615.82,-758.71 581.701,-719.808 557.529,-692.248"/>
</g>
<!-- 5 -->
<g id="node13" class="node"><title>5</title>
<polygon fill="none" stroke="black" points="449,-540 387,-540 387,-478 449,-478 449,-540"/>
<text text-anchor="middle" x="418" y="-504.8" font-family="Times,serif" font-size="14.00">5</text>
</g>
<!-- 1&#45;&gt;5 -->
<g id="edge9" class="edge"><title>1&#45;&gt;5</title>
<path fill="none" stroke="black" d="M401.25,-629.645C404.905,-603.535 410.149,-566.075 413.793,-540.053"/>
<text text-anchor="middle" x="414.75" y="-579.6" font-family="Times,serif" font-size="18.00" fill="red"> 2</text>
</g>
<!-- 6 -->
<g id="node14" class="node"><title>6</title>
<polygon fill="none" stroke="black" points="306,-388 244,-388 244,-326 306,-326 306,-388"/>
<text text-anchor="middle" x="275" y="-352.8" font-family="Times,serif" font-size="14.00">6</text>
</g>
<!-- 2&#45;&gt;6 -->
<g id="edge11" class="edge"><title>2&#45;&gt;6</title>
<path fill="none" stroke="black" d="M256.167,-477.942C254.767,-461.872 254.054,-441.786 256.5,-424 258.137,-412.093 261.362,-399.308 264.667,-388.192"/>
<text text-anchor="middle" x="263.75" y="-427.6" font-family="Times,serif" font-size="18.00" fill="red"> 2</text>
</g>
<!-- 7 -->
<g id="node15" class="node"><title>7</title>
<polygon fill="none" stroke="black" points="172,-236 110,-236 110,-174 172,-174 172,-236"/>
<text text-anchor="middle" x="141" y="-200.8" font-family="Times,serif" font-size="14.00">7</text>
</g>
<!-- 3&#45;&gt;7 -->
<g id="edge13" class="edge"><title>3&#45;&gt;7</title>
<path fill="none" stroke="black" d="M112.297,-325.795C110.65,-309.684 109.979,-289.604 113.5,-272 115.934,-259.828 120.663,-247.094 125.522,-236.095"/>
<text text-anchor="middle" x="120.75" y="-275.6" font-family="Times,serif" font-size="18.00" fill="red"> 2</text>
</g>
<!-- 4&#45;&gt;5 -->
<g id="edge10" class="edge"><title>4&#45;&gt;5</title>
<path fill="none" stroke="black" d="M508.133,-629.645C488.463,-603.535 460.243,-566.075 440.64,-540.053"/>
<text text-anchor="middle" x="487.75" y="-579.6" font-family="Times,serif" font-size="18.00" fill="red"> 2</text>
</g>
<!-- 5&#45;&gt;6 -->
<g id="edge12" class="edge"><title>5&#45;&gt;6</title>
<path fill="none" stroke="black" d="M389.062,-477.645C364.17,-451.535 328.459,-414.075 303.651,-388.053"/>
<text text-anchor="middle" x="362.75" y="-427.6" font-family="Times,serif" font-size="18.00" fill="red"> 2</text>
</g>
<!-- s5 -->
<g id="node16" class="node"><title>s5</title>
<polygon fill="violet" stroke="black" points="473,-357 457.5,-388 426.5,-388 411,-357 426.5,-326 457.5,-326 473,-357"/>
<text text-anchor="middle" x="442" y="-352.8" font-family="Times,serif" font-size="14.00">s5</text>
</g>
<!-- 5&#45;&gt;s5 -->
<g id="edge15" class="edge"><title>5&#45;&gt;s5</title>
<path fill="none" stroke="black" d="M422.857,-477.645C427.034,-451.535 433.028,-414.075 437.191,-388.053"/>
<text text-anchor="middle" x="437.75" y="-427.6" font-family="Times,serif" font-size="18.00" fill="purple"> 1</text>
</g>
<!-- 6&#45;&gt;7 -->
<g id="edge14" class="edge"><title>6&#45;&gt;7</title>
<path fill="none" stroke="black" d="M247.883,-325.645C224.558,-299.535 191.094,-262.075 167.848,-236.053"/>
<text text-anchor="middle" x="223.75" y="-275.6" font-family="Times,serif" font-size="18.00" fill="red"> 2</text>
</g>
<!-- s6 -->
<g id="node17" class="node"><title>s6</title>
<polygon fill="violet" stroke="black" points="330,-205 314.5,-236 283.5,-236 268,-205 283.5,-174 314.5,-174 330,-205"/>
<text text-anchor="middle" x="299" y="-200.8" font-family="Times,serif" font-size="14.00">s6</text>
</g>
<!-- 6&#45;&gt;s6 -->
<g id="edge16" class="edge"><title>6&#45;&gt;s6</title>
<path fill="none" stroke="black" d="M279.857,-325.645C284.034,-299.535 290.028,-262.075 294.191,-236.053"/>
<text text-anchor="middle" x="295.75" y="-275.6" font-family="Times,serif" font-size="18.00" fill="purple"> 1</text>
</g>
<!-- s7 -->
<g id="node18" class="node"><title>s7</title>
<polygon fill="violet" stroke="black" points="172,-53 156.5,-84 125.5,-84 110,-53 125.5,-22 156.5,-22 172,-53"/>
<text text-anchor="middle" x="141" y="-48.8" font-family="Times,serif" font-size="14.00">s7</text>
</g>
<!-- 7&#45;&gt;s7 -->
<g id="edge17" class="edge"><title>7&#45;&gt;s7</title>
<path fill="none" stroke="black" d="M141,-173.645C141,-147.535 141,-110.075 141,-84.0533"/>
<text text-anchor="middle" x="147.75" y="-123.6" font-family="Times,serif" font-size="18.00" fill="purple"> 2</text>
</g>
</g>
</svg>
