<?xml version="1.0" encoding="UTF-8" standalone="no"?>
<!DOCTYPE svg PUBLIC "-//W3C//DTD SVG 1.1//EN"
 "http://www.w3.org/Graphics/SVG/1.1/DTD/svg11.dtd">
<!-- Generated by graphviz version 2.38.0 (20140413.2041)
 -->
<!-- Title: xxx Pages: 1 -->
<svg width="1236pt" height="813pt"
 viewBox="0.00 0.00 1236.00 813.00" xmlns="http://www.w3.org/2000/svg" xmlns:xlink="http://www.w3.org/1999/xlink">
<g id="graph0" class="graph" transform="scale(1 1) rotate(0) translate(4 809)">
<title>xxx</title>
<polygon fill="white" stroke="none" points="-4,4 -4,-809 1232,-809 1232,4 -4,4"/>
<text text-anchor="middle" x="614" y="-6.8" font-family="Times,serif" font-size="14.00"> &#160;</text>
<!-- 1a -->
<g id="node1" class="node"><title>1a</title>
<polygon fill="lightblue" stroke="black" points="271,-765 291,-795 251,-795 271,-765"/>
<text text-anchor="middle" x="271" y="-780.8" font-family="Times,serif" font-size="14.00">p1</text>
</g>
<!-- 1 -->
<g id="node17" class="node"><title>1</title>
<polygon fill="none" stroke="black" points="414,-692 352,-692 352,-630 414,-630 414,-692"/>
<text text-anchor="middle" x="383" y="-656.8" font-family="Times,serif" font-size="14.00">1</text>
</g>
<!-- 1a&#45;&gt;1 -->
<g id="edge1" class="edge"><title>1a&#45;&gt;1</title>
<path fill="none" stroke="black" d="M278.349,-775.995C293.678,-759.297 329.757,-719.996 355.252,-692.226"/>
</g>
<!-- 2a -->
<g id="node2" class="node"><title>2a</title>
<polygon fill="lightblue" stroke="black" points="719,-765 739,-795 699,-795 719,-765"/>
<text text-anchor="middle" x="719" y="-780.8" font-family="Times,serif" font-size="14.00">p1</text>
</g>
<!-- 2 -->
<g id="node18" class="node"><title>2</title>
<polygon fill="none" stroke="black" points="791,-692 729,-692 729,-630 791,-630 791,-692"/>
<text text-anchor="middle" x="760" y="-656.8" font-family="Times,serif" font-size="14.00">2</text>
</g>
<!-- 2a&#45;&gt;2 -->
<g id="edge3" class="edge"><title>2a&#45;&gt;2</title>
<path fill="none" stroke="black" d="M723.388,-770.944C729.668,-752.257 741.397,-717.354 749.891,-692.079"/>
</g>
<!-- 3a -->
<g id="node3" class="node"><title>3a</title>
<polygon fill="lightblue" stroke="black" points="148,-641 168,-671 128,-671 148,-641"/>
<text text-anchor="middle" x="148" y="-656.8" font-family="Times,serif" font-size="14.00">p1</text>
</g>
<!-- 3 -->
<g id="node19" class="node"><title>3</title>
<polygon fill="none" stroke="black" points="291,-540 229,-540 229,-478 291,-478 291,-540"/>
<text text-anchor="middle" x="260" y="-504.8" font-family="Times,serif" font-size="14.00">3</text>
</g>
<!-- 3a&#45;&gt;3 -->
<g id="edge5" class="edge"><title>3a&#45;&gt;3</title>
<path fill="none" stroke="black" d="M155.006,-650.617C171.193,-628.938 211.765,-574.6 237.472,-540.171"/>
</g>
<!-- 4a -->
<g id="node4" class="node"><title>4a</title>
<polygon fill="lightblue" stroke="black" points="1096,-641 1116,-671 1076,-671 1096,-641"/>
<text text-anchor="middle" x="1096" y="-656.8" font-family="Times,serif" font-size="14.00">p1</text>
</g>
<!-- 4 -->
<g id="node20" class="node"><title>4</title>
<polygon fill="none" stroke="black" points="1214,-540 1152,-540 1152,-478 1214,-478 1214,-540"/>
<text text-anchor="middle" x="1183" y="-504.8" font-family="Times,serif" font-size="14.00">4</text>
</g>
<!-- 4a&#45;&gt;4 -->
<g id="edge7" class="edge"><title>4a&#45;&gt;4</title>
<path fill="none" stroke="black" d="M1101.98,-649.69C1114.88,-627.45 1145.74,-574.241 1165.43,-540.287"/>
</g>
<!-- 5a -->
<g id="node5" class="node"><title>5a</title>
<polygon fill="lightblue" stroke="black" points="20,-489 40,-519 1.77636e-14,-519 20,-489"/>
<text text-anchor="middle" x="20" y="-504.8" font-family="Times,serif" font-size="14.00">p1</text>
</g>
<!-- 5 -->
<g id="node21" class="node"><title>5</title>
<polygon fill="none" stroke="black" points="163,-388 101,-388 101,-326 163,-326 163,-388"/>
<text text-anchor="middle" x="132" y="-352.8" font-family="Times,serif" font-size="14.00">5</text>
</g>
<!-- 5a&#45;&gt;5 -->
<g id="edge9" class="edge"><title>5a&#45;&gt;5</title>
<path fill="none" stroke="black" d="M27.0061,-498.617C43.1928,-476.938 83.765,-422.6 109.472,-388.171"/>
</g>
<!-- 6a -->
<g id="node6" class="node"><title>6a</title>
<polygon fill="lightblue" stroke="black" points="883,-489 903,-519 863,-519 883,-489"/>
<text text-anchor="middle" x="883" y="-504.8" font-family="Times,serif" font-size="14.00">p1</text>
</g>
<!-- 6 -->
<g id="node22" class="node"><title>6</title>
<polygon fill="none" stroke="black" points="987,-388 925,-388 925,-326 987,-326 987,-388"/>
<text text-anchor="middle" x="956" y="-352.8" font-family="Times,serif" font-size="14.00">6</text>
</g>
<!-- 6a&#45;&gt;6 -->
<g id="edge11" class="edge"><title>6a&#45;&gt;6</title>
<path fill="none" stroke="black" d="M888.487,-496.726C899.595,-473.901 925.07,-421.555 941.356,-388.091"/>
</g>
<!-- 7a -->
<g id="node7" class="node"><title>7a</title>
<polygon fill="orange" stroke="black" points="495,-765 515,-795 475,-795 495,-765"/>
<text text-anchor="middle" x="495" y="-780.8" font-family="Times,serif" font-size="14.00">p2</text>
</g>
<!-- 7 -->
<g id="node23" class="node"><title>7</title>
<polygon fill="none" stroke="black" points="548,-692 486,-692 486,-630 548,-630 548,-692"/>
<text text-anchor="middle" x="517" y="-656.8" font-family="Times,serif" font-size="14.00">7</text>
</g>
<!-- 7a&#45;&gt;7 -->
<g id="edge13" class="edge"><title>7a&#45;&gt;7</title>
<path fill="none" stroke="black" d="M497.698,-769.04C501.14,-749.952 507.175,-716.483 511.583,-692.04"/>
</g>
<!-- 8a -->
<g id="node8" class="node"><title>8a</title>
<polygon fill="orange" stroke="black" points="943,-765 963,-795 923,-795 943,-765"/>
<text text-anchor="middle" x="943" y="-780.8" font-family="Times,serif" font-size="14.00">p2</text>
</g>
<!-- 8 -->
<g id="node24" class="node"><title>8</title>
<polygon fill="none" stroke="black" points="974,-692 912,-692 912,-630 974,-630 974,-692"/>
<text text-anchor="middle" x="943" y="-656.8" font-family="Times,serif" font-size="14.00">8</text>
</g>
<!-- 8a&#45;&gt;8 -->
<g id="edge15" class="edge"><title>8a&#45;&gt;8</title>
<path fill="none" stroke="black" d="M943,-764.938C943,-745.503 943,-715.06 943,-692.314"/>
</g>
<!-- 1b -->
<g id="node9" class="node"><title>1b</title>
<polygon fill="lightblue" stroke="black" points="383,-765 403,-795 363,-795 383,-765"/>
<text text-anchor="middle" x="383" y="-780.8" font-family="Times,serif" font-size="14.00">p1</text>
</g>
<!-- 1b&#45;&gt;1 -->
<g id="edge2" class="edge"><title>1b&#45;&gt;1</title>
<path fill="none" stroke="black" d="M383,-764.938C383,-745.503 383,-715.06 383,-692.314"/>
</g>
<!-- 2b -->
<g id="node10" class="node"><title>2b</title>
<polygon fill="lightblue" stroke="black" points="831,-765 851,-795 811,-795 831,-765"/>
<text text-anchor="middle" x="831" y="-780.8" font-family="Times,serif" font-size="14.00">p1</text>
</g>
<!-- 2b&#45;&gt;2 -->
<g id="edge4" class="edge"><title>2b&#45;&gt;2</title>
<path fill="none" stroke="black" d="M824.947,-773.598C814.551,-755.735 792.935,-718.592 777.496,-692.064"/>
</g>
<!-- 3b -->
<g id="node11" class="node"><title>3b</title>
<polygon fill="lightblue" stroke="black" points="260,-641 280,-671 240,-671 260,-641"/>
<text text-anchor="middle" x="260" y="-656.8" font-family="Times,serif" font-size="14.00">p1</text>
</g>
<!-- 3b&#45;&gt;3 -->
<g id="edge6" class="edge"><title>3b&#45;&gt;3</title>
<path fill="none" stroke="black" d="M260,-640.697C260,-615.219 260,-570.094 260,-540.111"/>
</g>
<!-- 4b -->
<g id="node12" class="node"><title>4b</title>
<polygon fill="lightblue" stroke="black" points="1208,-641 1228,-671 1188,-671 1208,-641"/>
<text text-anchor="middle" x="1208" y="-656.8" font-family="Times,serif" font-size="14.00">p1</text>
</g>
<!-- 4b&#45;&gt;4 -->
<g id="edge8" class="edge"><title>4b&#45;&gt;4</title>
<path fill="none" stroke="black" d="M1205.47,-644.792C1201.39,-620.362 1193.32,-571.914 1188.04,-540.248"/>
</g>
<!-- 5b -->
<g id="node13" class="node"><title>5b</title>
<polygon fill="lightblue" stroke="black" points="132,-489 152,-519 112,-519 132,-489"/>
<text text-anchor="middle" x="132" y="-504.8" font-family="Times,serif" font-size="14.00">p1</text>
</g>
<!-- 5b&#45;&gt;5 -->
<g id="edge10" class="edge"><title>5b&#45;&gt;5</title>
<path fill="none" stroke="black" d="M132,-488.697C132,-463.219 132,-418.094 132,-388.111"/>
</g>
<!-- 6b -->
<g id="node14" class="node"><title>6b</title>
<polygon fill="lightblue" stroke="black" points="995,-489 1015,-519 975,-519 995,-489"/>
<text text-anchor="middle" x="995" y="-504.8" font-family="Times,serif" font-size="14.00">p1</text>
</g>
<!-- 6b&#45;&gt;6 -->
<g id="edge12" class="edge"><title>6b&#45;&gt;6</title>
<path fill="none" stroke="black" d="M991.401,-494.157C985.159,-470.151 972.192,-420.278 963.804,-388.017"/>
</g>
<!-- 7b -->
<g id="node15" class="node"><title>7b</title>
<polygon fill="orange" stroke="black" points="607,-765 627,-795 587,-795 607,-765"/>
<text text-anchor="middle" x="607" y="-780.8" font-family="Times,serif" font-size="14.00">p2</text>
</g>
<!-- 7b&#45;&gt;7 -->
<g id="edge14" class="edge"><title>7b&#45;&gt;7</title>
<path fill="none" stroke="black" d="M600.235,-774.83C587.44,-757.485 559.182,-719.18 539.149,-692.024"/>
</g>
<!-- 8b -->
<g id="node16" class="node"><title>8b</title>
<polygon fill="orange" stroke="black" points="1055,-765 1075,-795 1035,-795 1055,-765"/>
<text text-anchor="middle" x="1055" y="-780.8" font-family="Times,serif" font-size="14.00">p2</text>
</g>
<!-- 8b&#45;&gt;8 -->
<g id="edge16" class="edge"><title>8b&#45;&gt;8</title>
<path fill="none" stroke="black" d="M1047.65,-775.995C1032.32,-759.297 996.243,-719.996 970.748,-692.226"/>
</g>
<!-- 9 -->
<g id="node25" class="node"><title>9</title>
<polygon fill="none" stroke="black" points="487,-540 425,-540 425,-478 487,-478 487,-540"/>
<text text-anchor="middle" x="456" y="-504.8" font-family="Times,serif" font-size="14.00">9</text>
</g>
<!-- 1&#45;&gt;9 -->
<g id="edge17" class="edge"><title>1&#45;&gt;9</title>
<path fill="none" stroke="black" d="M397.773,-629.645C410.479,-603.535 428.71,-566.075 441.374,-540.053"/>
<text text-anchor="middle" x="430.75" y="-579.6" font-family="Times,serif" font-size="18.00" fill="red"> 2</text>
</g>
<!-- 10 -->
<g id="node26" class="node"><title>10</title>
<polygon fill="none" stroke="black" points="791,-540 729,-540 729,-478 791,-478 791,-540"/>
<text text-anchor="middle" x="760" y="-504.8" font-family="Times,serif" font-size="14.00">10</text>
</g>
<!-- 2&#45;&gt;10 -->
<g id="edge19" class="edge"><title>2&#45;&gt;10</title>
<path fill="none" stroke="black" d="M760,-629.645C760,-603.535 760,-566.075 760,-540.053"/>
<text text-anchor="middle" x="766.75" y="-579.6" font-family="Times,serif" font-size="18.00" fill="red"> 2</text>
</g>
<!-- 11 -->
<g id="node27" class="node"><title>11</title>
<polygon fill="none" stroke="black" points="321,-388 259,-388 259,-326 321,-326 321,-388"/>
<text text-anchor="middle" x="290" y="-352.8" font-family="Times,serif" font-size="14.00">11</text>
</g>
<!-- 3&#45;&gt;11 -->
<g id="edge21" class="edge"><title>3&#45;&gt;11</title>
<path fill="none" stroke="black" d="M266.071,-477.645C271.293,-451.535 278.785,-414.075 283.989,-388.053"/>
<text text-anchor="middle" x="283.75" y="-427.6" font-family="Times,serif" font-size="18.00" fill="red"> 2</text>
</g>
<!-- 12 -->
<g id="node28" class="node"><title>12</title>
<polygon fill="none" stroke="black" points="1145,-388 1083,-388 1083,-326 1145,-326 1145,-388"/>
<text text-anchor="middle" x="1114" y="-352.8" font-family="Times,serif" font-size="14.00">12</text>
</g>
<!-- 4&#45;&gt;12 -->
<g id="edge23" class="edge"><title>4&#45;&gt;12</title>
<path fill="none" stroke="black" d="M1169.04,-477.645C1157.03,-451.535 1139.79,-414.075 1127.82,-388.053"/>
<text text-anchor="middle" x="1158.75" y="-427.6" font-family="Times,serif" font-size="18.00" fill="red"> 2</text>
</g>
<!-- 13 -->
<g id="node29" class="node"><title>13</title>
<polygon fill="none" stroke="black" points="187,-236 125,-236 125,-174 187,-174 187,-236"/>
<text text-anchor="middle" x="156" y="-200.8" font-family="Times,serif" font-size="14.00">13</text>
</g>
<!-- 5&#45;&gt;13 -->
<g id="edge25" class="edge"><title>5&#45;&gt;13</title>
<path fill="none" stroke="black" d="M127.297,-325.795C125.65,-309.684 124.979,-289.604 128.5,-272 130.934,-259.828 135.663,-247.094 140.522,-236.095"/>
<text text-anchor="middle" x="135.75" y="-275.6" font-family="Times,serif" font-size="18.00" fill="red"> 2</text>
</g>
<!-- 14 -->
<g id="node30" class="node"><title>14</title>
<polygon fill="none" stroke="black" points="1011,-236 949,-236 949,-174 1011,-174 1011,-236"/>
<text text-anchor="middle" x="980" y="-200.8" font-family="Times,serif" font-size="14.00">14</text>
</g>
<!-- 6&#45;&gt;14 -->
<g id="edge27" class="edge"><title>6&#45;&gt;14</title>
<path fill="none" stroke="black" d="M951.297,-325.795C949.65,-309.684 948.979,-289.604 952.5,-272 954.934,-259.828 959.663,-247.094 964.522,-236.095"/>
<text text-anchor="middle" x="958.75" y="-275.6" font-family="Times,serif" font-size="18.00" fill="red"> 2</text>
</g>
<!-- 7&#45;&gt;9 -->
<g id="edge18" class="edge"><title>7&#45;&gt;9</title>
<path fill="none" stroke="black" d="M504.656,-629.645C494.038,-603.535 478.804,-566.075 468.222,-540.053"/>
<text text-anchor="middle" x="497.75" y="-579.6" font-family="Times,serif" font-size="18.00" fill="red"> 2</text>
</g>
<!-- 8&#45;&gt;10 -->
<g id="edge20" class="edge"><title>8&#45;&gt;10</title>
<path fill="none" stroke="black" d="M911.957,-634.555C878.305,-606.971 824.907,-563.202 791.196,-535.57"/>
<text text-anchor="middle" x="868.75" y="-579.6" font-family="Times,serif" font-size="18.00" fill="red"> 2</text>
</g>
<!-- 9&#45;&gt;11 -->
<g id="edge22" class="edge"><title>9&#45;&gt;11</title>
<path fill="none" stroke="black" d="M424.777,-479.786C395.098,-452.969 350.715,-412.863 321.083,-386.087"/>
<text text-anchor="middle" x="389.75" y="-427.6" font-family="Times,serif" font-size="18.00" fill="red"> 2</text>
</g>
<!-- 15 -->
<g id="node31" class="node"><title>15</title>
<polygon fill="none" stroke="black" points="517,-388 455,-388 455,-326 517,-326 517,-388"/>
<text text-anchor="middle" x="486" y="-352.8" font-family="Times,serif" font-size="14.00">15</text>
</g>
<!-- 9&#45;&gt;15 -->
<g id="edge29" class="edge"><title>9&#45;&gt;15</title>
<path fill="none" stroke="black" d="M462.071,-477.645C467.293,-451.535 474.785,-414.075 479.989,-388.053"/>
<text text-anchor="middle" x="479.75" y="-427.6" font-family="Times,serif" font-size="18.00" fill="red"> 2</text>
</g>
<!-- 10&#45;&gt;12 -->
<g id="edge24" class="edge"><title>10&#45;&gt;12</title>
<path fill="none" stroke="black" d="M791.287,-493.797C802.522,-488.748 815.304,-483.063 827,-478 919.682,-437.882 1030.1,-392.344 1082.89,-370.71"/>
<text text-anchor="middle" x="958.75" y="-427.6" font-family="Times,serif" font-size="18.00" fill="red"> 2</text>
</g>
<!-- 10&#45;&gt;15 -->
<g id="edge30" class="edge"><title>10&#45;&gt;15</title>
<path fill="none" stroke="black" d="M728.835,-490.939C676.096,-462.067 569.855,-403.906 517.135,-375.045"/>
<text text-anchor="middle" x="646.75" y="-427.6" font-family="Times,serif" font-size="18.00" fill="red"> 2</text>
</g>
<!-- 11&#45;&gt;13 -->
<g id="edge26" class="edge"><title>11&#45;&gt;13</title>
<path fill="none" stroke="black" d="M262.883,-325.645C239.558,-299.535 206.094,-262.075 182.848,-236.053"/>
<text text-anchor="middle" x="238.75" y="-275.6" font-family="Times,serif" font-size="18.00" fill="red"> 2</text>
</g>
<!-- s11 -->
<g id="node32" class="node"><title>s11</title>
<polygon fill="violet" stroke="black" points="345,-205 329.5,-236 298.5,-236 283,-205 298.5,-174 329.5,-174 345,-205"/>
<text text-anchor="middle" x="314" y="-200.8" font-family="Times,serif" font-size="14.00">s11</text>
</g>
<!-- 11&#45;&gt;s11 -->
<g id="edge31" class="edge"><title>11&#45;&gt;s11</title>
<path fill="none" stroke="black" d="M294.857,-325.645C299.034,-299.535 305.028,-262.075 309.191,-236.053"/>
<text text-anchor="middle" x="310.75" y="-275.6" font-family="Times,serif" font-size="18.00" fill="purple"> 1</text>
</g>
<!-- 12&#45;&gt;14 -->
<g id="edge28" class="edge"><title>12&#45;&gt;14</title>
<path fill="none" stroke="black" d="M1086.88,-325.645C1063.56,-299.535 1030.09,-262.075 1006.85,-236.053"/>
<text text-anchor="middle" x="1061.75" y="-275.6" font-family="Times,serif" font-size="18.00" fill="red"> 2</text>
</g>
<!-- s12 -->
<g id="node33" class="node"><title>s12</title>
<polygon fill="violet" stroke="black" points="1169,-205 1153.5,-236 1122.5,-236 1107,-205 1122.5,-174 1153.5,-174 1169,-205"/>
<text text-anchor="middle" x="1138" y="-200.8" font-family="Times,serif" font-size="14.00">s12</text>
</g>
<!-- 12&#45;&gt;s12 -->
<g id="edge32" class="edge"><title>12&#45;&gt;s12</title>
<path fill="none" stroke="black" d="M1118.86,-325.645C1123.03,-299.535 1129.03,-262.075 1133.19,-236.053"/>
<text text-anchor="middle" x="1133.75" y="-275.6" font-family="Times,serif" font-size="18.00" fill="purple"> 1</text>
</g>
<!-- s13 -->
<g id="node34" class="node"><title>s13</title>
<polygon fill="violet" stroke="black" points="187,-53 171.5,-84 140.5,-84 125,-53 140.5,-22 171.5,-22 187,-53"/>
<text text-anchor="middle" x="156" y="-48.8" font-family="Times,serif" font-size="14.00">s13</text>
</g>
<!-- 13&#45;&gt;s13 -->
<g id="edge33" class="edge"><title>13&#45;&gt;s13</title>
<path fill="none" stroke="black" d="M156,-173.645C156,-147.535 156,-110.075 156,-84.0533"/>
<text text-anchor="middle" x="162.75" y="-123.6" font-family="Times,serif" font-size="18.00" fill="purple"> 2</text>
</g>
<!-- s14 -->
<g id="node35" class="node"><title>s14</title>
<polygon fill="violet" stroke="black" points="1011,-53 995.5,-84 964.5,-84 949,-53 964.5,-22 995.5,-22 1011,-53"/>
<text text-anchor="middle" x="980" y="-48.8" font-family="Times,serif" font-size="14.00">s14</text>
</g>
<!-- 14&#45;&gt;s14 -->
<g id="edge34" class="edge"><title>14&#45;&gt;s14</title>
<path fill="none" stroke="black" d="M980,-173.645C980,-147.535 980,-110.075 980,-84.0533"/>
<text text-anchor="middle" x="986.75" y="-123.6" font-family="Times,serif" font-size="18.00" fill="purple"> 2</text>
</g>
<!-- s15 -->
<g id="node36" class="node"><title>s15</title>
<polygon fill="violet" stroke="black" points="517,-205 501.5,-236 470.5,-236 455,-205 470.5,-174 501.5,-174 517,-205"/>
<text text-anchor="middle" x="486" y="-200.8" font-family="Times,serif" font-size="14.00">s15</text>
</g>
<!-- 15&#45;&gt;s15 -->
<g id="edge35" class="edge"><title>15&#45;&gt;s15</title>
<path fill="none" stroke="black" d="M486,-325.645C486,-299.535 486,-262.075 486,-236.053"/>
<text text-anchor="middle" x="492.75" y="-275.6" font-family="Times,serif" font-size="18.00" fill="purple"> 2</text>
</g>
</g>
</svg>
