<?xml version="1.0" encoding="UTF-8" standalone="no"?>
<!DOCTYPE svg PUBLIC "-//W3C//DTD SVG 1.1//EN"
 "http://www.w3.org/Graphics/SVG/1.1/DTD/svg11.dtd">
<!-- Generated by graphviz version 2.38.0 (20140413.2041)
 -->
<!-- Title: xxx Pages: 1 -->
<svg width="1083pt" height="813pt"
 viewBox="0.00 0.00 1083.00 813.00" xmlns="http://www.w3.org/2000/svg" xmlns:xlink="http://www.w3.org/1999/xlink">
<g id="graph0" class="graph" transform="scale(1 1) rotate(0) translate(4 809)">
<title>xxx</title>
<polygon fill="white" stroke="none" points="-4,4 -4,-809 1079,-809 1079,4 -4,4"/>
<text text-anchor="middle" x="537.5" y="-6.8" font-family="Times,serif" font-size="14.00"> &#160;</text>
<!-- 1a -->
<g id="node1" class="node"><title>1a</title>
<polygon fill="lightblue" stroke="black" points="719,-765 739,-795 699,-795 719,-765"/>
<text text-anchor="middle" x="719" y="-780.8" font-family="Times,serif" font-size="14.00">p1</text>
</g>
<!-- 1 -->
<g id="node13" class="node"><title>1</title>
<polygon fill="none" stroke="black" points="783,-692 721,-692 721,-630 783,-630 783,-692"/>
<text text-anchor="middle" x="752" y="-656.8" font-family="Times,serif" font-size="14.00">1</text>
</g>
<!-- 1a&#45;&gt;1 -->
<g id="edge1" class="edge"><title>1a&#45;&gt;1</title>
<path fill="none" stroke="black" d="M722.658,-770.478C727.726,-751.742 737.024,-717.367 743.798,-692.321"/>
</g>
<!-- 2a -->
<g id="node2" class="node"><title>2a</title>
<polygon fill="lightblue" stroke="black" points="607,-765 627,-795 587,-795 607,-765"/>
<text text-anchor="middle" x="607" y="-780.8" font-family="Times,serif" font-size="14.00">p1</text>
</g>
<!-- 2 -->
<g id="node14" class="node"><title>2</title>
<polygon fill="none" stroke="black" points="548,-692 486,-692 486,-630 548,-630 548,-692"/>
<text text-anchor="middle" x="517" y="-656.8" font-family="Times,serif" font-size="14.00">2</text>
</g>
<!-- 2a&#45;&gt;2 -->
<g id="edge3" class="edge"><title>2a&#45;&gt;2</title>
<path fill="none" stroke="black" d="M600.235,-774.83C587.44,-757.485 559.182,-719.18 539.149,-692.024"/>
</g>
<!-- 3a -->
<g id="node3" class="node"><title>3a</title>
<polygon fill="lightblue" stroke="black" points="260,-641 280,-671 240,-671 260,-641"/>
<text text-anchor="middle" x="260" y="-656.8" font-family="Times,serif" font-size="14.00">p1</text>
</g>
<!-- 3 -->
<g id="node15" class="node"><title>3</title>
<polygon fill="none" stroke="black" points="291,-540 229,-540 229,-478 291,-478 291,-540"/>
<text text-anchor="middle" x="260" y="-504.8" font-family="Times,serif" font-size="14.00">3</text>
</g>
<!-- 3a&#45;&gt;3 -->
<g id="edge5" class="edge"><title>3a&#45;&gt;3</title>
<path fill="none" stroke="black" d="M260,-640.697C260,-615.219 260,-570.094 260,-540.111"/>
</g>
<!-- 4a -->
<g id="node4" class="node"><title>4a</title>
<polygon fill="lightblue" stroke="black" points="20,-489 40,-519 1.77636e-14,-519 20,-489"/>
<text text-anchor="middle" x="20" y="-504.8" font-family="Times,serif" font-size="14.00">p1</text>
</g>
<!-- 4 -->
<g id="node16" class="node"><title>4</title>
<polygon fill="none" stroke="black" points="163,-388 101,-388 101,-326 163,-326 163,-388"/>
<text text-anchor="middle" x="132" y="-352.8" font-family="Times,serif" font-size="14.00">4</text>
</g>
<!-- 4a&#45;&gt;4 -->
<g id="edge7" class="edge"><title>4a&#45;&gt;4</title>
<path fill="none" stroke="black" d="M27.0061,-498.617C43.1928,-476.938 83.765,-422.6 109.472,-388.171"/>
</g>
<!-- 5a -->
<g id="node5" class="node"><title>5a</title>
<polygon fill="orange" stroke="black" points="943,-765 963,-795 923,-795 943,-765"/>
<text text-anchor="middle" x="943" y="-780.8" font-family="Times,serif" font-size="14.00">p2</text>
</g>
<!-- 5 -->
<g id="node17" class="node"><title>5</title>
<polygon fill="none" stroke="black" points="974,-692 912,-692 912,-630 974,-630 974,-692"/>
<text text-anchor="middle" x="943" y="-656.8" font-family="Times,serif" font-size="14.00">5</text>
</g>
<!-- 5a&#45;&gt;5 -->
<g id="edge9" class="edge"><title>5a&#45;&gt;5</title>
<path fill="none" stroke="black" d="M943,-764.938C943,-745.503 943,-715.06 943,-692.314"/>
</g>
<!-- 6a -->
<g id="node6" class="node"><title>6a</title>
<polygon fill="orange" stroke="black" points="383,-765 403,-795 363,-795 383,-765"/>
<text text-anchor="middle" x="383" y="-780.8" font-family="Times,serif" font-size="14.00">p2</text>
</g>
<!-- 6 -->
<g id="node18" class="node"><title>6</title>
<polygon fill="none" stroke="black" points="414,-692 352,-692 352,-630 414,-630 414,-692"/>
<text text-anchor="middle" x="383" y="-656.8" font-family="Times,serif" font-size="14.00">6</text>
</g>
<!-- 6a&#45;&gt;6 -->
<g id="edge11" class="edge"><title>6a&#45;&gt;6</title>
<path fill="none" stroke="black" d="M383,-764.938C383,-745.503 383,-715.06 383,-692.314"/>
</g>
<!-- 1b -->
<g id="node7" class="node"><title>1b</title>
<polygon fill="lightblue" stroke="black" points="831,-765 851,-795 811,-795 831,-765"/>
<text text-anchor="middle" x="831" y="-780.8" font-family="Times,serif" font-size="14.00">p1</text>
</g>
<!-- 1b&#45;&gt;1 -->
<g id="edge2" class="edge"><title>1b&#45;&gt;1</title>
<path fill="none" stroke="black" d="M824.535,-774.016C813.075,-756.318 788.774,-718.79 771.461,-692.053"/>
</g>
<!-- 2b -->
<g id="node8" class="node"><title>2b</title>
<polygon fill="lightblue" stroke="black" points="495,-765 515,-795 475,-795 495,-765"/>
<text text-anchor="middle" x="495" y="-780.8" font-family="Times,serif" font-size="14.00">p1</text>
</g>
<!-- 2b&#45;&gt;2 -->
<g id="edge4" class="edge"><title>2b&#45;&gt;2</title>
<path fill="none" stroke="black" d="M497.698,-769.04C501.14,-749.952 507.175,-716.483 511.583,-692.04"/>
</g>
<!-- 3b -->
<g id="node9" class="node"><title>3b</title>
<polygon fill="lightblue" stroke="black" points="148,-641 168,-671 128,-671 148,-641"/>
<text text-anchor="middle" x="148" y="-656.8" font-family="Times,serif" font-size="14.00">p1</text>
</g>
<!-- 3b&#45;&gt;3 -->
<g id="edge6" class="edge"><title>3b&#45;&gt;3</title>
<path fill="none" stroke="black" d="M155.006,-650.617C171.193,-628.938 211.765,-574.6 237.472,-540.171"/>
</g>
<!-- 4b -->
<g id="node10" class="node"><title>4b</title>
<polygon fill="lightblue" stroke="black" points="132,-489 152,-519 112,-519 132,-489"/>
<text text-anchor="middle" x="132" y="-504.8" font-family="Times,serif" font-size="14.00">p1</text>
</g>
<!-- 4b&#45;&gt;4 -->
<g id="edge8" class="edge"><title>4b&#45;&gt;4</title>
<path fill="none" stroke="black" d="M132,-488.697C132,-463.219 132,-418.094 132,-388.111"/>
</g>
<!-- 5b -->
<g id="node11" class="node"><title>5b</title>
<polygon fill="orange" stroke="black" points="1055,-765 1075,-795 1035,-795 1055,-765"/>
<text text-anchor="middle" x="1055" y="-780.8" font-family="Times,serif" font-size="14.00">p2</text>
</g>
<!-- 5b&#45;&gt;5 -->
<g id="edge10" class="edge"><title>5b&#45;&gt;5</title>
<path fill="none" stroke="black" d="M1047.65,-775.995C1032.32,-759.297 996.243,-719.996 970.748,-692.226"/>
</g>
<!-- 6b -->
<g id="node12" class="node"><title>6b</title>
<polygon fill="orange" stroke="black" points="271,-765 291,-795 251,-795 271,-765"/>
<text text-anchor="middle" x="271" y="-780.8" font-family="Times,serif" font-size="14.00">p2</text>
</g>
<!-- 6b&#45;&gt;6 -->
<g id="edge12" class="edge"><title>6b&#45;&gt;6</title>
<path fill="none" stroke="black" d="M278.349,-775.995C293.678,-759.297 329.757,-719.996 355.252,-692.226"/>
</g>
<!-- 7 -->
<g id="node19" class="node"><title>7</title>
<polygon fill="none" stroke="black" points="783,-540 721,-540 721,-478 783,-478 783,-540"/>
<text text-anchor="middle" x="752" y="-504.8" font-family="Times,serif" font-size="14.00">7</text>
</g>
<!-- 1&#45;&gt;7 -->
<g id="edge13" class="edge"><title>1&#45;&gt;7</title>
<path fill="none" stroke="black" d="M752,-629.645C752,-603.535 752,-566.075 752,-540.053"/>
<text text-anchor="middle" x="758.75" y="-579.6" font-family="Times,serif" font-size="18.00" fill="red"> 2</text>
</g>
<!-- 8 -->
<g id="node20" class="node"><title>8</title>
<polygon fill="none" stroke="black" points="470,-540 408,-540 408,-478 470,-478 470,-540"/>
<text text-anchor="middle" x="439" y="-504.8" font-family="Times,serif" font-size="14.00">8</text>
</g>
<!-- 2&#45;&gt;8 -->
<g id="edge15" class="edge"><title>2&#45;&gt;8</title>
<path fill="none" stroke="black" d="M501.216,-629.645C487.638,-603.535 468.159,-566.075 454.628,-540.053"/>
<text text-anchor="middle" x="489.75" y="-579.6" font-family="Times,serif" font-size="18.00" fill="red"> 2</text>
</g>
<!-- 9 -->
<g id="node21" class="node"><title>9</title>
<polygon fill="none" stroke="black" points="321,-388 259,-388 259,-326 321,-326 321,-388"/>
<text text-anchor="middle" x="290" y="-352.8" font-family="Times,serif" font-size="14.00">9</text>
</g>
<!-- 3&#45;&gt;9 -->
<g id="edge17" class="edge"><title>3&#45;&gt;9</title>
<path fill="none" stroke="black" d="M263.649,-477.922C265.807,-461.846 268.836,-441.761 272.5,-424 274.943,-412.158 278.218,-399.275 281.273,-388.06"/>
<text text-anchor="middle" x="279.75" y="-427.6" font-family="Times,serif" font-size="18.00" fill="red"> 2</text>
</g>
<!-- 10 -->
<g id="node22" class="node"><title>10</title>
<polygon fill="none" stroke="black" points="187,-236 125,-236 125,-174 187,-174 187,-236"/>
<text text-anchor="middle" x="156" y="-200.8" font-family="Times,serif" font-size="14.00">10</text>
</g>
<!-- 4&#45;&gt;10 -->
<g id="edge19" class="edge"><title>4&#45;&gt;10</title>
<path fill="none" stroke="black" d="M127.297,-325.795C125.65,-309.684 124.979,-289.604 128.5,-272 130.934,-259.828 135.663,-247.094 140.522,-236.095"/>
<text text-anchor="middle" x="135.75" y="-275.6" font-family="Times,serif" font-size="18.00" fill="red"> 2</text>
</g>
<!-- 5&#45;&gt;7 -->
<g id="edge14" class="edge"><title>5&#45;&gt;7</title>
<path fill="none" stroke="black" d="M911.887,-635.566C876.37,-607.673 818.611,-562.313 783.099,-534.423"/>
<text text-anchor="middle" x="864.75" y="-579.6" font-family="Times,serif" font-size="18.00" fill="red"> 2</text>
</g>
<!-- 6&#45;&gt;8 -->
<g id="edge16" class="edge"><title>6&#45;&gt;8</title>
<path fill="none" stroke="black" d="M387.899,-629.855C391.062,-613.58 395.845,-593.33 402.5,-576 407.194,-563.776 413.79,-551.032 420.086,-540.038"/>
<text text-anchor="middle" x="409.75" y="-579.6" font-family="Times,serif" font-size="18.00" fill="red"> 2</text>
</g>
<!-- 11 -->
<g id="node23" class="node"><title>11</title>
<polygon fill="none" stroke="black" points="502,-388 440,-388 440,-326 502,-326 502,-388"/>
<text text-anchor="middle" x="471" y="-352.8" font-family="Times,serif" font-size="14.00">11</text>
</g>
<!-- 7&#45;&gt;11 -->
<g id="edge21" class="edge"><title>7&#45;&gt;11</title>
<path fill="none" stroke="black" d="M720.854,-491.374C666.84,-462.541 556.396,-403.585 502.285,-374.7"/>
<text text-anchor="middle" x="635.75" y="-427.6" font-family="Times,serif" font-size="18.00" fill="red"> 2</text>
</g>
<!-- s7 -->
<g id="node24" class="node"><title>s7</title>
<polygon fill="violet" stroke="black" points="783,-357 767.5,-388 736.5,-388 721,-357 736.5,-326 767.5,-326 783,-357"/>
<text text-anchor="middle" x="752" y="-352.8" font-family="Times,serif" font-size="14.00">s7</text>
</g>
<!-- 7&#45;&gt;s7 -->
<g id="edge23" class="edge"><title>7&#45;&gt;s7</title>
<path fill="none" stroke="black" d="M752,-477.645C752,-451.535 752,-414.075 752,-388.053"/>
<text text-anchor="middle" x="758.75" y="-427.6" font-family="Times,serif" font-size="18.00" fill="purple"> 1</text>
</g>
<!-- 8&#45;&gt;9 -->
<g id="edge18" class="edge"><title>8&#45;&gt;9</title>
<path fill="none" stroke="black" d="M408.848,-477.645C382.912,-451.535 345.702,-414.075 319.853,-388.053"/>
<text text-anchor="middle" x="380.75" y="-427.6" font-family="Times,serif" font-size="18.00" fill="red"> 2</text>
</g>
<!-- 8&#45;&gt;11 -->
<g id="edge22" class="edge"><title>8&#45;&gt;11</title>
<path fill="none" stroke="black" d="M445.476,-477.645C451.046,-451.535 459.037,-414.075 464.589,-388.053"/>
<text text-anchor="middle" x="463.75" y="-427.6" font-family="Times,serif" font-size="18.00" fill="red"> 2</text>
</g>
<!-- 9&#45;&gt;10 -->
<g id="edge20" class="edge"><title>9&#45;&gt;10</title>
<path fill="none" stroke="black" d="M262.883,-325.645C239.558,-299.535 206.094,-262.075 182.848,-236.053"/>
<text text-anchor="middle" x="238.75" y="-275.6" font-family="Times,serif" font-size="18.00" fill="red"> 2</text>
</g>
<!-- s9 -->
<g id="node25" class="node"><title>s9</title>
<polygon fill="violet" stroke="black" points="345,-205 329.5,-236 298.5,-236 283,-205 298.5,-174 329.5,-174 345,-205"/>
<text text-anchor="middle" x="314" y="-200.8" font-family="Times,serif" font-size="14.00">s9</text>
</g>
<!-- 9&#45;&gt;s9 -->
<g id="edge24" class="edge"><title>9&#45;&gt;s9</title>
<path fill="none" stroke="black" d="M294.857,-325.645C299.034,-299.535 305.028,-262.075 309.191,-236.053"/>
<text text-anchor="middle" x="310.75" y="-275.6" font-family="Times,serif" font-size="18.00" fill="purple"> 1</text>
</g>
<!-- s10 -->
<g id="node26" class="node"><title>s10</title>
<polygon fill="violet" stroke="black" points="187,-53 171.5,-84 140.5,-84 125,-53 140.5,-22 171.5,-22 187,-53"/>
<text text-anchor="middle" x="156" y="-48.8" font-family="Times,serif" font-size="14.00">s10</text>
</g>
<!-- 10&#45;&gt;s10 -->
<g id="edge25" class="edge"><title>10&#45;&gt;s10</title>
<path fill="none" stroke="black" d="M156,-173.645C156,-147.535 156,-110.075 156,-84.0533"/>
<text text-anchor="middle" x="162.75" y="-123.6" font-family="Times,serif" font-size="18.00" fill="purple"> 2</text>
</g>
<!-- s11 -->
<g id="node27" class="node"><title>s11</title>
<polygon fill="violet" stroke="black" points="502,-205 486.5,-236 455.5,-236 440,-205 455.5,-174 486.5,-174 502,-205"/>
<text text-anchor="middle" x="471" y="-200.8" font-family="Times,serif" font-size="14.00">s11</text>
</g>
<!-- 11&#45;&gt;s11 -->
<g id="edge26" class="edge"><title>11&#45;&gt;s11</title>
<path fill="none" stroke="black" d="M471,-325.645C471,-299.535 471,-262.075 471,-236.053"/>
<text text-anchor="middle" x="477.75" y="-275.6" font-family="Times,serif" font-size="18.00" fill="purple"> 2</text>
</g>
</g>
</svg>
