<?xml version="1.0" encoding="UTF-8" standalone="no"?>
<!DOCTYPE svg PUBLIC "-//W3C//DTD SVG 1.1//EN"
 "http://www.w3.org/Graphics/SVG/1.1/DTD/svg11.dtd">
<!-- Generated by graphviz version 2.38.0 (20140413.2041)
 -->
<!-- Title: xxx Pages: 1 -->
<svg width="832pt" height="661pt"
 viewBox="0.00 0.00 832.00 661.00" xmlns="http://www.w3.org/2000/svg" xmlns:xlink="http://www.w3.org/1999/xlink">
<g id="graph0" class="graph" transform="scale(1 1) rotate(0) translate(4 657)">
<title>xxx</title>
<polygon fill="white" stroke="none" points="-4,4 -4,-657 828,-657 828,4 -4,4"/>
<text text-anchor="middle" x="412" y="-6.8" font-family="Times,serif" font-size="14.00"> &#160;</text>
<!-- 1a -->
<g id="node1" class="node"><title>1a</title>
<polygon fill="lightblue" stroke="black" points="468,-613 488,-643 448,-643 468,-613"/>
<text text-anchor="middle" x="468" y="-628.8" font-family="Times,serif" font-size="14.00">p1</text>
</g>
<!-- 1 -->
<g id="node9" class="node"><title>1</title>
<polygon fill="none" stroke="black" points="527,-540 465,-540 465,-478 527,-478 527,-540"/>
<text text-anchor="middle" x="496" y="-504.8" font-family="Times,serif" font-size="14.00">1</text>
</g>
<!-- 1a&#45;&gt;1 -->
<g id="edge1" class="edge"><title>1a&#45;&gt;1</title>
<path fill="none" stroke="black" d="M471.322,-617.526C475.668,-598.59 483.393,-564.929 489.046,-540.299"/>
</g>
<!-- 2a -->
<g id="node2" class="node"><title>2a</title>
<polygon fill="lightblue" stroke="black" points="356,-613 376,-643 336,-643 356,-613"/>
<text text-anchor="middle" x="356" y="-628.8" font-family="Times,serif" font-size="14.00">p1</text>
</g>
<!-- 2 -->
<g id="node10" class="node"><title>2</title>
<polygon fill="none" stroke="black" points="359,-540 297,-540 297,-478 359,-478 359,-540"/>
<text text-anchor="middle" x="328" y="-504.8" font-family="Times,serif" font-size="14.00">2</text>
</g>
<!-- 2a&#45;&gt;2 -->
<g id="edge3" class="edge"><title>2a&#45;&gt;2</title>
<path fill="none" stroke="black" d="M352.678,-617.526C348.332,-598.59 340.607,-564.929 334.954,-540.299"/>
</g>
<!-- 3a -->
<g id="node3" class="node"><title>3a</title>
<polygon fill="orange" stroke="black" points="692,-613 712,-643 672,-643 692,-613"/>
<text text-anchor="middle" x="692" y="-628.8" font-family="Times,serif" font-size="14.00">p2</text>
</g>
<!-- 3 -->
<g id="node11" class="node"><title>3</title>
<polygon fill="none" stroke="black" points="723,-540 661,-540 661,-478 723,-478 723,-540"/>
<text text-anchor="middle" x="692" y="-504.8" font-family="Times,serif" font-size="14.00">3</text>
</g>
<!-- 3a&#45;&gt;3 -->
<g id="edge5" class="edge"><title>3a&#45;&gt;3</title>
<path fill="none" stroke="black" d="M692,-612.938C692,-593.503 692,-563.06 692,-540.314"/>
</g>
<!-- 4a -->
<g id="node4" class="node"><title>4a</title>
<polygon fill="orange" stroke="black" points="132,-613 152,-643 112,-643 132,-613"/>
<text text-anchor="middle" x="132" y="-628.8" font-family="Times,serif" font-size="14.00">p2</text>
</g>
<!-- 4 -->
<g id="node12" class="node"><title>4</title>
<polygon fill="none" stroke="black" points="163,-540 101,-540 101,-478 163,-478 163,-540"/>
<text text-anchor="middle" x="132" y="-504.8" font-family="Times,serif" font-size="14.00">4</text>
</g>
<!-- 4a&#45;&gt;4 -->
<g id="edge7" class="edge"><title>4a&#45;&gt;4</title>
<path fill="none" stroke="black" d="M132,-612.938C132,-593.503 132,-563.06 132,-540.314"/>
</g>
<!-- 1b -->
<g id="node5" class="node"><title>1b</title>
<polygon fill="lightblue" stroke="black" points="580,-613 600,-643 560,-643 580,-613"/>
<text text-anchor="middle" x="580" y="-628.8" font-family="Times,serif" font-size="14.00">p1</text>
</g>
<!-- 1b&#45;&gt;1 -->
<g id="edge2" class="edge"><title>1b&#45;&gt;1</title>
<path fill="none" stroke="black" d="M573.409,-622.427C561.342,-604.901 535.237,-566.986 516.683,-540.04"/>
</g>
<!-- 2b -->
<g id="node6" class="node"><title>2b</title>
<polygon fill="lightblue" stroke="black" points="244,-613 264,-643 224,-643 244,-613"/>
<text text-anchor="middle" x="244" y="-628.8" font-family="Times,serif" font-size="14.00">p1</text>
</g>
<!-- 2b&#45;&gt;2 -->
<g id="edge4" class="edge"><title>2b&#45;&gt;2</title>
<path fill="none" stroke="black" d="M250.591,-622.427C262.658,-604.901 288.763,-566.986 307.317,-540.04"/>
</g>
<!-- 3b -->
<g id="node7" class="node"><title>3b</title>
<polygon fill="orange" stroke="black" points="804,-613 824,-643 784,-643 804,-613"/>
<text text-anchor="middle" x="804" y="-628.8" font-family="Times,serif" font-size="14.00">p2</text>
</g>
<!-- 3b&#45;&gt;3 -->
<g id="edge6" class="edge"><title>3b&#45;&gt;3</title>
<path fill="none" stroke="black" d="M796.651,-623.995C781.322,-607.297 745.243,-567.996 719.748,-540.226"/>
</g>
<!-- 4b -->
<g id="node8" class="node"><title>4b</title>
<polygon fill="orange" stroke="black" points="20,-613 40,-643 1.77636e-14,-643 20,-613"/>
<text text-anchor="middle" x="20" y="-628.8" font-family="Times,serif" font-size="14.00">p2</text>
</g>
<!-- 4b&#45;&gt;4 -->
<g id="edge8" class="edge"><title>4b&#45;&gt;4</title>
<path fill="none" stroke="black" d="M27.3486,-623.995C42.6784,-607.297 78.7573,-567.996 104.252,-540.226"/>
</g>
<!-- 5 -->
<g id="node13" class="node"><title>5</title>
<polygon fill="none" stroke="black" points="527,-388 465,-388 465,-326 527,-326 527,-388"/>
<text text-anchor="middle" x="496" y="-352.8" font-family="Times,serif" font-size="14.00">5</text>
</g>
<!-- 1&#45;&gt;5 -->
<g id="edge9" class="edge"><title>1&#45;&gt;5</title>
<path fill="none" stroke="black" d="M496,-477.645C496,-451.535 496,-414.075 496,-388.053"/>
<text text-anchor="middle" x="502.75" y="-427.6" font-family="Times,serif" font-size="18.00" fill="red"> 2</text>
</g>
<!-- 6 -->
<g id="node14" class="node"><title>6</title>
<polygon fill="none" stroke="black" points="359,-388 297,-388 297,-326 359,-326 359,-388"/>
<text text-anchor="middle" x="328" y="-352.8" font-family="Times,serif" font-size="14.00">6</text>
</g>
<!-- 2&#45;&gt;6 -->
<g id="edge11" class="edge"><title>2&#45;&gt;6</title>
<path fill="none" stroke="black" d="M328,-477.645C328,-451.535 328,-414.075 328,-388.053"/>
<text text-anchor="middle" x="334.75" y="-427.6" font-family="Times,serif" font-size="18.00" fill="red"> 2</text>
</g>
<!-- 3&#45;&gt;5 -->
<g id="edge10" class="edge"><title>3&#45;&gt;5</title>
<path fill="none" stroke="black" d="M660.943,-484.232C624.351,-456.228 563.905,-409.968 527.235,-381.905"/>
<text text-anchor="middle" x="612.75" y="-427.6" font-family="Times,serif" font-size="18.00" fill="red"> 2</text>
</g>
<!-- 4&#45;&gt;6 -->
<g id="edge12" class="edge"><title>4&#45;&gt;6</title>
<path fill="none" stroke="black" d="M163.057,-484.232C199.649,-456.228 260.095,-409.968 296.765,-381.905"/>
<text text-anchor="middle" x="248.75" y="-427.6" font-family="Times,serif" font-size="18.00" fill="red"> 2</text>
</g>
<!-- 7 -->
<g id="node15" class="node"><title>7</title>
<polygon fill="none" stroke="black" points="452,-236 390,-236 390,-174 452,-174 452,-236"/>
<text text-anchor="middle" x="421" y="-200.8" font-family="Times,serif" font-size="14.00">7</text>
</g>
<!-- 5&#45;&gt;7 -->
<g id="edge13" class="edge"><title>5&#45;&gt;7</title>
<path fill="none" stroke="black" d="M480.823,-325.645C467.768,-299.535 449.038,-262.075 436.027,-236.053"/>
<text text-anchor="middle" x="469.75" y="-275.6" font-family="Times,serif" font-size="18.00" fill="red"> 4</text>
</g>
<!-- 6&#45;&gt;7 -->
<g id="edge14" class="edge"><title>6&#45;&gt;7</title>
<path fill="none" stroke="black" d="M346.82,-325.645C363.008,-299.535 386.233,-262.075 402.367,-236.053"/>
<text text-anchor="middle" x="387.75" y="-275.6" font-family="Times,serif" font-size="18.00" fill="red"> 4</text>
</g>
<!-- s7 -->
<g id="node16" class="node"><title>s7</title>
<polygon fill="violet" stroke="black" points="452,-53 436.5,-84 405.5,-84 390,-53 405.5,-22 436.5,-22 452,-53"/>
<text text-anchor="middle" x="421" y="-48.8" font-family="Times,serif" font-size="14.00">s7</text>
</g>
<!-- 7&#45;&gt;s7 -->
<g id="edge15" class="edge"><title>7&#45;&gt;s7</title>
<path fill="none" stroke="black" d="M421,-173.645C421,-147.535 421,-110.075 421,-84.0533"/>
<text text-anchor="middle" x="427.75" y="-123.6" font-family="Times,serif" font-size="18.00" fill="purple"> 4</text>
</g>
</g>
</svg>
