<?xml version="1.0" encoding="UTF-8" standalone="no"?>
<!DOCTYPE svg PUBLIC "-//W3C//DTD SVG 1.1//EN"
 "http://www.w3.org/Graphics/SVG/1.1/DTD/svg11.dtd">
<!-- Generated by graphviz version 2.38.0 (20140413.2041)
 -->
<!-- Title: xxx Pages: 1 -->
<svg width="652pt" height="661pt"
 viewBox="0.00 0.00 652.00 661.00" xmlns="http://www.w3.org/2000/svg" xmlns:xlink="http://www.w3.org/1999/xlink">
<g id="graph0" class="graph" transform="scale(1 1) rotate(0) translate(4 657)">
<title>xxx</title>
<polygon fill="white" stroke="none" points="-4,4 -4,-657 648,-657 648,4 -4,4"/>
<text text-anchor="middle" x="322" y="-6.8" font-family="Times,serif" font-size="14.00"> &#160;</text>
<!-- 1a -->
<g id="node1" class="node"><title>1a</title>
<polygon fill="lightblue" stroke="black" points="149,-613 169,-643 129,-643 149,-613"/>
<text text-anchor="middle" x="149" y="-628.8" font-family="Times,serif" font-size="14.00">p1</text>
</g>
<!-- 1 -->
<g id="node9" class="node"><title>1</title>
<polygon fill="none" stroke="black" points="286,-540 224,-540 224,-478 286,-478 286,-540"/>
<text text-anchor="middle" x="255" y="-504.8" font-family="Times,serif" font-size="14.00">1</text>
</g>
<!-- 1a&#45;&gt;1 -->
<g id="edge1" class="edge"><title>1a&#45;&gt;1</title>
<path fill="none" stroke="black" d="M156.286,-623.614C170.973,-606.71 204.773,-567.808 228.719,-540.248"/>
</g>
<!-- 2a -->
<g id="node2" class="node"><title>2a</title>
<polygon fill="orange" stroke="black" points="384,-613 404,-643 364,-643 384,-613"/>
<text text-anchor="middle" x="384" y="-628.8" font-family="Times,serif" font-size="14.00">p2</text>
</g>
<!-- 2 -->
<g id="node10" class="node"><title>2</title>
<polygon fill="none" stroke="black" points="420,-540 358,-540 358,-478 420,-478 420,-540"/>
<text text-anchor="middle" x="389" y="-504.8" font-family="Times,serif" font-size="14.00">2</text>
</g>
<!-- 2a&#45;&gt;2 -->
<g id="edge3" class="edge"><title>2a&#45;&gt;2</title>
<path fill="none" stroke="black" d="M384.738,-613.998C385.531,-594.644 386.806,-563.54 387.755,-540.383"/>
</g>
<!-- 3a -->
<g id="node3" class="node"><title>3a</title>
<polygon fill="lightblue" stroke="black" points="132,-489 152,-519 112,-519 132,-489"/>
<text text-anchor="middle" x="132" y="-504.8" font-family="Times,serif" font-size="14.00">p1</text>
</g>
<!-- 3 -->
<g id="node11" class="node"><title>3</title>
<polygon fill="none" stroke="black" points="163,-388 101,-388 101,-326 163,-326 163,-388"/>
<text text-anchor="middle" x="132" y="-352.8" font-family="Times,serif" font-size="14.00">3</text>
</g>
<!-- 3a&#45;&gt;3 -->
<g id="edge5" class="edge"><title>3a&#45;&gt;3</title>
<path fill="none" stroke="black" d="M132,-488.697C132,-463.219 132,-418.094 132,-388.111"/>
</g>
<!-- 4a -->
<g id="node4" class="node"><title>4a</title>
<polygon fill="lightblue" stroke="black" points="512,-489 532,-519 492,-519 512,-489"/>
<text text-anchor="middle" x="512" y="-504.8" font-family="Times,serif" font-size="14.00">p1</text>
</g>
<!-- 4 -->
<g id="node12" class="node"><title>4</title>
<polygon fill="none" stroke="black" points="543,-388 481,-388 481,-326 543,-326 543,-388"/>
<text text-anchor="middle" x="512" y="-352.8" font-family="Times,serif" font-size="14.00">4</text>
</g>
<!-- 4a&#45;&gt;4 -->
<g id="edge7" class="edge"><title>4a&#45;&gt;4</title>
<path fill="none" stroke="black" d="M512,-488.697C512,-463.219 512,-418.094 512,-388.111"/>
</g>
<!-- 1b -->
<g id="node5" class="node"><title>1b</title>
<polygon fill="lightblue" stroke="black" points="261,-613 281,-643 241,-643 261,-613"/>
<text text-anchor="middle" x="261" y="-628.8" font-family="Times,serif" font-size="14.00">p1</text>
</g>
<!-- 1b&#45;&gt;1 -->
<g id="edge2" class="edge"><title>1b&#45;&gt;1</title>
<path fill="none" stroke="black" d="M260.128,-614.26C259.172,-594.831 257.623,-563.337 256.477,-540.041"/>
</g>
<!-- 2b -->
<g id="node6" class="node"><title>2b</title>
<polygon fill="orange" stroke="black" points="496,-613 516,-643 476,-643 496,-613"/>
<text text-anchor="middle" x="496" y="-628.8" font-family="Times,serif" font-size="14.00">p2</text>
</g>
<!-- 2b&#45;&gt;2 -->
<g id="edge4" class="edge"><title>2b&#45;&gt;2</title>
<path fill="none" stroke="black" d="M488.645,-623.614C473.82,-606.71 439.701,-567.808 415.529,-540.248"/>
</g>
<!-- 3b -->
<g id="node7" class="node"><title>3b</title>
<polygon fill="lightblue" stroke="black" points="20,-489 40,-519 1.77636e-14,-519 20,-489"/>
<text text-anchor="middle" x="20" y="-504.8" font-family="Times,serif" font-size="14.00">p1</text>
</g>
<!-- 3b&#45;&gt;3 -->
<g id="edge6" class="edge"><title>3b&#45;&gt;3</title>
<path fill="none" stroke="black" d="M27.0061,-498.617C43.1928,-476.938 83.765,-422.6 109.472,-388.171"/>
</g>
<!-- 4b -->
<g id="node8" class="node"><title>4b</title>
<polygon fill="lightblue" stroke="black" points="624,-489 644,-519 604,-519 624,-489"/>
<text text-anchor="middle" x="624" y="-504.8" font-family="Times,serif" font-size="14.00">p1</text>
</g>
<!-- 4b&#45;&gt;4 -->
<g id="edge8" class="edge"><title>4b&#45;&gt;4</title>
<path fill="none" stroke="black" d="M617.805,-498.21C607.647,-482.314 586.614,-450.045 567,-424 557.938,-411.966 547.465,-399.155 538.105,-388.052"/>
</g>
<!-- 5 -->
<g id="node13" class="node"><title>5</title>
<polygon fill="none" stroke="black" points="325,-388 263,-388 263,-326 325,-326 325,-388"/>
<text text-anchor="middle" x="294" y="-352.8" font-family="Times,serif" font-size="14.00">5</text>
</g>
<!-- 1&#45;&gt;5 -->
<g id="edge9" class="edge"><title>1&#45;&gt;5</title>
<path fill="none" stroke="black" d="M262.892,-477.645C269.681,-451.535 279.42,-414.075 286.186,-388.053"/>
<text text-anchor="middle" x="283.75" y="-427.6" font-family="Times,serif" font-size="18.00" fill="red"> 2</text>
</g>
<!-- 2&#45;&gt;5 -->
<g id="edge10" class="edge"><title>2&#45;&gt;5</title>
<path fill="none" stroke="black" d="M369.775,-477.645C353.239,-451.535 329.514,-414.075 313.034,-388.053"/>
<text text-anchor="middle" x="354.75" y="-427.6" font-family="Times,serif" font-size="18.00" fill="red"> 2</text>
</g>
<!-- 6 -->
<g id="node14" class="node"><title>6</title>
<polygon fill="none" stroke="black" points="247,-236 185,-236 185,-174 247,-174 247,-236"/>
<text text-anchor="middle" x="216" y="-200.8" font-family="Times,serif" font-size="14.00">6</text>
</g>
<!-- 3&#45;&gt;6 -->
<g id="edge11" class="edge"><title>3&#45;&gt;6</title>
<path fill="none" stroke="black" d="M148.999,-325.645C163.62,-299.535 184.598,-262.075 199.17,-236.053"/>
<text text-anchor="middle" x="186.75" y="-275.6" font-family="Times,serif" font-size="18.00" fill="red"> 2</text>
</g>
<!-- 7 -->
<g id="node15" class="node"><title>7</title>
<polygon fill="none" stroke="black" points="430,-236 368,-236 368,-174 430,-174 430,-236"/>
<text text-anchor="middle" x="399" y="-200.8" font-family="Times,serif" font-size="14.00">7</text>
</g>
<!-- 4&#45;&gt;7 -->
<g id="edge13" class="edge"><title>4&#45;&gt;7</title>
<path fill="none" stroke="black" d="M489.133,-325.645C469.463,-299.535 441.243,-262.075 421.64,-236.053"/>
<text text-anchor="middle" x="468.75" y="-275.6" font-family="Times,serif" font-size="18.00" fill="red"> 2</text>
</g>
<!-- 5&#45;&gt;6 -->
<g id="edge12" class="edge"><title>5&#45;&gt;6</title>
<path fill="none" stroke="black" d="M278.216,-325.645C264.638,-299.535 245.159,-262.075 231.628,-236.053"/>
<text text-anchor="middle" x="266.75" y="-275.6" font-family="Times,serif" font-size="18.00" fill="red"> 2</text>
</g>
<!-- 5&#45;&gt;7 -->
<g id="edge14" class="edge"><title>5&#45;&gt;7</title>
<path fill="none" stroke="black" d="M315.248,-325.645C333.525,-299.535 359.747,-262.075 377.963,-236.053"/>
<text text-anchor="middle" x="359.75" y="-275.6" font-family="Times,serif" font-size="18.00" fill="red"> 2</text>
</g>
<!-- s6 -->
<g id="node16" class="node"><title>s6</title>
<polygon fill="violet" stroke="black" points="247,-53 231.5,-84 200.5,-84 185,-53 200.5,-22 231.5,-22 247,-53"/>
<text text-anchor="middle" x="216" y="-48.8" font-family="Times,serif" font-size="14.00">s6</text>
</g>
<!-- 6&#45;&gt;s6 -->
<g id="edge15" class="edge"><title>6&#45;&gt;s6</title>
<path fill="none" stroke="black" d="M216,-173.645C216,-147.535 216,-110.075 216,-84.0533"/>
<text text-anchor="middle" x="222.75" y="-123.6" font-family="Times,serif" font-size="18.00" fill="purple"> 2</text>
</g>
<!-- s7 -->
<g id="node17" class="node"><title>s7</title>
<polygon fill="violet" stroke="black" points="430,-53 414.5,-84 383.5,-84 368,-53 383.5,-22 414.5,-22 430,-53"/>
<text text-anchor="middle" x="399" y="-48.8" font-family="Times,serif" font-size="14.00">s7</text>
</g>
<!-- 7&#45;&gt;s7 -->
<g id="edge16" class="edge"><title>7&#45;&gt;s7</title>
<path fill="none" stroke="black" d="M399,-173.645C399,-147.535 399,-110.075 399,-84.0533"/>
<text text-anchor="middle" x="405.75" y="-123.6" font-family="Times,serif" font-size="18.00" fill="purple"> 2</text>
</g>
</g>
</svg>
