<?xml version="1.0" encoding="UTF-8" standalone="no"?>
<!DOCTYPE svg PUBLIC "-//W3C//DTD SVG 1.1//EN"
 "http://www.w3.org/Graphics/SVG/1.1/DTD/svg11.dtd">
<!-- Generated by graphviz version 2.38.0 (20140413.2041)
 -->
<!-- Title: xxx Pages: 1 -->
<svg width="552pt" height="661pt"
 viewBox="0.00 0.00 552.00 661.00" xmlns="http://www.w3.org/2000/svg" xmlns:xlink="http://www.w3.org/1999/xlink">
<g id="graph0" class="graph" transform="scale(1 1) rotate(0) translate(4 657)">
<title>xxx</title>
<polygon fill="white" stroke="none" points="-4,4 -4,-657 548,-657 548,4 -4,4"/>
<text text-anchor="middle" x="272" y="-6.8" font-family="Times,serif" font-size="14.00"> &#160;</text>
<!-- 1a -->
<g id="node1" class="node"><title>1a</title>
<polygon fill="lightblue" stroke="black" points="20,-613 40,-643 1.77636e-14,-643 20,-613"/>
<text text-anchor="middle" x="20" y="-628.8" font-family="Times,serif" font-size="14.00">p1</text>
</g>
<!-- 1 -->
<g id="node7" class="node"><title>1</title>
<polygon fill="none" stroke="black" points="157,-540 95,-540 95,-478 157,-478 157,-540"/>
<text text-anchor="middle" x="126" y="-504.8" font-family="Times,serif" font-size="14.00">1</text>
</g>
<!-- 1a&#45;&gt;1 -->
<g id="edge1" class="edge"><title>1a&#45;&gt;1</title>
<path fill="none" stroke="black" d="M27.2858,-623.614C41.9729,-606.71 75.7732,-567.808 99.719,-540.248"/>
</g>
<!-- 2a -->
<g id="node2" class="node"><title>2a</title>
<polygon fill="orange" stroke="black" points="255,-613 275,-643 235,-643 255,-613"/>
<text text-anchor="middle" x="255" y="-628.8" font-family="Times,serif" font-size="14.00">p2</text>
</g>
<!-- 2 -->
<g id="node8" class="node"><title>2</title>
<polygon fill="none" stroke="black" points="291,-540 229,-540 229,-478 291,-478 291,-540"/>
<text text-anchor="middle" x="260" y="-504.8" font-family="Times,serif" font-size="14.00">2</text>
</g>
<!-- 2a&#45;&gt;2 -->
<g id="edge3" class="edge"><title>2a&#45;&gt;2</title>
<path fill="none" stroke="black" d="M255.738,-613.998C256.531,-594.644 257.806,-563.54 258.755,-540.383"/>
</g>
<!-- 3a -->
<g id="node3" class="node"><title>3a</title>
<polygon fill="lightblue" stroke="black" points="412,-489 432,-519 392,-519 412,-489"/>
<text text-anchor="middle" x="412" y="-504.8" font-family="Times,serif" font-size="14.00">p1</text>
</g>
<!-- 3 -->
<g id="node9" class="node"><title>3</title>
<polygon fill="none" stroke="black" points="450,-388 388,-388 388,-326 450,-326 450,-388"/>
<text text-anchor="middle" x="419" y="-352.8" font-family="Times,serif" font-size="14.00">3</text>
</g>
<!-- 3a&#45;&gt;3 -->
<g id="edge5" class="edge"><title>3a&#45;&gt;3</title>
<path fill="none" stroke="black" d="M412.83,-490.204C414.004,-465.06 416.163,-418.798 417.59,-388.214"/>
</g>
<!-- 1b -->
<g id="node4" class="node"><title>1b</title>
<polygon fill="lightblue" stroke="black" points="132,-613 152,-643 112,-643 132,-613"/>
<text text-anchor="middle" x="132" y="-628.8" font-family="Times,serif" font-size="14.00">p1</text>
</g>
<!-- 1b&#45;&gt;1 -->
<g id="edge2" class="edge"><title>1b&#45;&gt;1</title>
<path fill="none" stroke="black" d="M131.128,-614.26C130.172,-594.831 128.623,-563.337 127.477,-540.041"/>
</g>
<!-- 2b -->
<g id="node5" class="node"><title>2b</title>
<polygon fill="orange" stroke="black" points="367,-613 387,-643 347,-643 367,-613"/>
<text text-anchor="middle" x="367" y="-628.8" font-family="Times,serif" font-size="14.00">p2</text>
</g>
<!-- 2b&#45;&gt;2 -->
<g id="edge4" class="edge"><title>2b&#45;&gt;2</title>
<path fill="none" stroke="black" d="M359.645,-623.614C344.82,-606.71 310.701,-567.808 286.529,-540.248"/>
</g>
<!-- 3b -->
<g id="node6" class="node"><title>3b</title>
<polygon fill="lightblue" stroke="black" points="524,-489 544,-519 504,-519 524,-489"/>
<text text-anchor="middle" x="524" y="-504.8" font-family="Times,serif" font-size="14.00">p1</text>
</g>
<!-- 3b&#45;&gt;3 -->
<g id="edge6" class="edge"><title>3b&#45;&gt;3</title>
<path fill="none" stroke="black" d="M517.953,-497.989C508.244,-482.054 488.395,-450.062 470,-424 461.566,-412.051 451.849,-399.257 443.174,-388.145"/>
</g>
<!-- 4 -->
<g id="node10" class="node"><title>4</title>
<polygon fill="none" stroke="black" points="272,-388 210,-388 210,-326 272,-326 272,-388"/>
<text text-anchor="middle" x="241" y="-352.8" font-family="Times,serif" font-size="14.00">4</text>
</g>
<!-- 1&#45;&gt;4 -->
<g id="edge7" class="edge"><title>1&#45;&gt;4</title>
<path fill="none" stroke="black" d="M149.272,-477.645C169.29,-451.535 198.009,-414.075 217.959,-388.053"/>
<text text-anchor="middle" x="197.75" y="-427.6" font-family="Times,serif" font-size="18.00" fill="red"> 2</text>
</g>
<!-- 2&#45;&gt;4 -->
<g id="edge8" class="edge"><title>2&#45;&gt;4</title>
<path fill="none" stroke="black" d="M256.155,-477.645C252.848,-451.535 248.103,-414.075 244.807,-388.053"/>
<text text-anchor="middle" x="258.75" y="-427.6" font-family="Times,serif" font-size="18.00" fill="red"> 2</text>
</g>
<!-- 5 -->
<g id="node11" class="node"><title>5</title>
<polygon fill="none" stroke="black" points="426,-236 364,-236 364,-174 426,-174 426,-236"/>
<text text-anchor="middle" x="395" y="-200.8" font-family="Times,serif" font-size="14.00">5</text>
</g>
<!-- 3&#45;&gt;5 -->
<g id="edge9" class="edge"><title>3&#45;&gt;5</title>
<path fill="none" stroke="black" d="M414.143,-325.645C409.966,-299.535 403.972,-262.075 399.809,-236.053"/>
<text text-anchor="middle" x="414.75" y="-275.6" font-family="Times,serif" font-size="18.00" fill="red"> 2</text>
</g>
<!-- 4&#45;&gt;5 -->
<g id="edge10" class="edge"><title>4&#45;&gt;5</title>
<path fill="none" stroke="black" d="M272.164,-325.645C298.97,-299.535 337.429,-262.075 364.145,-236.053"/>
<text text-anchor="middle" x="333.75" y="-275.6" font-family="Times,serif" font-size="18.00" fill="red"> 2</text>
</g>
<!-- s4 -->
<g id="node12" class="node"><title>s4</title>
<polygon fill="violet" stroke="black" points="268,-205 252.5,-236 221.5,-236 206,-205 221.5,-174 252.5,-174 268,-205"/>
<text text-anchor="middle" x="237" y="-200.8" font-family="Times,serif" font-size="14.00">s4</text>
</g>
<!-- 4&#45;&gt;s4 -->
<g id="edge11" class="edge"><title>4&#45;&gt;s4</title>
<path fill="none" stroke="black" d="M236.845,-325.833C235.491,-314.607 234.165,-301.744 233.5,-290 232.493,-272.221 233.241,-252.311 234.299,-236.338"/>
<text text-anchor="middle" x="240.75" y="-275.6" font-family="Times,serif" font-size="18.00" fill="purple"> 1</text>
</g>
<!-- s5 -->
<g id="node13" class="node"><title>s5</title>
<polygon fill="violet" stroke="black" points="426,-53 410.5,-84 379.5,-84 364,-53 379.5,-22 410.5,-22 426,-53"/>
<text text-anchor="middle" x="395" y="-48.8" font-family="Times,serif" font-size="14.00">s5</text>
</g>
<!-- 5&#45;&gt;s5 -->
<g id="edge12" class="edge"><title>5&#45;&gt;s5</title>
<path fill="none" stroke="black" d="M395,-173.645C395,-147.535 395,-110.075 395,-84.0533"/>
<text text-anchor="middle" x="401.75" y="-123.6" font-family="Times,serif" font-size="18.00" fill="purple"> 2</text>
</g>
</g>
</svg>
