<?xml version="1.0" encoding="UTF-8" standalone="no"?>
<!DOCTYPE svg PUBLIC "-//W3C//DTD SVG 1.1//EN"
 "http://www.w3.org/Graphics/SVG/1.1/DTD/svg11.dtd">
<!-- Generated by graphviz version 2.38.0 (20140413.2041)
 -->
<!-- Title: xxx Pages: 1 -->
<svg width="1078pt" height="661pt"
 viewBox="0.00 0.00 1078.00 661.00" xmlns="http://www.w3.org/2000/svg" xmlns:xlink="http://www.w3.org/1999/xlink">
<g id="graph0" class="graph" transform="scale(1 1) rotate(0) translate(4 657)">
<title>xxx</title>
<polygon fill="white" stroke="none" points="-4,4 -4,-657 1074,-657 1074,4 -4,4"/>
<text text-anchor="middle" x="535" y="-6.8" font-family="Times,serif" font-size="14.00"> &#160;</text>
<!-- 1a -->
<g id="node1" class="node"><title>1a</title>
<polygon fill="lightblue" stroke="black" points="143,-613 163,-643 123,-643 143,-613"/>
<text text-anchor="middle" x="143" y="-628.8" font-family="Times,serif" font-size="14.00">p1</text>
</g>
<!-- 1 -->
<g id="node13" class="node"><title>1</title>
<polygon fill="none" stroke="black" points="286,-540 224,-540 224,-478 286,-478 286,-540"/>
<text text-anchor="middle" x="255" y="-504.8" font-family="Times,serif" font-size="14.00">1</text>
</g>
<!-- 1a&#45;&gt;1 -->
<g id="edge1" class="edge"><title>1a&#45;&gt;1</title>
<path fill="none" stroke="black" d="M150.349,-623.995C165.678,-607.297 201.757,-567.996 227.252,-540.226"/>
</g>
<!-- 2a -->
<g id="node2" class="node"><title>2a</title>
<polygon fill="lightblue" stroke="black" points="591,-613 611,-643 571,-643 591,-613"/>
<text text-anchor="middle" x="591" y="-628.8" font-family="Times,serif" font-size="14.00">p1</text>
</g>
<!-- 2 -->
<g id="node14" class="node"><title>2</title>
<polygon fill="none" stroke="black" points="712,-540 650,-540 650,-478 712,-478 712,-540"/>
<text text-anchor="middle" x="681" y="-504.8" font-family="Times,serif" font-size="14.00">2</text>
</g>
<!-- 2a&#45;&gt;2 -->
<g id="edge3" class="edge"><title>2a&#45;&gt;2</title>
<path fill="none" stroke="black" d="M597.765,-622.83C610.56,-605.485 638.818,-567.18 658.851,-540.024"/>
</g>
<!-- 3a -->
<g id="node3" class="node"><title>3a</title>
<polygon fill="lightblue" stroke="black" points="20,-489 40,-519 1.77636e-14,-519 20,-489"/>
<text text-anchor="middle" x="20" y="-504.8" font-family="Times,serif" font-size="14.00">p1</text>
</g>
<!-- 3 -->
<g id="node15" class="node"><title>3</title>
<polygon fill="none" stroke="black" points="163,-388 101,-388 101,-326 163,-326 163,-388"/>
<text text-anchor="middle" x="132" y="-352.8" font-family="Times,serif" font-size="14.00">3</text>
</g>
<!-- 3a&#45;&gt;3 -->
<g id="edge5" class="edge"><title>3a&#45;&gt;3</title>
<path fill="none" stroke="black" d="M27.0061,-498.617C43.1928,-476.938 83.765,-422.6 109.472,-388.171"/>
</g>
<!-- 4a -->
<g id="node4" class="node"><title>4a</title>
<polygon fill="lightblue" stroke="black" points="938,-489 958,-519 918,-519 938,-489"/>
<text text-anchor="middle" x="938" y="-504.8" font-family="Times,serif" font-size="14.00">p1</text>
</g>
<!-- 4 -->
<g id="node16" class="node"><title>4</title>
<polygon fill="none" stroke="black" points="969,-388 907,-388 907,-326 969,-326 969,-388"/>
<text text-anchor="middle" x="938" y="-352.8" font-family="Times,serif" font-size="14.00">4</text>
</g>
<!-- 4a&#45;&gt;4 -->
<g id="edge7" class="edge"><title>4a&#45;&gt;4</title>
<path fill="none" stroke="black" d="M938,-488.697C938,-463.219 938,-418.094 938,-388.111"/>
</g>
<!-- 5a -->
<g id="node5" class="node"><title>5a</title>
<polygon fill="orange" stroke="black" points="367,-613 387,-643 347,-643 367,-613"/>
<text text-anchor="middle" x="367" y="-628.8" font-family="Times,serif" font-size="14.00">p2</text>
</g>
<!-- 5 -->
<g id="node17" class="node"><title>5</title>
<polygon fill="none" stroke="black" points="420,-540 358,-540 358,-478 420,-478 420,-540"/>
<text text-anchor="middle" x="389" y="-504.8" font-family="Times,serif" font-size="14.00">5</text>
</g>
<!-- 5a&#45;&gt;5 -->
<g id="edge9" class="edge"><title>5a&#45;&gt;5</title>
<path fill="none" stroke="black" d="M369.698,-617.04C373.14,-597.952 379.175,-564.483 383.583,-540.04"/>
</g>
<!-- 6a -->
<g id="node6" class="node"><title>6a</title>
<polygon fill="orange" stroke="black" points="815,-613 835,-643 795,-643 815,-613"/>
<text text-anchor="middle" x="815" y="-628.8" font-family="Times,serif" font-size="14.00">p2</text>
</g>
<!-- 6 -->
<g id="node18" class="node"><title>6</title>
<polygon fill="none" stroke="black" points="846,-540 784,-540 784,-478 846,-478 846,-540"/>
<text text-anchor="middle" x="815" y="-504.8" font-family="Times,serif" font-size="14.00">6</text>
</g>
<!-- 6a&#45;&gt;6 -->
<g id="edge11" class="edge"><title>6a&#45;&gt;6</title>
<path fill="none" stroke="black" d="M815,-612.938C815,-593.503 815,-563.06 815,-540.314"/>
</g>
<!-- 1b -->
<g id="node7" class="node"><title>1b</title>
<polygon fill="lightblue" stroke="black" points="255,-613 275,-643 235,-643 255,-613"/>
<text text-anchor="middle" x="255" y="-628.8" font-family="Times,serif" font-size="14.00">p1</text>
</g>
<!-- 1b&#45;&gt;1 -->
<g id="edge2" class="edge"><title>1b&#45;&gt;1</title>
<path fill="none" stroke="black" d="M255,-612.938C255,-593.503 255,-563.06 255,-540.314"/>
</g>
<!-- 2b -->
<g id="node8" class="node"><title>2b</title>
<polygon fill="lightblue" stroke="black" points="703,-613 723,-643 683,-643 703,-613"/>
<text text-anchor="middle" x="703" y="-628.8" font-family="Times,serif" font-size="14.00">p1</text>
</g>
<!-- 2b&#45;&gt;2 -->
<g id="edge4" class="edge"><title>2b&#45;&gt;2</title>
<path fill="none" stroke="black" d="M700.302,-617.04C696.86,-597.952 690.825,-564.483 686.417,-540.04"/>
</g>
<!-- 3b -->
<g id="node9" class="node"><title>3b</title>
<polygon fill="lightblue" stroke="black" points="132,-489 152,-519 112,-519 132,-489"/>
<text text-anchor="middle" x="132" y="-504.8" font-family="Times,serif" font-size="14.00">p1</text>
</g>
<!-- 3b&#45;&gt;3 -->
<g id="edge6" class="edge"><title>3b&#45;&gt;3</title>
<path fill="none" stroke="black" d="M132,-488.697C132,-463.219 132,-418.094 132,-388.111"/>
</g>
<!-- 4b -->
<g id="node10" class="node"><title>4b</title>
<polygon fill="lightblue" stroke="black" points="1050,-489 1070,-519 1030,-519 1050,-489"/>
<text text-anchor="middle" x="1050" y="-504.8" font-family="Times,serif" font-size="14.00">p1</text>
</g>
<!-- 4b&#45;&gt;4 -->
<g id="edge8" class="edge"><title>4b&#45;&gt;4</title>
<path fill="none" stroke="black" d="M1043.8,-498.21C1033.65,-482.314 1012.61,-450.045 993,-424 983.938,-411.966 973.465,-399.155 964.105,-388.052"/>
</g>
<!-- 5b -->
<g id="node11" class="node"><title>5b</title>
<polygon fill="orange" stroke="black" points="479,-613 499,-643 459,-643 479,-613"/>
<text text-anchor="middle" x="479" y="-628.8" font-family="Times,serif" font-size="14.00">p2</text>
</g>
<!-- 5b&#45;&gt;5 -->
<g id="edge10" class="edge"><title>5b&#45;&gt;5</title>
<path fill="none" stroke="black" d="M472.235,-622.83C459.44,-605.485 431.182,-567.18 411.149,-540.024"/>
</g>
<!-- 6b -->
<g id="node12" class="node"><title>6b</title>
<polygon fill="orange" stroke="black" points="927,-613 947,-643 907,-643 927,-613"/>
<text text-anchor="middle" x="927" y="-628.8" font-family="Times,serif" font-size="14.00">p2</text>
</g>
<!-- 6b&#45;&gt;6 -->
<g id="edge12" class="edge"><title>6b&#45;&gt;6</title>
<path fill="none" stroke="black" d="M919.651,-623.995C904.322,-607.297 868.243,-567.996 842.748,-540.226"/>
</g>
<!-- 7 -->
<g id="node19" class="node"><title>7</title>
<polygon fill="none" stroke="black" points="368,-388 306,-388 306,-326 368,-326 368,-388"/>
<text text-anchor="middle" x="337" y="-352.8" font-family="Times,serif" font-size="14.00">7</text>
</g>
<!-- 1&#45;&gt;7 -->
<g id="edge13" class="edge"><title>1&#45;&gt;7</title>
<path fill="none" stroke="black" d="M271.594,-477.645C285.867,-451.535 306.345,-414.075 320.571,-388.053"/>
<text text-anchor="middle" x="307.75" y="-427.6" font-family="Times,serif" font-size="18.00" fill="red"> 2</text>
</g>
<!-- 8 -->
<g id="node20" class="node"><title>8</title>
<polygon fill="none" stroke="black" points="774,-388 712,-388 712,-326 774,-326 774,-388"/>
<text text-anchor="middle" x="743" y="-352.8" font-family="Times,serif" font-size="14.00">8</text>
</g>
<!-- 2&#45;&gt;8 -->
<g id="edge15" class="edge"><title>2&#45;&gt;8</title>
<path fill="none" stroke="black" d="M680.407,-477.84C681.057,-461.376 683.486,-440.952 690.5,-424 695.818,-411.147 704.418,-398.745 713.133,-388.228"/>
<text text-anchor="middle" x="697.75" y="-427.6" font-family="Times,serif" font-size="18.00" fill="red"> 2</text>
</g>
<!-- 9 -->
<g id="node21" class="node"><title>9</title>
<polygon fill="none" stroke="black" points="232,-236 170,-236 170,-174 232,-174 232,-236"/>
<text text-anchor="middle" x="201" y="-200.8" font-family="Times,serif" font-size="14.00">9</text>
</g>
<!-- 3&#45;&gt;9 -->
<g id="edge17" class="edge"><title>3&#45;&gt;9</title>
<path fill="none" stroke="black" d="M135.396,-325.822C138.04,-309.352 142.635,-288.928 150.5,-272 156.397,-259.308 165.075,-246.759 173.581,-236.066"/>
<text text-anchor="middle" x="157.75" y="-275.6" font-family="Times,serif" font-size="18.00" fill="red"> 2</text>
</g>
<!-- 10 -->
<g id="node22" class="node"><title>10</title>
<polygon fill="none" stroke="black" points="879,-236 817,-236 817,-174 879,-174 879,-236"/>
<text text-anchor="middle" x="848" y="-200.8" font-family="Times,serif" font-size="14.00">10</text>
</g>
<!-- 4&#45;&gt;10 -->
<g id="edge19" class="edge"><title>4&#45;&gt;10</title>
<path fill="none" stroke="black" d="M919.787,-325.645C904.121,-299.535 881.645,-262.075 866.032,-236.053"/>
<text text-anchor="middle" x="904.75" y="-275.6" font-family="Times,serif" font-size="18.00" fill="red"> 2</text>
</g>
<!-- 5&#45;&gt;7 -->
<g id="edge14" class="edge"><title>5&#45;&gt;7</title>
<path fill="none" stroke="black" d="M378.477,-477.645C369.426,-451.535 356.439,-414.075 347.418,-388.053"/>
<text text-anchor="middle" x="373.75" y="-427.6" font-family="Times,serif" font-size="18.00" fill="red"> 2</text>
</g>
<!-- 6&#45;&gt;8 -->
<g id="edge16" class="edge"><title>6&#45;&gt;8</title>
<path fill="none" stroke="black" d="M800.43,-477.645C787.897,-451.535 769.916,-414.075 757.426,-388.053"/>
<text text-anchor="middle" x="789.75" y="-427.6" font-family="Times,serif" font-size="18.00" fill="red"> 2</text>
</g>
<!-- 7&#45;&gt;9 -->
<g id="edge18" class="edge"><title>7&#45;&gt;9</title>
<path fill="none" stroke="black" d="M309.478,-325.645C285.805,-299.535 251.842,-262.075 228.248,-236.053"/>
<text text-anchor="middle" x="284.75" y="-275.6" font-family="Times,serif" font-size="18.00" fill="red"> 2</text>
</g>
<!-- 11 -->
<g id="node23" class="node"><title>11</title>
<polygon fill="none" stroke="black" points="552,-236 490,-236 490,-174 552,-174 552,-236"/>
<text text-anchor="middle" x="521" y="-200.8" font-family="Times,serif" font-size="14.00">11</text>
</g>
<!-- 7&#45;&gt;11 -->
<g id="edge21" class="edge"><title>7&#45;&gt;11</title>
<path fill="none" stroke="black" d="M368.213,-330.555C402.151,-302.888 456.064,-258.937 489.941,-231.32"/>
<text text-anchor="middle" x="447.75" y="-275.6" font-family="Times,serif" font-size="18.00" fill="red"> 2</text>
</g>
<!-- 8&#45;&gt;10 -->
<g id="edge20" class="edge"><title>8&#45;&gt;10</title>
<path fill="none" stroke="black" d="M764.248,-325.645C782.525,-299.535 808.747,-262.075 826.963,-236.053"/>
<text text-anchor="middle" x="807.75" y="-275.6" font-family="Times,serif" font-size="18.00" fill="red"> 2</text>
</g>
<!-- 8&#45;&gt;11 -->
<g id="edge22" class="edge"><title>8&#45;&gt;11</title>
<path fill="none" stroke="black" d="M711.664,-334.827C669.353,-306.239 594.405,-255.598 552.177,-227.065"/>
<text text-anchor="middle" x="652.75" y="-275.6" font-family="Times,serif" font-size="18.00" fill="red"> 2</text>
</g>
<!-- s9 -->
<g id="node24" class="node"><title>s9</title>
<polygon fill="violet" stroke="black" points="232,-53 216.5,-84 185.5,-84 170,-53 185.5,-22 216.5,-22 232,-53"/>
<text text-anchor="middle" x="201" y="-48.8" font-family="Times,serif" font-size="14.00">s9</text>
</g>
<!-- 9&#45;&gt;s9 -->
<g id="edge23" class="edge"><title>9&#45;&gt;s9</title>
<path fill="none" stroke="black" d="M201,-173.645C201,-147.535 201,-110.075 201,-84.0533"/>
<text text-anchor="middle" x="207.75" y="-123.6" font-family="Times,serif" font-size="18.00" fill="purple"> 2</text>
</g>
<!-- s10 -->
<g id="node25" class="node"><title>s10</title>
<polygon fill="violet" stroke="black" points="879,-53 863.5,-84 832.5,-84 817,-53 832.5,-22 863.5,-22 879,-53"/>
<text text-anchor="middle" x="848" y="-48.8" font-family="Times,serif" font-size="14.00">s10</text>
</g>
<!-- 10&#45;&gt;s10 -->
<g id="edge24" class="edge"><title>10&#45;&gt;s10</title>
<path fill="none" stroke="black" d="M848,-173.645C848,-147.535 848,-110.075 848,-84.0533"/>
<text text-anchor="middle" x="854.75" y="-123.6" font-family="Times,serif" font-size="18.00" fill="purple"> 2</text>
</g>
<!-- s11 -->
<g id="node26" class="node"><title>s11</title>
<polygon fill="violet" stroke="black" points="552,-53 536.5,-84 505.5,-84 490,-53 505.5,-22 536.5,-22 552,-53"/>
<text text-anchor="middle" x="521" y="-48.8" font-family="Times,serif" font-size="14.00">s11</text>
</g>
<!-- 11&#45;&gt;s11 -->
<g id="edge25" class="edge"><title>11&#45;&gt;s11</title>
<path fill="none" stroke="black" d="M521,-173.645C521,-147.535 521,-110.075 521,-84.0533"/>
<text text-anchor="middle" x="527.75" y="-123.6" font-family="Times,serif" font-size="18.00" fill="purple"> 2</text>
</g>
</g>
</svg>
