<?xml version="1.0" encoding="UTF-8" standalone="no"?>
<!DOCTYPE svg PUBLIC "-//W3C//DTD SVG 1.1//EN"
 "http://www.w3.org/Graphics/SVG/1.1/DTD/svg11.dtd">
<!-- Generated by graphviz version 2.38.0 (20140413.2041)
 -->
<!-- Title: xxx Pages: 1 -->
<svg width="955pt" height="661pt"
 viewBox="0.00 0.00 955.00 661.00" xmlns="http://www.w3.org/2000/svg" xmlns:xlink="http://www.w3.org/1999/xlink">
<g id="graph0" class="graph" transform="scale(1 1) rotate(0) translate(4 657)">
<title>xxx</title>
<polygon fill="white" stroke="none" points="-4,4 -4,-657 951,-657 951,4 -4,4"/>
<text text-anchor="middle" x="473.5" y="-6.8" font-family="Times,serif" font-size="14.00"> &#160;</text>
<!-- 1a -->
<g id="node1" class="node"><title>1a</title>
<polygon fill="lightblue" stroke="black" points="143,-613 163,-643 123,-643 143,-613"/>
<text text-anchor="middle" x="143" y="-628.8" font-family="Times,serif" font-size="14.00">p1</text>
</g>
<!-- 1 -->
<g id="node11" class="node"><title>1</title>
<polygon fill="none" stroke="black" points="286,-540 224,-540 224,-478 286,-478 286,-540"/>
<text text-anchor="middle" x="255" y="-504.8" font-family="Times,serif" font-size="14.00">1</text>
</g>
<!-- 1a&#45;&gt;1 -->
<g id="edge1" class="edge"><title>1a&#45;&gt;1</title>
<path fill="none" stroke="black" d="M150.349,-623.995C165.678,-607.297 201.757,-567.996 227.252,-540.226"/>
</g>
<!-- 2a -->
<g id="node2" class="node"><title>2a</title>
<polygon fill="lightblue" stroke="black" points="591,-613 611,-643 571,-643 591,-613"/>
<text text-anchor="middle" x="591" y="-628.8" font-family="Times,serif" font-size="14.00">p1</text>
</g>
<!-- 2 -->
<g id="node12" class="node"><title>2</title>
<polygon fill="none" stroke="black" points="657,-540 595,-540 595,-478 657,-478 657,-540"/>
<text text-anchor="middle" x="626" y="-504.8" font-family="Times,serif" font-size="14.00">2</text>
</g>
<!-- 2a&#45;&gt;2 -->
<g id="edge3" class="edge"><title>2a&#45;&gt;2</title>
<path fill="none" stroke="black" d="M594.879,-618.478C600.254,-599.742 610.116,-565.367 617.301,-540.321"/>
</g>
<!-- 3a -->
<g id="node3" class="node"><title>3a</title>
<polygon fill="lightblue" stroke="black" points="20,-489 40,-519 1.77636e-14,-519 20,-489"/>
<text text-anchor="middle" x="20" y="-504.8" font-family="Times,serif" font-size="14.00">p1</text>
</g>
<!-- 3 -->
<g id="node13" class="node"><title>3</title>
<polygon fill="none" stroke="black" points="163,-388 101,-388 101,-326 163,-326 163,-388"/>
<text text-anchor="middle" x="132" y="-352.8" font-family="Times,serif" font-size="14.00">3</text>
</g>
<!-- 3a&#45;&gt;3 -->
<g id="edge5" class="edge"><title>3a&#45;&gt;3</title>
<path fill="none" stroke="black" d="M27.0061,-498.617C43.1928,-476.938 83.765,-422.6 109.472,-388.171"/>
</g>
<!-- 4a -->
<g id="node4" class="node"><title>4a</title>
<polygon fill="orange" stroke="black" points="367,-613 387,-643 347,-643 367,-613"/>
<text text-anchor="middle" x="367" y="-628.8" font-family="Times,serif" font-size="14.00">p2</text>
</g>
<!-- 4 -->
<g id="node14" class="node"><title>4</title>
<polygon fill="none" stroke="black" points="420,-540 358,-540 358,-478 420,-478 420,-540"/>
<text text-anchor="middle" x="389" y="-504.8" font-family="Times,serif" font-size="14.00">4</text>
</g>
<!-- 4a&#45;&gt;4 -->
<g id="edge7" class="edge"><title>4a&#45;&gt;4</title>
<path fill="none" stroke="black" d="M369.698,-617.04C373.14,-597.952 379.175,-564.483 383.583,-540.04"/>
</g>
<!-- 5a -->
<g id="node5" class="node"><title>5a</title>
<polygon fill="orange" stroke="black" points="815,-613 835,-643 795,-643 815,-613"/>
<text text-anchor="middle" x="815" y="-628.8" font-family="Times,serif" font-size="14.00">p2</text>
</g>
<!-- 5 -->
<g id="node15" class="node"><title>5</title>
<polygon fill="none" stroke="black" points="846,-540 784,-540 784,-478 846,-478 846,-540"/>
<text text-anchor="middle" x="815" y="-504.8" font-family="Times,serif" font-size="14.00">5</text>
</g>
<!-- 5a&#45;&gt;5 -->
<g id="edge9" class="edge"><title>5a&#45;&gt;5</title>
<path fill="none" stroke="black" d="M815,-612.938C815,-593.503 815,-563.06 815,-540.314"/>
</g>
<!-- 1b -->
<g id="node6" class="node"><title>1b</title>
<polygon fill="lightblue" stroke="black" points="255,-613 275,-643 235,-643 255,-613"/>
<text text-anchor="middle" x="255" y="-628.8" font-family="Times,serif" font-size="14.00">p1</text>
</g>
<!-- 1b&#45;&gt;1 -->
<g id="edge2" class="edge"><title>1b&#45;&gt;1</title>
<path fill="none" stroke="black" d="M255,-612.938C255,-593.503 255,-563.06 255,-540.314"/>
</g>
<!-- 2b -->
<g id="node7" class="node"><title>2b</title>
<polygon fill="lightblue" stroke="black" points="703,-613 723,-643 683,-643 703,-613"/>
<text text-anchor="middle" x="703" y="-628.8" font-family="Times,serif" font-size="14.00">p1</text>
</g>
<!-- 2b&#45;&gt;2 -->
<g id="edge4" class="edge"><title>2b&#45;&gt;2</title>
<path fill="none" stroke="black" d="M696.699,-622.016C685.528,-604.318 661.843,-566.79 644.968,-540.053"/>
</g>
<!-- 3b -->
<g id="node8" class="node"><title>3b</title>
<polygon fill="lightblue" stroke="black" points="132,-489 152,-519 112,-519 132,-489"/>
<text text-anchor="middle" x="132" y="-504.8" font-family="Times,serif" font-size="14.00">p1</text>
</g>
<!-- 3b&#45;&gt;3 -->
<g id="edge6" class="edge"><title>3b&#45;&gt;3</title>
<path fill="none" stroke="black" d="M132,-488.697C132,-463.219 132,-418.094 132,-388.111"/>
</g>
<!-- 4b -->
<g id="node9" class="node"><title>4b</title>
<polygon fill="orange" stroke="black" points="479,-613 499,-643 459,-643 479,-613"/>
<text text-anchor="middle" x="479" y="-628.8" font-family="Times,serif" font-size="14.00">p2</text>
</g>
<!-- 4b&#45;&gt;4 -->
<g id="edge8" class="edge"><title>4b&#45;&gt;4</title>
<path fill="none" stroke="black" d="M472.235,-622.83C459.44,-605.485 431.182,-567.18 411.149,-540.024"/>
</g>
<!-- 5b -->
<g id="node10" class="node"><title>5b</title>
<polygon fill="orange" stroke="black" points="927,-613 947,-643 907,-643 927,-613"/>
<text text-anchor="middle" x="927" y="-628.8" font-family="Times,serif" font-size="14.00">p2</text>
</g>
<!-- 5b&#45;&gt;5 -->
<g id="edge10" class="edge"><title>5b&#45;&gt;5</title>
<path fill="none" stroke="black" d="M919.651,-623.995C904.322,-607.297 868.243,-567.996 842.748,-540.226"/>
</g>
<!-- 6 -->
<g id="node16" class="node"><title>6</title>
<polygon fill="none" stroke="black" points="342,-388 280,-388 280,-326 342,-326 342,-388"/>
<text text-anchor="middle" x="311" y="-352.8" font-family="Times,serif" font-size="14.00">6</text>
</g>
<!-- 1&#45;&gt;6 -->
<g id="edge11" class="edge"><title>1&#45;&gt;6</title>
<path fill="none" stroke="black" d="M259.899,-477.855C263.062,-461.58 267.845,-441.33 274.5,-424 279.194,-411.776 285.79,-399.032 292.086,-388.038"/>
<text text-anchor="middle" x="281.75" y="-427.6" font-family="Times,serif" font-size="18.00" fill="red"> 2</text>
</g>
<!-- 7 -->
<g id="node17" class="node"><title>7</title>
<polygon fill="none" stroke="black" points="657,-388 595,-388 595,-326 657,-326 657,-388"/>
<text text-anchor="middle" x="626" y="-352.8" font-family="Times,serif" font-size="14.00">7</text>
</g>
<!-- 2&#45;&gt;7 -->
<g id="edge13" class="edge"><title>2&#45;&gt;7</title>
<path fill="none" stroke="black" d="M626,-477.645C626,-451.535 626,-414.075 626,-388.053"/>
<text text-anchor="middle" x="632.75" y="-427.6" font-family="Times,serif" font-size="18.00" fill="red"> 2</text>
</g>
<!-- 8 -->
<g id="node18" class="node"><title>8</title>
<polygon fill="none" stroke="black" points="247,-236 185,-236 185,-174 247,-174 247,-236"/>
<text text-anchor="middle" x="216" y="-200.8" font-family="Times,serif" font-size="14.00">8</text>
</g>
<!-- 3&#45;&gt;8 -->
<g id="edge15" class="edge"><title>3&#45;&gt;8</title>
<path fill="none" stroke="black" d="M148.999,-325.645C163.62,-299.535 184.598,-262.075 199.17,-236.053"/>
<text text-anchor="middle" x="186.75" y="-275.6" font-family="Times,serif" font-size="18.00" fill="red"> 2</text>
</g>
<!-- 4&#45;&gt;6 -->
<g id="edge12" class="edge"><title>4&#45;&gt;6</title>
<path fill="none" stroke="black" d="M373.216,-477.645C359.638,-451.535 340.159,-414.075 326.628,-388.053"/>
<text text-anchor="middle" x="361.75" y="-427.6" font-family="Times,serif" font-size="18.00" fill="red"> 2</text>
</g>
<!-- 5&#45;&gt;7 -->
<g id="edge14" class="edge"><title>5&#45;&gt;7</title>
<path fill="none" stroke="black" d="M783.79,-483.231C748.772,-455.438 692.293,-410.614 657.256,-382.806"/>
<text text-anchor="middle" x="737.75" y="-427.6" font-family="Times,serif" font-size="18.00" fill="red"> 2</text>
</g>
<!-- 6&#45;&gt;8 -->
<g id="edge16" class="edge"><title>6&#45;&gt;8</title>
<path fill="none" stroke="black" d="M291.775,-325.645C275.239,-299.535 251.514,-262.075 235.034,-236.053"/>
<text text-anchor="middle" x="276.75" y="-275.6" font-family="Times,serif" font-size="18.00" fill="red"> 2</text>
</g>
<!-- 9 -->
<g id="node19" class="node"><title>9</title>
<polygon fill="none" stroke="black" points="453,-236 391,-236 391,-174 453,-174 453,-236"/>
<text text-anchor="middle" x="422" y="-200.8" font-family="Times,serif" font-size="14.00">9</text>
</g>
<!-- 6&#45;&gt;9 -->
<g id="edge17" class="edge"><title>6&#45;&gt;9</title>
<path fill="none" stroke="black" d="M333.463,-325.645C352.784,-299.535 380.504,-262.075 399.761,-236.053"/>
<text text-anchor="middle" x="380.75" y="-275.6" font-family="Times,serif" font-size="18.00" fill="red"> 2</text>
</g>
<!-- 7&#45;&gt;9 -->
<g id="edge18" class="edge"><title>7&#45;&gt;9</title>
<path fill="none" stroke="black" d="M594.572,-332.891C556.125,-304.621 491.439,-257.058 453.129,-228.889"/>
<text text-anchor="middle" x="543.75" y="-275.6" font-family="Times,serif" font-size="18.00" fill="red"> 2</text>
</g>
<!-- s7 -->
<g id="node20" class="node"><title>s7</title>
<polygon fill="violet" stroke="black" points="657,-205 641.5,-236 610.5,-236 595,-205 610.5,-174 641.5,-174 657,-205"/>
<text text-anchor="middle" x="626" y="-200.8" font-family="Times,serif" font-size="14.00">s7</text>
</g>
<!-- 7&#45;&gt;s7 -->
<g id="edge19" class="edge"><title>7&#45;&gt;s7</title>
<path fill="none" stroke="black" d="M626,-325.645C626,-299.535 626,-262.075 626,-236.053"/>
<text text-anchor="middle" x="632.75" y="-275.6" font-family="Times,serif" font-size="18.00" fill="purple"> 1</text>
</g>
<!-- s8 -->
<g id="node21" class="node"><title>s8</title>
<polygon fill="violet" stroke="black" points="247,-53 231.5,-84 200.5,-84 185,-53 200.5,-22 231.5,-22 247,-53"/>
<text text-anchor="middle" x="216" y="-48.8" font-family="Times,serif" font-size="14.00">s8</text>
</g>
<!-- 8&#45;&gt;s8 -->
<g id="edge20" class="edge"><title>8&#45;&gt;s8</title>
<path fill="none" stroke="black" d="M216,-173.645C216,-147.535 216,-110.075 216,-84.0533"/>
<text text-anchor="middle" x="222.75" y="-123.6" font-family="Times,serif" font-size="18.00" fill="purple"> 2</text>
</g>
<!-- s9 -->
<g id="node22" class="node"><title>s9</title>
<polygon fill="violet" stroke="black" points="453,-53 437.5,-84 406.5,-84 391,-53 406.5,-22 437.5,-22 453,-53"/>
<text text-anchor="middle" x="422" y="-48.8" font-family="Times,serif" font-size="14.00">s9</text>
</g>
<!-- 9&#45;&gt;s9 -->
<g id="edge21" class="edge"><title>9&#45;&gt;s9</title>
<path fill="none" stroke="black" d="M422,-173.645C422,-147.535 422,-110.075 422,-84.0533"/>
<text text-anchor="middle" x="428.75" y="-123.6" font-family="Times,serif" font-size="18.00" fill="purple"> 2</text>
</g>
</g>
</svg>
