<?xml version="1.0" encoding="UTF-8" standalone="no"?>
<!DOCTYPE svg PUBLIC "-//W3C//DTD SVG 1.1//EN"
 "http://www.w3.org/Graphics/SVG/1.1/DTD/svg11.dtd">
<!-- Generated by graphviz version 2.38.0 (20140413.2041)
 -->
<!-- Title: xxx Pages: 1 -->
<svg width="1097pt" height="813pt"
 viewBox="0.00 0.00 1097.00 813.00" xmlns="http://www.w3.org/2000/svg" xmlns:xlink="http://www.w3.org/1999/xlink">
<g id="graph0" class="graph" transform="scale(1 1) rotate(0) translate(4 809)">
<title>xxx</title>
<polygon fill="white" stroke="none" points="-4,4 -4,-809 1093,-809 1093,4 -4,4"/>
<text text-anchor="middle" x="544.5" y="-6.8" font-family="Times,serif" font-size="14.00"> &#160;</text>
<!-- 1a -->
<g id="node1" class="node"><title>1a</title>
<polygon fill="lightblue" stroke="black" points="270,-765 290,-795 250,-795 270,-765"/>
<text text-anchor="middle" x="270" y="-780.8" font-family="Times,serif" font-size="14.00">p1</text>
</g>
<!-- 1 -->
<g id="node15" class="node"><title>1</title>
<polygon fill="none" stroke="black" points="412,-692 350,-692 350,-630 412,-630 412,-692"/>
<text text-anchor="middle" x="381" y="-656.8" font-family="Times,serif" font-size="14.00">1</text>
</g>
<!-- 1a&#45;&gt;1 -->
<g id="edge1" class="edge"><title>1a&#45;&gt;1</title>
<path fill="none" stroke="black" d="M277.629,-775.614C293.009,-758.71 328.404,-719.808 353.479,-692.248"/>
</g>
<!-- 2a -->
<g id="node2" class="node"><title>2a</title>
<polygon fill="lightblue" stroke="black" points="727,-765 747,-795 707,-795 727,-765"/>
<text text-anchor="middle" x="727" y="-780.8" font-family="Times,serif" font-size="14.00">p1</text>
</g>
<!-- 2 -->
<g id="node16" class="node"><title>2</title>
<polygon fill="none" stroke="black" points="865,-692 803,-692 803,-630 865,-630 865,-692"/>
<text text-anchor="middle" x="834" y="-656.8" font-family="Times,serif" font-size="14.00">2</text>
</g>
<!-- 2a&#45;&gt;2 -->
<g id="edge3" class="edge"><title>2a&#45;&gt;2</title>
<path fill="none" stroke="black" d="M734.355,-775.614C749.18,-758.71 783.299,-719.808 807.471,-692.248"/>
</g>
<!-- 3a -->
<g id="node3" class="node"><title>3a</title>
<polygon fill="lightblue" stroke="black" points="146,-641 166,-671 126,-671 146,-641"/>
<text text-anchor="middle" x="146" y="-656.8" font-family="Times,serif" font-size="14.00">p1</text>
</g>
<!-- 3 -->
<g id="node17" class="node"><title>3</title>
<polygon fill="none" stroke="black" points="286,-540 224,-540 224,-478 286,-478 286,-540"/>
<text text-anchor="middle" x="255" y="-504.8" font-family="Times,serif" font-size="14.00">3</text>
</g>
<!-- 3a&#45;&gt;3 -->
<g id="edge5" class="edge"><title>3a&#45;&gt;3</title>
<path fill="none" stroke="black" d="M152.818,-650.617C168.572,-628.938 208.057,-574.6 233.075,-540.171"/>
</g>
<!-- 4a -->
<g id="node4" class="node"><title>4a</title>
<polygon fill="lightblue" stroke="black" points="132,-489 152,-519 112,-519 132,-489"/>
<text text-anchor="middle" x="132" y="-504.8" font-family="Times,serif" font-size="14.00">p1</text>
</g>
<!-- 4 -->
<g id="node18" class="node"><title>4</title>
<polygon fill="none" stroke="black" points="163,-388 101,-388 101,-326 163,-326 163,-388"/>
<text text-anchor="middle" x="132" y="-352.8" font-family="Times,serif" font-size="14.00">4</text>
</g>
<!-- 4a&#45;&gt;4 -->
<g id="edge7" class="edge"><title>4a&#45;&gt;4</title>
<path fill="none" stroke="black" d="M132,-488.697C132,-463.219 132,-418.094 132,-388.111"/>
</g>
<!-- 5a -->
<g id="node5" class="node"><title>5a</title>
<polygon fill="lightblue" stroke="black" points="512,-489 532,-519 492,-519 512,-489"/>
<text text-anchor="middle" x="512" y="-504.8" font-family="Times,serif" font-size="14.00">p1</text>
</g>
<!-- 5 -->
<g id="node19" class="node"><title>5</title>
<polygon fill="none" stroke="black" points="495,-388 433,-388 433,-326 495,-326 495,-388"/>
<text text-anchor="middle" x="464" y="-352.8" font-family="Times,serif" font-size="14.00">5</text>
</g>
<!-- 5a&#45;&gt;5 -->
<g id="edge9" class="edge"><title>5a&#45;&gt;5</title>
<path fill="none" stroke="black" d="M507.824,-494.951C500.252,-471.287 484.073,-420.728 473.633,-388.104"/>
</g>
<!-- 6a -->
<g id="node6" class="node"><title>6a</title>
<polygon fill="orange" stroke="black" points="502,-765 522,-795 482,-795 502,-765"/>
<text text-anchor="middle" x="502" y="-780.8" font-family="Times,serif" font-size="14.00">p2</text>
</g>
<!-- 6 -->
<g id="node20" class="node"><title>6</title>
<polygon fill="none" stroke="black" points="546,-692 484,-692 484,-630 546,-630 546,-692"/>
<text text-anchor="middle" x="515" y="-656.8" font-family="Times,serif" font-size="14.00">6</text>
</g>
<!-- 6a&#45;&gt;6 -->
<g id="edge11" class="edge"><title>6a&#45;&gt;6</title>
<path fill="none" stroke="black" d="M503.753,-767.547C505.805,-748.295 509.243,-716.026 511.779,-692.226"/>
</g>
<!-- 7a -->
<g id="node7" class="node"><title>7a</title>
<polygon fill="orange" stroke="black" points="957,-765 977,-795 937,-795 957,-765"/>
<text text-anchor="middle" x="957" y="-780.8" font-family="Times,serif" font-size="14.00">p2</text>
</g>
<!-- 7 -->
<g id="node21" class="node"><title>7</title>
<polygon fill="none" stroke="black" points="999,-692 937,-692 937,-630 999,-630 999,-692"/>
<text text-anchor="middle" x="968" y="-656.8" font-family="Times,serif" font-size="14.00">7</text>
</g>
<!-- 7a&#45;&gt;7 -->
<g id="edge13" class="edge"><title>7a&#45;&gt;7</title>
<path fill="none" stroke="black" d="M958.53,-767.036C960.265,-747.787 963.13,-716.011 965.255,-692.442"/>
</g>
<!-- 1b -->
<g id="node8" class="node"><title>1b</title>
<polygon fill="lightblue" stroke="black" points="382,-765 402,-795 362,-795 382,-765"/>
<text text-anchor="middle" x="382" y="-780.8" font-family="Times,serif" font-size="14.00">p1</text>
</g>
<!-- 1b&#45;&gt;1 -->
<g id="edge2" class="edge"><title>1b&#45;&gt;1</title>
<path fill="none" stroke="black" d="M381.846,-765.205C381.687,-745.821 381.437,-715.286 381.25,-692.45"/>
</g>
<!-- 2b -->
<g id="node9" class="node"><title>2b</title>
<polygon fill="lightblue" stroke="black" points="839,-765 859,-795 819,-795 839,-765"/>
<text text-anchor="middle" x="839" y="-780.8" font-family="Times,serif" font-size="14.00">p1</text>
</g>
<!-- 2b&#45;&gt;2 -->
<g id="edge4" class="edge"><title>2b&#45;&gt;2</title>
<path fill="none" stroke="black" d="M838.262,-765.998C837.469,-746.644 836.194,-715.54 835.245,-692.383"/>
</g>
<!-- 3b -->
<g id="node10" class="node"><title>3b</title>
<polygon fill="lightblue" stroke="black" points="258,-641 278,-671 238,-671 258,-641"/>
<text text-anchor="middle" x="258" y="-656.8" font-family="Times,serif" font-size="14.00">p1</text>
</g>
<!-- 3b&#45;&gt;3 -->
<g id="edge6" class="edge"><title>3b&#45;&gt;3</title>
<path fill="none" stroke="black" d="M257.626,-641.306C257.119,-615.939 256.206,-570.32 255.602,-540.098"/>
</g>
<!-- 4b -->
<g id="node11" class="node"><title>4b</title>
<polygon fill="lightblue" stroke="black" points="20,-489 40,-519 1.77636e-14,-519 20,-489"/>
<text text-anchor="middle" x="20" y="-504.8" font-family="Times,serif" font-size="14.00">p1</text>
</g>
<!-- 4b&#45;&gt;4 -->
<g id="edge8" class="edge"><title>4b&#45;&gt;4</title>
<path fill="none" stroke="black" d="M27.0061,-498.617C43.1928,-476.938 83.765,-422.6 109.472,-388.171"/>
</g>
<!-- 5b -->
<g id="node12" class="node"><title>5b</title>
<polygon fill="lightblue" stroke="black" points="634,-489 654,-519 614,-519 634,-489"/>
<text text-anchor="middle" x="634" y="-504.8" font-family="Times,serif" font-size="14.00">p1</text>
</g>
<!-- 5b&#45;&gt;5 -->
<g id="edge10" class="edge"><title>5b&#45;&gt;5</title>
<path fill="none" stroke="black" d="M630.258,-494.181C624.747,-476.08 612.891,-444.269 593,-424 565.512,-395.99 523.623,-377.609 495.091,-367.523"/>
</g>
<!-- 6b -->
<g id="node13" class="node"><title>6b</title>
<polygon fill="orange" stroke="black" points="614,-765 634,-795 594,-795 614,-765"/>
<text text-anchor="middle" x="614" y="-780.8" font-family="Times,serif" font-size="14.00">p2</text>
</g>
<!-- 6b&#45;&gt;6 -->
<g id="edge12" class="edge"><title>6b&#45;&gt;6</title>
<path fill="none" stroke="black" d="M606.88,-775.226C592.959,-758.07 561.555,-719.371 539.349,-692.006"/>
</g>
<!-- 7b -->
<g id="node14" class="node"><title>7b</title>
<polygon fill="orange" stroke="black" points="1069,-765 1089,-795 1049,-795 1069,-765"/>
<text text-anchor="middle" x="1069" y="-780.8" font-family="Times,serif" font-size="14.00">p2</text>
</g>
<!-- 7b&#45;&gt;7 -->
<g id="edge14" class="edge"><title>7b&#45;&gt;7</title>
<path fill="none" stroke="black" d="M1061.74,-775.226C1047.53,-758.07 1015.5,-719.371 992.841,-692.006"/>
</g>
<!-- 8 -->
<g id="node22" class="node"><title>8</title>
<polygon fill="none" stroke="black" points="420,-540 358,-540 358,-478 420,-478 420,-540"/>
<text text-anchor="middle" x="389" y="-504.8" font-family="Times,serif" font-size="14.00">8</text>
</g>
<!-- 1&#45;&gt;8 -->
<g id="edge15" class="edge"><title>1&#45;&gt;8</title>
<path fill="none" stroke="black" d="M382.619,-629.645C384.011,-603.535 386.009,-566.075 387.397,-540.053"/>
<text text-anchor="middle" x="392.75" y="-579.6" font-family="Times,serif" font-size="18.00" fill="red"> 2</text>
</g>
<!-- 9 -->
<g id="node23" class="node"><title>9</title>
<polygon fill="none" stroke="black" points="865,-540 803,-540 803,-478 865,-478 865,-540"/>
<text text-anchor="middle" x="834" y="-504.8" font-family="Times,serif" font-size="14.00">9</text>
</g>
<!-- 2&#45;&gt;9 -->
<g id="edge17" class="edge"><title>2&#45;&gt;9</title>
<path fill="none" stroke="black" d="M834,-629.645C834,-603.535 834,-566.075 834,-540.053"/>
<text text-anchor="middle" x="840.75" y="-579.6" font-family="Times,serif" font-size="18.00" fill="red"> 2</text>
</g>
<!-- 10 -->
<g id="node24" class="node"><title>10</title>
<polygon fill="none" stroke="black" points="302,-388 240,-388 240,-326 302,-326 302,-388"/>
<text text-anchor="middle" x="271" y="-352.8" font-family="Times,serif" font-size="14.00">10</text>
</g>
<!-- 3&#45;&gt;10 -->
<g id="edge19" class="edge"><title>3&#45;&gt;10</title>
<path fill="none" stroke="black" d="M258.238,-477.645C261.023,-451.535 265.019,-414.075 267.794,-388.053"/>
<text text-anchor="middle" x="270.75" y="-427.6" font-family="Times,serif" font-size="18.00" fill="red"> 2</text>
</g>
<!-- 11 -->
<g id="node25" class="node"><title>11</title>
<polygon fill="none" stroke="black" points="215,-236 153,-236 153,-174 215,-174 215,-236"/>
<text text-anchor="middle" x="184" y="-200.8" font-family="Times,serif" font-size="14.00">11</text>
</g>
<!-- 4&#45;&gt;11 -->
<g id="edge21" class="edge"><title>4&#45;&gt;11</title>
<path fill="none" stroke="black" d="M133.12,-325.741C134.468,-309.433 137.358,-289.187 143.5,-272 147.934,-259.594 154.908,-247.014 161.828,-236.212"/>
<text text-anchor="middle" x="150.75" y="-275.6" font-family="Times,serif" font-size="18.00" fill="red"> 2</text>
</g>
<!-- 12 -->
<g id="node26" class="node"><title>12</title>
<polygon fill="none" stroke="black" points="395,-236 333,-236 333,-174 395,-174 395,-236"/>
<text text-anchor="middle" x="364" y="-200.8" font-family="Times,serif" font-size="14.00">12</text>
</g>
<!-- 5&#45;&gt;12 -->
<g id="edge23" class="edge"><title>5&#45;&gt;12</title>
<path fill="none" stroke="black" d="M443.764,-325.645C426.357,-299.535 401.384,-262.075 384.036,-236.053"/>
<text text-anchor="middle" x="426.75" y="-275.6" font-family="Times,serif" font-size="18.00" fill="red"> 2</text>
</g>
<!-- 6&#45;&gt;8 -->
<g id="edge16" class="edge"><title>6&#45;&gt;8</title>
<path fill="none" stroke="black" d="M489.502,-629.645C467.57,-603.535 436.103,-566.075 414.245,-540.053"/>
<text text-anchor="middle" x="466.75" y="-579.6" font-family="Times,serif" font-size="18.00" fill="red"> 2</text>
</g>
<!-- 7&#45;&gt;9 -->
<g id="edge18" class="edge"><title>7&#45;&gt;9</title>
<path fill="none" stroke="black" d="M940.883,-629.645C917.558,-603.535 884.094,-566.075 860.848,-540.053"/>
<text text-anchor="middle" x="915.75" y="-579.6" font-family="Times,serif" font-size="18.00" fill="red"> 2</text>
</g>
<!-- 8&#45;&gt;10 -->
<g id="edge20" class="edge"><title>8&#45;&gt;10</title>
<path fill="none" stroke="black" d="M365.121,-477.645C344.581,-451.535 315.113,-414.075 294.642,-388.053"/>
<text text-anchor="middle" x="344.75" y="-427.6" font-family="Times,serif" font-size="18.00" fill="red"> 2</text>
</g>
<!-- 13 -->
<g id="node27" class="node"><title>13</title>
<polygon fill="none" stroke="black" points="682,-388 620,-388 620,-326 682,-326 682,-388"/>
<text text-anchor="middle" x="651" y="-352.8" font-family="Times,serif" font-size="14.00">13</text>
</g>
<!-- 8&#45;&gt;13 -->
<g id="edge25" class="edge"><title>8&#45;&gt;13</title>
<path fill="none" stroke="black" d="M420.084,-490.204C470.508,-461.335 569.559,-404.627 619.957,-375.773"/>
<text text-anchor="middle" x="542.75" y="-427.6" font-family="Times,serif" font-size="18.00" fill="red"> 2</text>
</g>
<!-- 9&#45;&gt;13 -->
<g id="edge26" class="edge"><title>9&#45;&gt;13</title>
<path fill="none" stroke="black" d="M802.957,-482.555C769.305,-454.971 715.907,-411.202 682.196,-383.57"/>
<text text-anchor="middle" x="759.75" y="-427.6" font-family="Times,serif" font-size="18.00" fill="red"> 2</text>
</g>
<!-- s9 -->
<g id="node28" class="node"><title>s9</title>
<polygon fill="violet" stroke="black" points="870,-357 854.5,-388 823.5,-388 808,-357 823.5,-326 854.5,-326 870,-357"/>
<text text-anchor="middle" x="839" y="-352.8" font-family="Times,serif" font-size="14.00">s9</text>
</g>
<!-- 9&#45;&gt;s9 -->
<g id="edge27" class="edge"><title>9&#45;&gt;s9</title>
<path fill="none" stroke="black" d="M835.012,-477.645C835.882,-451.535 837.131,-414.075 837.998,-388.053"/>
<text text-anchor="middle" x="842.75" y="-427.6" font-family="Times,serif" font-size="18.00" fill="purple"> 1</text>
</g>
<!-- 10&#45;&gt;11 -->
<g id="edge22" class="edge"><title>10&#45;&gt;11</title>
<path fill="none" stroke="black" d="M253.394,-325.645C238.25,-299.535 216.524,-262.075 201.431,-236.053"/>
<text text-anchor="middle" x="239.75" y="-275.6" font-family="Times,serif" font-size="18.00" fill="red"> 2</text>
</g>
<!-- 10&#45;&gt;12 -->
<g id="edge24" class="edge"><title>10&#45;&gt;12</title>
<path fill="none" stroke="black" d="M289.82,-325.645C306.008,-299.535 329.233,-262.075 345.367,-236.053"/>
<text text-anchor="middle" x="330.75" y="-275.6" font-family="Times,serif" font-size="18.00" fill="red"> 2</text>
</g>
<!-- s11 -->
<g id="node29" class="node"><title>s11</title>
<polygon fill="violet" stroke="black" points="215,-53 199.5,-84 168.5,-84 153,-53 168.5,-22 199.5,-22 215,-53"/>
<text text-anchor="middle" x="184" y="-48.8" font-family="Times,serif" font-size="14.00">s11</text>
</g>
<!-- 11&#45;&gt;s11 -->
<g id="edge28" class="edge"><title>11&#45;&gt;s11</title>
<path fill="none" stroke="black" d="M184,-173.645C184,-147.535 184,-110.075 184,-84.0533"/>
<text text-anchor="middle" x="190.75" y="-123.6" font-family="Times,serif" font-size="18.00" fill="purple"> 2</text>
</g>
<!-- s12 -->
<g id="node30" class="node"><title>s12</title>
<polygon fill="violet" stroke="black" points="395,-53 379.5,-84 348.5,-84 333,-53 348.5,-22 379.5,-22 395,-53"/>
<text text-anchor="middle" x="364" y="-48.8" font-family="Times,serif" font-size="14.00">s12</text>
</g>
<!-- 12&#45;&gt;s12 -->
<g id="edge29" class="edge"><title>12&#45;&gt;s12</title>
<path fill="none" stroke="black" d="M364,-173.645C364,-147.535 364,-110.075 364,-84.0533"/>
<text text-anchor="middle" x="370.75" y="-123.6" font-family="Times,serif" font-size="18.00" fill="purple"> 2</text>
</g>
<!-- s13 -->
<g id="node31" class="node"><title>s13</title>
<polygon fill="violet" stroke="black" points="682,-205 666.5,-236 635.5,-236 620,-205 635.5,-174 666.5,-174 682,-205"/>
<text text-anchor="middle" x="651" y="-200.8" font-family="Times,serif" font-size="14.00">s13</text>
</g>
<!-- 13&#45;&gt;s13 -->
<g id="edge30" class="edge"><title>13&#45;&gt;s13</title>
<path fill="none" stroke="black" d="M651,-325.645C651,-299.535 651,-262.075 651,-236.053"/>
<text text-anchor="middle" x="657.75" y="-275.6" font-family="Times,serif" font-size="18.00" fill="purple"> 2</text>
</g>
</g>
</svg>
