<?xml version="1.0" encoding="UTF-8" standalone="no"?>
<!DOCTYPE svg PUBLIC "-//W3C//DTD SVG 1.1//EN"
 "http://www.w3.org/Graphics/SVG/1.1/DTD/svg11.dtd">
<!-- Generated by graphviz version 2.38.0 (20140413.2041)
 -->
<!-- Title: xxx Pages: 1 -->
<svg width="686pt" height="813pt"
 viewBox="0.00 0.00 686.00 813.00" xmlns="http://www.w3.org/2000/svg" xmlns:xlink="http://www.w3.org/1999/xlink">
<g id="graph0" class="graph" transform="scale(1 1) rotate(0) translate(4 809)">
<title>xxx</title>
<polygon fill="white" stroke="none" points="-4,4 -4,-809 682,-809 682,4 -4,4"/>
<text text-anchor="middle" x="339" y="-6.8" font-family="Times,serif" font-size="14.00"> &#160;</text>
<!-- 1a -->
<g id="node1" class="node"><title>1a</title>
<polygon fill="lightblue" stroke="black" points="36,-765 56,-795 16,-795 36,-765"/>
<text text-anchor="middle" x="36" y="-780.8" font-family="Times,serif" font-size="14.00">p1</text>
</g>
<!-- 1 -->
<g id="node11" class="node"><title>1</title>
<polygon fill="none" stroke="black" points="173,-692 111,-692 111,-630 173,-630 173,-692"/>
<text text-anchor="middle" x="142" y="-656.8" font-family="Times,serif" font-size="14.00">1</text>
</g>
<!-- 1a&#45;&gt;1 -->
<g id="edge1" class="edge"><title>1a&#45;&gt;1</title>
<path fill="none" stroke="black" d="M43.2858,-775.614C57.9729,-758.71 91.7732,-719.808 115.719,-692.248"/>
</g>
<!-- 2a -->
<g id="node2" class="node"><title>2a</title>
<polygon fill="orange" stroke="black" points="271,-765 291,-795 251,-795 271,-765"/>
<text text-anchor="middle" x="271" y="-780.8" font-family="Times,serif" font-size="14.00">p2</text>
</g>
<!-- 2 -->
<g id="node12" class="node"><title>2</title>
<polygon fill="none" stroke="black" points="307,-692 245,-692 245,-630 307,-630 307,-692"/>
<text text-anchor="middle" x="276" y="-656.8" font-family="Times,serif" font-size="14.00">2</text>
</g>
<!-- 2a&#45;&gt;2 -->
<g id="edge3" class="edge"><title>2a&#45;&gt;2</title>
<path fill="none" stroke="black" d="M271.738,-765.998C272.531,-746.644 273.806,-715.54 274.755,-692.383"/>
</g>
<!-- 3a -->
<g id="node3" class="node"><title>3a</title>
<polygon fill="lightblue" stroke="black" points="405,-641 425,-671 385,-671 405,-641"/>
<text text-anchor="middle" x="405" y="-656.8" font-family="Times,serif" font-size="14.00">p1</text>
</g>
<!-- 3 -->
<g id="node13" class="node"><title>3</title>
<polygon fill="none" stroke="black" points="454,-540 392,-540 392,-478 454,-478 454,-540"/>
<text text-anchor="middle" x="423" y="-504.8" font-family="Times,serif" font-size="14.00">3</text>
</g>
<!-- 3a&#45;&gt;3 -->
<g id="edge5" class="edge"><title>3a&#45;&gt;3</title>
<path fill="none" stroke="black" d="M406.961,-643.662C409.94,-618.832 415.656,-571.198 419.398,-540.016"/>
</g>
<!-- 4a -->
<g id="node4" class="node"><title>4a</title>
<polygon fill="lightblue" stroke="black" points="132,-489 152,-519 112,-519 132,-489"/>
<text text-anchor="middle" x="132" y="-504.8" font-family="Times,serif" font-size="14.00">p1</text>
</g>
<!-- 4 -->
<g id="node14" class="node"><title>4</title>
<polygon fill="none" stroke="black" points="148,-388 86,-388 86,-326 148,-326 148,-388"/>
<text text-anchor="middle" x="117" y="-352.8" font-family="Times,serif" font-size="14.00">4</text>
</g>
<!-- 4a&#45;&gt;4 -->
<g id="edge7" class="edge"><title>4a&#45;&gt;4</title>
<path fill="none" stroke="black" d="M130.337,-491.374C127.851,-466.508 123.124,-419.236 120.017,-388.171"/>
</g>
<!-- 5a -->
<g id="node5" class="node"><title>5a</title>
<polygon fill="lightblue" stroke="black" points="658,-489 678,-519 638,-519 658,-489"/>
<text text-anchor="middle" x="658" y="-504.8" font-family="Times,serif" font-size="14.00">p1</text>
</g>
<!-- 5 -->
<g id="node15" class="node"><title>5</title>
<polygon fill="none" stroke="black" points="577,-388 515,-388 515,-326 577,-326 577,-388"/>
<text text-anchor="middle" x="546" y="-352.8" font-family="Times,serif" font-size="14.00">5</text>
</g>
<!-- 5a&#45;&gt;5 -->
<g id="edge9" class="edge"><title>5a&#45;&gt;5</title>
<path fill="none" stroke="black" d="M651.805,-498.21C641.647,-482.314 620.614,-450.045 601,-424 591.938,-411.966 581.465,-399.155 572.105,-388.052"/>
</g>
<!-- 1b -->
<g id="node6" class="node"><title>1b</title>
<polygon fill="lightblue" stroke="black" points="148,-765 168,-795 128,-795 148,-765"/>
<text text-anchor="middle" x="148" y="-780.8" font-family="Times,serif" font-size="14.00">p1</text>
</g>
<!-- 1b&#45;&gt;1 -->
<g id="edge2" class="edge"><title>1b&#45;&gt;1</title>
<path fill="none" stroke="black" d="M147.128,-766.26C146.172,-746.831 144.623,-715.337 143.477,-692.041"/>
</g>
<!-- 2b -->
<g id="node7" class="node"><title>2b</title>
<polygon fill="orange" stroke="black" points="383,-765 403,-795 363,-795 383,-765"/>
<text text-anchor="middle" x="383" y="-780.8" font-family="Times,serif" font-size="14.00">p2</text>
</g>
<!-- 2b&#45;&gt;2 -->
<g id="edge4" class="edge"><title>2b&#45;&gt;2</title>
<path fill="none" stroke="black" d="M375.645,-775.614C360.82,-758.71 326.701,-719.808 302.529,-692.248"/>
</g>
<!-- 3b -->
<g id="node8" class="node"><title>3b</title>
<polygon fill="lightblue" stroke="black" points="517,-641 537,-671 497,-671 517,-641"/>
<text text-anchor="middle" x="517" y="-656.8" font-family="Times,serif" font-size="14.00">p1</text>
</g>
<!-- 3b&#45;&gt;3 -->
<g id="edge6" class="edge"><title>3b&#45;&gt;3</title>
<path fill="none" stroke="black" d="M511.239,-649.211C502.516,-633.046 485.25,-601.694 469,-576 461.46,-564.078 452.709,-551.29 444.877,-540.175"/>
</g>
<!-- 4b -->
<g id="node9" class="node"><title>4b</title>
<polygon fill="lightblue" stroke="black" points="20,-489 40,-519 1.77636e-14,-519 20,-489"/>
<text text-anchor="middle" x="20" y="-504.8" font-family="Times,serif" font-size="14.00">p1</text>
</g>
<!-- 4b&#45;&gt;4 -->
<g id="edge8" class="edge"><title>4b&#45;&gt;4</title>
<path fill="none" stroke="black" d="M26.3644,-498.158C40.5684,-476.193 75.3403,-422.422 97.4508,-388.231"/>
</g>
<!-- 5b -->
<g id="node10" class="node"><title>5b</title>
<polygon fill="lightblue" stroke="black" points="546,-489 566,-519 526,-519 546,-489"/>
<text text-anchor="middle" x="546" y="-504.8" font-family="Times,serif" font-size="14.00">p1</text>
</g>
<!-- 5b&#45;&gt;5 -->
<g id="edge10" class="edge"><title>5b&#45;&gt;5</title>
<path fill="none" stroke="black" d="M546,-488.697C546,-463.219 546,-418.094 546,-388.111"/>
</g>
<!-- 6 -->
<g id="node16" class="node"><title>6</title>
<polygon fill="none" stroke="black" points="287,-540 225,-540 225,-478 287,-478 287,-540"/>
<text text-anchor="middle" x="256" y="-504.8" font-family="Times,serif" font-size="14.00">6</text>
</g>
<!-- 1&#45;&gt;6 -->
<g id="edge11" class="edge"><title>1&#45;&gt;6</title>
<path fill="none" stroke="black" d="M165.07,-629.645C184.913,-603.535 213.383,-566.075 233.16,-540.053"/>
<text text-anchor="middle" x="212.75" y="-579.6" font-family="Times,serif" font-size="18.00" fill="red"> 2</text>
</g>
<!-- 2&#45;&gt;6 -->
<g id="edge12" class="edge"><title>2&#45;&gt;6</title>
<path fill="none" stroke="black" d="M271.953,-629.645C268.471,-603.535 263.477,-566.075 260.007,-540.053"/>
<text text-anchor="middle" x="274.75" y="-579.6" font-family="Times,serif" font-size="18.00" fill="red"> 2</text>
</g>
<!-- 7 -->
<g id="node17" class="node"><title>7</title>
<polygon fill="none" stroke="black" points="434,-388 372,-388 372,-326 434,-326 434,-388"/>
<text text-anchor="middle" x="403" y="-352.8" font-family="Times,serif" font-size="14.00">7</text>
</g>
<!-- 3&#45;&gt;7 -->
<g id="edge13" class="edge"><title>3&#45;&gt;7</title>
<path fill="none" stroke="black" d="M418.953,-477.645C415.471,-451.535 410.477,-414.075 407.007,-388.053"/>
<text text-anchor="middle" x="421.75" y="-427.6" font-family="Times,serif" font-size="18.00" fill="red"> 2</text>
</g>
<!-- 8 -->
<g id="node18" class="node"><title>8</title>
<polygon fill="none" stroke="black" points="258,-236 196,-236 196,-174 258,-174 258,-236"/>
<text text-anchor="middle" x="227" y="-200.8" font-family="Times,serif" font-size="14.00">8</text>
</g>
<!-- 4&#45;&gt;8 -->
<g id="edge15" class="edge"><title>4&#45;&gt;8</title>
<path fill="none" stroke="black" d="M139.26,-325.645C158.407,-299.535 185.878,-262.075 204.961,-236.053"/>
<text text-anchor="middle" x="185.75" y="-275.6" font-family="Times,serif" font-size="18.00" fill="red"> 2</text>
</g>
<!-- 9 -->
<g id="node19" class="node"><title>9</title>
<polygon fill="none" stroke="black" points="458,-236 396,-236 396,-174 458,-174 458,-236"/>
<text text-anchor="middle" x="427" y="-200.8" font-family="Times,serif" font-size="14.00">9</text>
</g>
<!-- 5&#45;&gt;9 -->
<g id="edge17" class="edge"><title>5&#45;&gt;9</title>
<path fill="none" stroke="black" d="M521.919,-325.645C501.205,-299.535 471.486,-262.075 450.842,-236.053"/>
<text text-anchor="middle" x="499.75" y="-275.6" font-family="Times,serif" font-size="18.00" fill="red"> 2</text>
</g>
<!-- 6&#45;&gt;7 -->
<g id="edge14" class="edge"><title>6&#45;&gt;7</title>
<path fill="none" stroke="black" d="M285.748,-477.645C311.335,-451.535 348.046,-414.075 373.548,-388.053"/>
<text text-anchor="middle" x="345.75" y="-427.6" font-family="Times,serif" font-size="18.00" fill="red"> 2</text>
</g>
<!-- s6 -->
<g id="node20" class="node"><title>s6</title>
<polygon fill="violet" stroke="black" points="282,-357 266.5,-388 235.5,-388 220,-357 235.5,-326 266.5,-326 282,-357"/>
<text text-anchor="middle" x="251" y="-352.8" font-family="Times,serif" font-size="14.00">s6</text>
</g>
<!-- 6&#45;&gt;s6 -->
<g id="edge19" class="edge"><title>6&#45;&gt;s6</title>
<path fill="none" stroke="black" d="M251.292,-477.85C249.757,-466.626 248.254,-453.76 247.5,-442 246.36,-424.229 247.102,-404.319 248.19,-388.344"/>
<text text-anchor="middle" x="254.75" y="-427.6" font-family="Times,serif" font-size="18.00" fill="purple"> 1</text>
</g>
<!-- 7&#45;&gt;8 -->
<g id="edge16" class="edge"><title>7&#45;&gt;8</title>
<path fill="none" stroke="black" d="M371.94,-329.528C339.868,-302.194 290.112,-259.789 258.045,-232.459"/>
<text text-anchor="middle" x="332.75" y="-275.6" font-family="Times,serif" font-size="18.00" fill="red"> 2</text>
</g>
<!-- 7&#45;&gt;9 -->
<g id="edge18" class="edge"><title>7&#45;&gt;9</title>
<path fill="none" stroke="black" d="M407.857,-325.645C412.034,-299.535 418.028,-262.075 422.191,-236.053"/>
<text text-anchor="middle" x="423.75" y="-275.6" font-family="Times,serif" font-size="18.00" fill="red"> 2</text>
</g>
<!-- s8 -->
<g id="node21" class="node"><title>s8</title>
<polygon fill="violet" stroke="black" points="258,-53 242.5,-84 211.5,-84 196,-53 211.5,-22 242.5,-22 258,-53"/>
<text text-anchor="middle" x="227" y="-48.8" font-family="Times,serif" font-size="14.00">s8</text>
</g>
<!-- 8&#45;&gt;s8 -->
<g id="edge20" class="edge"><title>8&#45;&gt;s8</title>
<path fill="none" stroke="black" d="M227,-173.645C227,-147.535 227,-110.075 227,-84.0533"/>
<text text-anchor="middle" x="233.75" y="-123.6" font-family="Times,serif" font-size="18.00" fill="purple"> 2</text>
</g>
<!-- s9 -->
<g id="node22" class="node"><title>s9</title>
<polygon fill="violet" stroke="black" points="458,-53 442.5,-84 411.5,-84 396,-53 411.5,-22 442.5,-22 458,-53"/>
<text text-anchor="middle" x="427" y="-48.8" font-family="Times,serif" font-size="14.00">s9</text>
</g>
<!-- 9&#45;&gt;s9 -->
<g id="edge21" class="edge"><title>9&#45;&gt;s9</title>
<path fill="none" stroke="black" d="M427,-173.645C427,-147.535 427,-110.075 427,-84.0533"/>
<text text-anchor="middle" x="433.75" y="-123.6" font-family="Times,serif" font-size="18.00" fill="purple"> 2</text>
</g>
</g>
</svg>
