<?xml version="1.0" encoding="UTF-8" standalone="no"?>
<!DOCTYPE svg PUBLIC "-//W3C//DTD SVG 1.1//EN"
 "http://www.w3.org/Graphics/SVG/1.1/DTD/svg11.dtd">
<!-- Generated by graphviz version 2.38.0 (20140413.2041)
 -->
<!-- Title: xxx Pages: 1 -->
<svg width="1182pt" height="813pt"
 viewBox="0.00 0.00 1182.00 813.00" xmlns="http://www.w3.org/2000/svg" xmlns:xlink="http://www.w3.org/1999/xlink">
<g id="graph0" class="graph" transform="scale(1 1) rotate(0) translate(4 809)">
<title>xxx</title>
<polygon fill="white" stroke="none" points="-4,4 -4,-809 1178,-809 1178,4 -4,4"/>
<text text-anchor="middle" x="587" y="-6.8" font-family="Times,serif" font-size="14.00"> &#160;</text>
<!-- 1a -->
<g id="node1" class="node"><title>1a</title>
<polygon fill="lightblue" stroke="black" points="20,-641 40,-671 1.77636e-14,-671 20,-641"/>
<text text-anchor="middle" x="20" y="-656.8" font-family="Times,serif" font-size="14.00">A</text>
</g>
<!-- 1 -->
<g id="node13" class="node"><title>1</title>
<polygon fill="none" stroke="black" points="162,-540 100,-540 100,-478 162,-478 162,-540"/>
<text text-anchor="middle" x="131" y="-504.8" font-family="Times,serif" font-size="14.00">1</text>
</g>
<!-- 1a&#45;&gt;1 -->
<g id="edge1" class="edge"><title>1a&#45;&gt;1</title>
<path fill="none" stroke="black" d="M26.9435,-650.617C42.9857,-628.938 83.1957,-574.6 108.673,-540.171"/>
</g>
<!-- 2a -->
<g id="node2" class="node"><title>2a</title>
<polygon fill="lightblue" stroke="black" points="370,-765 390,-795 350,-795 370,-765"/>
<text text-anchor="middle" x="370" y="-780.8" font-family="Times,serif" font-size="14.00">A</text>
</g>
<!-- 2 -->
<g id="node14" class="node"><title>2</title>
<polygon fill="none" stroke="black" points="513,-692 451,-692 451,-630 513,-630 513,-692"/>
<text text-anchor="middle" x="482" y="-656.8" font-family="Times,serif" font-size="14.00">2</text>
</g>
<!-- 2a&#45;&gt;2 -->
<g id="edge3" class="edge"><title>2a&#45;&gt;2</title>
<path fill="none" stroke="black" d="M377.349,-775.995C392.678,-759.297 428.757,-719.996 454.252,-692.226"/>
</g>
<!-- 3a -->
<g id="node3" class="node"><title>3a</title>
<polygon fill="orange" stroke="black" points="594,-765 614,-795 574,-795 594,-765"/>
<text text-anchor="middle" x="594" y="-780.8" font-family="Times,serif" font-size="14.00">B</text>
</g>
<!-- 3 -->
<g id="node15" class="node"><title>3</title>
<polygon fill="none" stroke="black" points="648,-692 586,-692 586,-630 648,-630 648,-692"/>
<text text-anchor="middle" x="617" y="-656.8" font-family="Times,serif" font-size="14.00">3</text>
</g>
<!-- 3a&#45;&gt;3 -->
<g id="edge5" class="edge"><title>3a&#45;&gt;3</title>
<path fill="none" stroke="black" d="M596.82,-769.04C600.419,-749.952 606.729,-716.483 611.337,-692.04"/>
</g>
<!-- 4a -->
<g id="node4" class="node"><title>4a</title>
<polygon fill="lightblue" stroke="black" points="818,-765 838,-795 798,-795 818,-765"/>
<text text-anchor="middle" x="818" y="-780.8" font-family="Times,serif" font-size="14.00">A</text>
</g>
<!-- 4 -->
<g id="node16" class="node"><title>4</title>
<polygon fill="none" stroke="black" points="934,-692 872,-692 872,-630 934,-630 934,-692"/>
<text text-anchor="middle" x="903" y="-656.8" font-family="Times,serif" font-size="14.00">4</text>
</g>
<!-- 4a&#45;&gt;4 -->
<g id="edge7" class="edge"><title>4a&#45;&gt;4</title>
<path fill="none" stroke="black" d="M824.67,-774.427C836.88,-756.901 863.296,-718.986 882.071,-692.04"/>
</g>
<!-- 5a -->
<g id="node5" class="node"><title>5a</title>
<polygon fill="orange" stroke="black" points="1042,-765 1062,-795 1022,-795 1042,-765"/>
<text text-anchor="middle" x="1042" y="-780.8" font-family="Times,serif" font-size="14.00">B</text>
</g>
<!-- 5 -->
<g id="node17" class="node"><title>5</title>
<polygon fill="none" stroke="black" points="1073,-692 1011,-692 1011,-630 1073,-630 1073,-692"/>
<text text-anchor="middle" x="1042" y="-656.8" font-family="Times,serif" font-size="14.00">5</text>
</g>
<!-- 5a&#45;&gt;5 -->
<g id="edge9" class="edge"><title>5a&#45;&gt;5</title>
<path fill="none" stroke="black" d="M1042,-764.938C1042,-745.503 1042,-715.06 1042,-692.314"/>
</g>
<!-- 6a -->
<g id="node6" class="node"><title>6a</title>
<polygon fill="orange" stroke="black" points="246,-641 266,-671 226,-671 246,-641"/>
<text text-anchor="middle" x="246" y="-656.8" font-family="Times,serif" font-size="14.00">B</text>
</g>
<!-- 6 -->
<g id="node18" class="node"><title>6</title>
<polygon fill="none" stroke="black" points="367,-540 305,-540 305,-478 367,-478 367,-540"/>
<text text-anchor="middle" x="336" y="-504.8" font-family="Times,serif" font-size="14.00">6</text>
</g>
<!-- 6a&#45;&gt;6 -->
<g id="edge11" class="edge"><title>6a&#45;&gt;6</title>
<path fill="none" stroke="black" d="M252.186,-649.69C265.53,-627.45 297.456,-574.241 317.828,-540.287"/>
</g>
<!-- 1b -->
<g id="node7" class="node"><title>1b</title>
<polygon fill="lightblue" stroke="black" points="132,-641 152,-671 112,-671 132,-641"/>
<text text-anchor="middle" x="132" y="-656.8" font-family="Times,serif" font-size="14.00">A</text>
</g>
<!-- 1b&#45;&gt;1 -->
<g id="edge2" class="edge"><title>1b&#45;&gt;1</title>
<path fill="none" stroke="black" d="M131.873,-641.002C131.704,-615.618 131.402,-570.348 131.202,-540.245"/>
</g>
<!-- 2b -->
<g id="node8" class="node"><title>2b</title>
<polygon fill="lightblue" stroke="black" points="482,-765 502,-795 462,-795 482,-765"/>
<text text-anchor="middle" x="482" y="-780.8" font-family="Times,serif" font-size="14.00">A</text>
</g>
<!-- 2b&#45;&gt;2 -->
<g id="edge4" class="edge"><title>2b&#45;&gt;2</title>
<path fill="none" stroke="black" d="M482,-764.938C482,-745.503 482,-715.06 482,-692.314"/>
</g>
<!-- 3b -->
<g id="node9" class="node"><title>3b</title>
<polygon fill="orange" stroke="black" points="706,-765 726,-795 686,-795 706,-765"/>
<text text-anchor="middle" x="706" y="-780.8" font-family="Times,serif" font-size="14.00">B</text>
</g>
<!-- 3b&#45;&gt;3 -->
<g id="edge6" class="edge"><title>3b&#45;&gt;3</title>
<path fill="none" stroke="black" d="M699.311,-774.83C686.657,-757.485 658.713,-719.18 638.903,-692.024"/>
</g>
<!-- 4b -->
<g id="node10" class="node"><title>4b</title>
<polygon fill="lightblue" stroke="black" points="930,-765 950,-795 910,-795 930,-765"/>
<text text-anchor="middle" x="930" y="-780.8" font-family="Times,serif" font-size="14.00">A</text>
</g>
<!-- 4b&#45;&gt;4 -->
<g id="edge8" class="edge"><title>4b&#45;&gt;4</title>
<path fill="none" stroke="black" d="M926.797,-769.526C922.606,-750.59 915.156,-716.929 909.706,-692.299"/>
</g>
<!-- 5b -->
<g id="node11" class="node"><title>5b</title>
<polygon fill="orange" stroke="black" points="1154,-765 1174,-795 1134,-795 1154,-765"/>
<text text-anchor="middle" x="1154" y="-780.8" font-family="Times,serif" font-size="14.00">B</text>
</g>
<!-- 5b&#45;&gt;5 -->
<g id="edge10" class="edge"><title>5b&#45;&gt;5</title>
<path fill="none" stroke="black" d="M1146.65,-775.995C1131.32,-759.297 1095.24,-719.996 1069.75,-692.226"/>
</g>
<!-- 6b -->
<g id="node12" class="node"><title>6b</title>
<polygon fill="orange" stroke="black" points="358,-641 378,-671 338,-671 358,-641"/>
<text text-anchor="middle" x="358" y="-656.8" font-family="Times,serif" font-size="14.00">B</text>
</g>
<!-- 6b&#45;&gt;6 -->
<g id="edge12" class="edge"><title>6b&#45;&gt;6</title>
<path fill="none" stroke="black" d="M355.687,-644.231C352.08,-619.634 345.05,-571.703 340.441,-540.276"/>
</g>
<!-- 9 -->
<g id="node21" class="node"><title>9</title>
<polygon fill="none" stroke="black" points="388,-388 326,-388 326,-326 388,-326 388,-388"/>
<text text-anchor="middle" x="357" y="-352.8" font-family="Times,serif" font-size="14.00">9</text>
</g>
<!-- 1&#45;&gt;9 -->
<g id="edge17" class="edge"><title>1&#45;&gt;9</title>
<path fill="none" stroke="black" d="M157.739,-477.897C174.111,-460.656 196.155,-439.447 218.5,-424 252.68,-400.372 296.633,-381.032 325.757,-369.529"/>
<text text-anchor="middle" x="225.75" y="-427.6" font-family="Times,serif" font-size="18.00" fill="red"> 1</text>
</g>
<!-- 13 -->
<g id="node25" class="node"><title>13</title>
<polygon fill="none" stroke="black" points="208,-388 146,-388 146,-326 208,-326 208,-388"/>
<text text-anchor="middle" x="177" y="-352.8" font-family="Times,serif" font-size="14.00">13</text>
</g>
<!-- 1&#45;&gt;13 -->
<g id="edge25" class="edge"><title>1&#45;&gt;13</title>
<path fill="none" stroke="black" d="M124.603,-477.727C122.419,-461.415 121.777,-441.17 127.5,-424 131.803,-411.091 139.729,-398.675 147.996,-388.162"/>
<text text-anchor="middle" x="134.75" y="-427.6" font-family="Times,serif" font-size="18.00" fill="red"> 1</text>
</g>
<!-- 7 -->
<g id="node19" class="node"><title>7</title>
<polygon fill="none" stroke="black" points="648,-540 586,-540 586,-478 648,-478 648,-540"/>
<text text-anchor="middle" x="617" y="-504.8" font-family="Times,serif" font-size="14.00">7</text>
</g>
<!-- 2&#45;&gt;7 -->
<g id="edge13" class="edge"><title>2&#45;&gt;7</title>
<path fill="none" stroke="black" d="M509.319,-629.645C532.818,-603.535 566.532,-566.075 589.952,-540.053"/>
<text text-anchor="middle" x="564.75" y="-579.6" font-family="Times,serif" font-size="18.00" fill="red"> 2</text>
</g>
<!-- 3&#45;&gt;7 -->
<g id="edge14" class="edge"><title>3&#45;&gt;7</title>
<path fill="none" stroke="black" d="M617,-629.645C617,-603.535 617,-566.075 617,-540.053"/>
<text text-anchor="middle" x="623.75" y="-579.6" font-family="Times,serif" font-size="18.00" fill="red"> 2</text>
</g>
<!-- 8 -->
<g id="node20" class="node"><title>8</title>
<polygon fill="none" stroke="black" points="934,-540 872,-540 872,-478 934,-478 934,-540"/>
<text text-anchor="middle" x="903" y="-504.8" font-family="Times,serif" font-size="14.00">8</text>
</g>
<!-- 4&#45;&gt;8 -->
<g id="edge15" class="edge"><title>4&#45;&gt;8</title>
<path fill="none" stroke="black" d="M903,-629.645C903,-603.535 903,-566.075 903,-540.053"/>
<text text-anchor="middle" x="909.75" y="-579.6" font-family="Times,serif" font-size="18.00" fill="red"> 2</text>
</g>
<!-- 5&#45;&gt;8 -->
<g id="edge16" class="edge"><title>5&#45;&gt;8</title>
<path fill="none" stroke="black" d="M1013.87,-629.645C989.676,-603.535 954.963,-566.075 930.849,-540.053"/>
<text text-anchor="middle" x="987.75" y="-579.6" font-family="Times,serif" font-size="18.00" fill="red"> 2</text>
</g>
<!-- 11 -->
<g id="node23" class="node"><title>11</title>
<polygon fill="none" stroke="black" points="522,-388 460,-388 460,-326 522,-326 522,-388"/>
<text text-anchor="middle" x="491" y="-352.8" font-family="Times,serif" font-size="14.00">11</text>
</g>
<!-- 6&#45;&gt;11 -->
<g id="edge22" class="edge"><title>6&#45;&gt;11</title>
<path fill="none" stroke="black" d="M367.123,-485.493C383.22,-473.307 402.828,-457.587 419,-442 436.287,-425.338 453.858,-404.921 467.315,-388.387"/>
<text text-anchor="middle" x="442.75" y="-427.6" font-family="Times,serif" font-size="18.00" fill="red"> 1</text>
</g>
<!-- 6&#45;&gt;13 -->
<g id="edge26" class="edge"><title>6&#45;&gt;13</title>
<path fill="none" stroke="black" d="M304.966,-478.722C277.04,-452.377 236.212,-413.861 208.227,-387.46"/>
<text text-anchor="middle" x="273.75" y="-427.6" font-family="Times,serif" font-size="18.00" fill="red"> 1</text>
</g>
<!-- 7&#45;&gt;9 -->
<g id="edge18" class="edge"><title>7&#45;&gt;9</title>
<path fill="none" stroke="black" d="M585.836,-506.008C540.277,-501.584 455.001,-487.389 400.5,-442 383.842,-428.127 372.797,-406.228 366.006,-388.267"/>
<text text-anchor="middle" x="407.75" y="-427.6" font-family="Times,serif" font-size="18.00" fill="red"> 1</text>
</g>
<!-- 10 -->
<g id="node22" class="node"><title>10</title>
<polygon fill="none" stroke="black" points="838,-388 776,-388 776,-326 838,-326 838,-388"/>
<text text-anchor="middle" x="807" y="-352.8" font-family="Times,serif" font-size="14.00">10</text>
</g>
<!-- 7&#45;&gt;10 -->
<g id="edge19" class="edge"><title>7&#45;&gt;10</title>
<path fill="none" stroke="black" d="M648.076,-479.089C666.393,-462.452 690.268,-441.452 712.5,-424 732.963,-407.936 757.012,-391.168 775.729,-378.552"/>
<text text-anchor="middle" x="719.75" y="-427.6" font-family="Times,serif" font-size="18.00" fill="red"> 1</text>
</g>
<!-- s7 -->
<g id="node26" class="node"><title>s7</title>
<polygon fill="violet" stroke="black" points="656,-357 640.5,-388 609.5,-388 594,-357 609.5,-326 640.5,-326 656,-357"/>
<text text-anchor="middle" x="625" y="-352.8" font-family="Times,serif" font-size="14.00">s7</text>
</g>
<!-- 7&#45;&gt;s7 -->
<g id="edge27" class="edge"><title>7&#45;&gt;s7</title>
<path fill="none" stroke="black" d="M618.619,-477.645C620.011,-451.535 622.009,-414.075 623.397,-388.053"/>
<text text-anchor="middle" x="628.75" y="-427.6" font-family="Times,serif" font-size="18.00" fill="purple"> 1</text>
</g>
<!-- 8&#45;&gt;10 -->
<g id="edge20" class="edge"><title>8&#45;&gt;10</title>
<path fill="none" stroke="black" d="M883.573,-477.645C866.863,-451.535 842.888,-414.075 826.234,-388.053"/>
<text text-anchor="middle" x="867.75" y="-427.6" font-family="Times,serif" font-size="18.00" fill="red"> 1</text>
</g>
<!-- 8&#45;&gt;11 -->
<g id="edge21" class="edge"><title>8&#45;&gt;11</title>
<path fill="none" stroke="black" d="M871.995,-489.915C838.309,-470.977 782.407,-441.593 731,-424 656.695,-398.571 632.718,-412.188 558,-388 545.996,-384.114 533.256,-378.747 522.145,-373.626"/>
<text text-anchor="middle" x="781.75" y="-427.6" font-family="Times,serif" font-size="18.00" fill="red"> 1</text>
</g>
<!-- s8 -->
<g id="node27" class="node"><title>s8</title>
<polygon fill="violet" stroke="black" points="1020,-357 1004.5,-388 973.5,-388 958,-357 973.5,-326 1004.5,-326 1020,-357"/>
<text text-anchor="middle" x="989" y="-352.8" font-family="Times,serif" font-size="14.00">s8</text>
</g>
<!-- 8&#45;&gt;s8 -->
<g id="edge28" class="edge"><title>8&#45;&gt;s8</title>
<path fill="none" stroke="black" d="M920.403,-477.645C935.668,-451.022 957.698,-412.597 972.642,-386.531"/>
<text text-anchor="middle" x="958.75" y="-427.6" font-family="Times,serif" font-size="18.00" fill="purple"> 1</text>
</g>
<!-- 12 -->
<g id="node24" class="node"><title>12</title>
<polygon fill="none" stroke="black" points="445,-236 383,-236 383,-174 445,-174 445,-236"/>
<text text-anchor="middle" x="414" y="-200.8" font-family="Times,serif" font-size="14.00">12</text>
</g>
<!-- 9&#45;&gt;12 -->
<g id="edge23" class="edge"><title>9&#45;&gt;12</title>
<path fill="none" stroke="black" d="M356.729,-325.969C357.477,-309.544 359.896,-289.116 366.5,-272 371.378,-259.356 379.278,-246.914 387.246,-236.3"/>
<text text-anchor="middle" x="373.75" y="-275.6" font-family="Times,serif" font-size="18.00" fill="red"> 2</text>
</g>
<!-- s10 -->
<g id="node28" class="node"><title>s10</title>
<polygon fill="violet" stroke="black" points="838,-205 822.5,-236 791.5,-236 776,-205 791.5,-174 822.5,-174 838,-205"/>
<text text-anchor="middle" x="807" y="-200.8" font-family="Times,serif" font-size="14.00">s10</text>
</g>
<!-- 10&#45;&gt;s10 -->
<g id="edge29" class="edge"><title>10&#45;&gt;s10</title>
<path fill="none" stroke="black" d="M807,-325.645C807,-299.535 807,-262.075 807,-236.053"/>
<text text-anchor="middle" x="813.75" y="-275.6" font-family="Times,serif" font-size="18.00" fill="purple"> 1</text>
</g>
<!-- 11&#45;&gt;12 -->
<g id="edge24" class="edge"><title>11&#45;&gt;12</title>
<path fill="none" stroke="black" d="M475.418,-325.645C462.015,-299.535 442.785,-262.075 429.427,-236.053"/>
<text text-anchor="middle" x="464.75" y="-275.6" font-family="Times,serif" font-size="18.00" fill="red"> 2</text>
</g>
<!-- s12 -->
<g id="node29" class="node"><title>s12</title>
<polygon fill="violet" stroke="black" points="445,-53 429.5,-84 398.5,-84 383,-53 398.5,-22 429.5,-22 445,-53"/>
<text text-anchor="middle" x="414" y="-48.8" font-family="Times,serif" font-size="14.00">s12</text>
</g>
<!-- 12&#45;&gt;s12 -->
<g id="edge30" class="edge"><title>12&#45;&gt;s12</title>
<path fill="none" stroke="black" d="M414,-173.645C414,-147.535 414,-110.075 414,-84.0533"/>
<text text-anchor="middle" x="420.75" y="-123.6" font-family="Times,serif" font-size="18.00" fill="purple"> 2</text>
</g>
<!-- s13 -->
<g id="node30" class="node"><title>s13</title>
<polygon fill="violet" stroke="black" points="208,-205 192.5,-236 161.5,-236 146,-205 161.5,-174 192.5,-174 208,-205"/>
<text text-anchor="middle" x="177" y="-200.8" font-family="Times,serif" font-size="14.00">s13</text>
</g>
<!-- 13&#45;&gt;s13 -->
<g id="edge31" class="edge"><title>13&#45;&gt;s13</title>
<path fill="none" stroke="black" d="M177,-325.645C177,-299.535 177,-262.075 177,-236.053"/>
<text text-anchor="middle" x="183.75" y="-275.6" font-family="Times,serif" font-size="18.00" fill="purple"> 1</text>
</g>
</g>
</svg>
