<?xml version="1.0" encoding="UTF-8" standalone="no"?>
<!DOCTYPE svg PUBLIC "-//W3C//DTD SVG 1.1//EN"
 "http://www.w3.org/Graphics/SVG/1.1/DTD/svg11.dtd">
<!-- Generated by graphviz version 2.38.0 (20140413.2041)
 -->
<!-- Title: xxx Pages: 1 -->
<svg width="1156pt" height="813pt"
 viewBox="0.00 0.00 1156.00 813.00" xmlns="http://www.w3.org/2000/svg" xmlns:xlink="http://www.w3.org/1999/xlink">
<g id="graph0" class="graph" transform="scale(1 1) rotate(0) translate(4 809)">
<title>xxx</title>
<polygon fill="white" stroke="none" points="-4,4 -4,-809 1152,-809 1152,4 -4,4"/>
<text text-anchor="middle" x="574" y="-6.8" font-family="Times,serif" font-size="14.00"> &#160;</text>
<!-- 1a -->
<g id="node1" class="node"><title>1a</title>
<polygon fill="lightblue" stroke="black" points="20,-641 40,-671 1.77636e-14,-671 20,-641"/>
<text text-anchor="middle" x="20" y="-656.8" font-family="Times,serif" font-size="14.00">A</text>
</g>
<!-- 1 -->
<g id="node13" class="node"><title>1</title>
<polygon fill="none" stroke="black" points="163,-540 101,-540 101,-478 163,-478 163,-540"/>
<text text-anchor="middle" x="132" y="-504.8" font-family="Times,serif" font-size="14.00">1</text>
</g>
<!-- 1a&#45;&gt;1 -->
<g id="edge1" class="edge"><title>1a&#45;&gt;1</title>
<path fill="none" stroke="black" d="M27.0061,-650.617C43.1928,-628.938 83.765,-574.6 109.472,-540.171"/>
</g>
<!-- 2a -->
<g id="node2" class="node"><title>2a</title>
<polygon fill="lightblue" stroke="black" points="344,-765 364,-795 324,-795 344,-765"/>
<text text-anchor="middle" x="344" y="-780.8" font-family="Times,serif" font-size="14.00">A</text>
</g>
<!-- 2 -->
<g id="node14" class="node"><title>2</title>
<polygon fill="none" stroke="black" points="510,-692 448,-692 448,-630 510,-630 510,-692"/>
<text text-anchor="middle" x="479" y="-656.8" font-family="Times,serif" font-size="14.00">2</text>
</g>
<!-- 2a&#45;&gt;2 -->
<g id="edge3" class="edge"><title>2a&#45;&gt;2</title>
<path fill="none" stroke="black" d="M352.041,-776.734C370.489,-760.062 416.672,-718.326 447.946,-690.063"/>
</g>
<!-- 3a -->
<g id="node3" class="node"><title>3a</title>
<polygon fill="orange" stroke="black" points="568,-765 588,-795 548,-795 568,-765"/>
<text text-anchor="middle" x="568" y="-780.8" font-family="Times,serif" font-size="14.00">B</text>
</g>
<!-- 3 -->
<g id="node15" class="node"><title>3</title>
<polygon fill="none" stroke="black" points="644,-692 582,-692 582,-630 644,-630 644,-692"/>
<text text-anchor="middle" x="613" y="-656.8" font-family="Times,serif" font-size="14.00">3</text>
</g>
<!-- 3a&#45;&gt;3 -->
<g id="edge5" class="edge"><title>3a&#45;&gt;3</title>
<path fill="none" stroke="black" d="M572.646,-771.403C579.473,-752.896 592.419,-717.797 601.811,-692.334"/>
</g>
<!-- 4a -->
<g id="node4" class="node"><title>4a</title>
<polygon fill="lightblue" stroke="black" points="792,-765 812,-795 772,-795 792,-765"/>
<text text-anchor="middle" x="792" y="-780.8" font-family="Times,serif" font-size="14.00">A</text>
</g>
<!-- 4 -->
<g id="node16" class="node"><title>4</title>
<polygon fill="none" stroke="black" points="823,-692 761,-692 761,-630 823,-630 823,-692"/>
<text text-anchor="middle" x="792" y="-656.8" font-family="Times,serif" font-size="14.00">4</text>
</g>
<!-- 4a&#45;&gt;4 -->
<g id="edge7" class="edge"><title>4a&#45;&gt;4</title>
<path fill="none" stroke="black" d="M792,-764.938C792,-745.503 792,-715.06 792,-692.314"/>
</g>
<!-- 5a -->
<g id="node5" class="node"><title>5a</title>
<polygon fill="orange" stroke="black" points="1016,-765 1036,-795 996,-795 1016,-765"/>
<text text-anchor="middle" x="1016" y="-780.8" font-family="Times,serif" font-size="14.00">B</text>
</g>
<!-- 5 -->
<g id="node17" class="node"><title>5</title>
<polygon fill="none" stroke="black" points="1047,-692 985,-692 985,-630 1047,-630 1047,-692"/>
<text text-anchor="middle" x="1016" y="-656.8" font-family="Times,serif" font-size="14.00">5</text>
</g>
<!-- 5a&#45;&gt;5 -->
<g id="edge9" class="edge"><title>5a&#45;&gt;5</title>
<path fill="none" stroke="black" d="M1016,-764.938C1016,-745.503 1016,-715.06 1016,-692.314"/>
</g>
<!-- 6a -->
<g id="node6" class="node"><title>6a</title>
<polygon fill="orange" stroke="black" points="244,-641 264,-671 224,-671 244,-641"/>
<text text-anchor="middle" x="244" y="-656.8" font-family="Times,serif" font-size="14.00">B</text>
</g>
<!-- 6 -->
<g id="node18" class="node"><title>6</title>
<polygon fill="none" stroke="black" points="371,-540 309,-540 309,-478 371,-478 371,-540"/>
<text text-anchor="middle" x="340" y="-504.8" font-family="Times,serif" font-size="14.00">6</text>
</g>
<!-- 6a&#45;&gt;6 -->
<g id="edge11" class="edge"><title>6a&#45;&gt;6</title>
<path fill="none" stroke="black" d="M250.299,-650.158C264.356,-628.193 298.77,-574.422 320.652,-540.231"/>
</g>
<!-- 1b -->
<g id="node7" class="node"><title>1b</title>
<polygon fill="lightblue" stroke="black" points="132,-641 152,-671 112,-671 132,-641"/>
<text text-anchor="middle" x="132" y="-656.8" font-family="Times,serif" font-size="14.00">A</text>
</g>
<!-- 1b&#45;&gt;1 -->
<g id="edge2" class="edge"><title>1b&#45;&gt;1</title>
<path fill="none" stroke="black" d="M132,-640.697C132,-615.219 132,-570.094 132,-540.111"/>
</g>
<!-- 2b -->
<g id="node8" class="node"><title>2b</title>
<polygon fill="lightblue" stroke="black" points="456,-765 476,-795 436,-795 456,-765"/>
<text text-anchor="middle" x="456" y="-780.8" font-family="Times,serif" font-size="14.00">A</text>
</g>
<!-- 2b&#45;&gt;2 -->
<g id="edge4" class="edge"><title>2b&#45;&gt;2</title>
<path fill="none" stroke="black" d="M458.82,-769.04C462.419,-749.952 468.729,-716.483 473.337,-692.04"/>
</g>
<!-- 3b -->
<g id="node9" class="node"><title>3b</title>
<polygon fill="orange" stroke="black" points="680,-765 700,-795 660,-795 680,-765"/>
<text text-anchor="middle" x="680" y="-780.8" font-family="Times,serif" font-size="14.00">B</text>
</g>
<!-- 3b&#45;&gt;3 -->
<g id="edge6" class="edge"><title>3b&#45;&gt;3</title>
<path fill="none" stroke="black" d="M674.054,-773.173C664.158,-755.154 643.969,-718.391 629.515,-692.073"/>
</g>
<!-- 4b -->
<g id="node10" class="node"><title>4b</title>
<polygon fill="lightblue" stroke="black" points="904,-765 924,-795 884,-795 904,-765"/>
<text text-anchor="middle" x="904" y="-780.8" font-family="Times,serif" font-size="14.00">A</text>
</g>
<!-- 4b&#45;&gt;4 -->
<g id="edge8" class="edge"><title>4b&#45;&gt;4</title>
<path fill="none" stroke="black" d="M896.651,-775.995C881.322,-759.297 845.243,-719.996 819.748,-692.226"/>
</g>
<!-- 5b -->
<g id="node11" class="node"><title>5b</title>
<polygon fill="orange" stroke="black" points="1128,-765 1148,-795 1108,-795 1128,-765"/>
<text text-anchor="middle" x="1128" y="-780.8" font-family="Times,serif" font-size="14.00">B</text>
</g>
<!-- 5b&#45;&gt;5 -->
<g id="edge10" class="edge"><title>5b&#45;&gt;5</title>
<path fill="none" stroke="black" d="M1120.65,-775.995C1105.32,-759.297 1069.24,-719.996 1043.75,-692.226"/>
</g>
<!-- 6b -->
<g id="node12" class="node"><title>6b</title>
<polygon fill="orange" stroke="black" points="356,-641 376,-671 336,-671 356,-641"/>
<text text-anchor="middle" x="356" y="-656.8" font-family="Times,serif" font-size="14.00">B</text>
</g>
<!-- 6b&#45;&gt;6 -->
<g id="edge12" class="edge"><title>6b&#45;&gt;6</title>
<path fill="none" stroke="black" d="M354.227,-643.374C351.574,-618.508 346.532,-571.236 343.218,-540.171"/>
</g>
<!-- 9 -->
<g id="node21" class="node"><title>9</title>
<polygon fill="none" stroke="black" points="433,-388 371,-388 371,-326 433,-326 433,-388"/>
<text text-anchor="middle" x="402" y="-352.8" font-family="Times,serif" font-size="14.00">9</text>
</g>
<!-- 1&#45;&gt;9 -->
<g id="edge17" class="edge"><title>1&#45;&gt;9</title>
<path fill="none" stroke="black" d="M163.179,-484.029C187.121,-466.227 221.412,-442.015 253.5,-424 292.493,-402.109 340.127,-382.025 370.754,-369.902"/>
<text text-anchor="middle" x="260.75" y="-427.6" font-family="Times,serif" font-size="18.00" fill="red"> 1</text>
</g>
<!-- 13 -->
<g id="node25" class="node"><title>13</title>
<polygon fill="none" stroke="black" points="272,-388 210,-388 210,-326 272,-326 272,-388"/>
<text text-anchor="middle" x="241" y="-352.8" font-family="Times,serif" font-size="14.00">13</text>
</g>
<!-- 1&#45;&gt;13 -->
<g id="edge25" class="edge"><title>1&#45;&gt;13</title>
<path fill="none" stroke="black" d="M124.808,-477.792C122.443,-460.925 122.391,-440.126 131.5,-424 148.148,-394.527 183.819,-376.748 209.941,-367.189"/>
<text text-anchor="middle" x="138.75" y="-427.6" font-family="Times,serif" font-size="18.00" fill="red"> 1</text>
</g>
<!-- 7 -->
<g id="node19" class="node"><title>7</title>
<polygon fill="none" stroke="black" points="576,-540 514,-540 514,-478 576,-478 576,-540"/>
<text text-anchor="middle" x="545" y="-504.8" font-family="Times,serif" font-size="14.00">7</text>
</g>
<!-- 2&#45;&gt;7 -->
<g id="edge13" class="edge"><title>2&#45;&gt;7</title>
<path fill="none" stroke="black" d="M485.663,-629.735C489.786,-613.425 495.775,-593.18 503.5,-576 508.995,-563.779 516.447,-551.139 523.519,-540.233"/>
<text text-anchor="middle" x="510.75" y="-579.6" font-family="Times,serif" font-size="18.00" fill="red"> 2</text>
</g>
<!-- 3&#45;&gt;7 -->
<g id="edge14" class="edge"><title>3&#45;&gt;7</title>
<path fill="none" stroke="black" d="M599.239,-629.645C587.403,-603.535 570.421,-566.075 558.624,-540.053"/>
<text text-anchor="middle" x="590.75" y="-579.6" font-family="Times,serif" font-size="18.00" fill="red"> 2</text>
</g>
<!-- 8 -->
<g id="node20" class="node"><title>8</title>
<polygon fill="none" stroke="black" points="811,-540 749,-540 749,-478 811,-478 811,-540"/>
<text text-anchor="middle" x="780" y="-504.8" font-family="Times,serif" font-size="14.00">8</text>
</g>
<!-- 4&#45;&gt;8 -->
<g id="edge15" class="edge"><title>4&#45;&gt;8</title>
<path fill="none" stroke="black" d="M789.572,-629.645C787.483,-603.535 784.486,-566.075 782.404,-540.053"/>
<text text-anchor="middle" x="793.75" y="-579.6" font-family="Times,serif" font-size="18.00" fill="red"> 2</text>
</g>
<!-- 5&#45;&gt;8 -->
<g id="edge16" class="edge"><title>5&#45;&gt;8</title>
<path fill="none" stroke="black" d="M984.661,-640.081C939.397,-611.312 856.218,-558.444 811.093,-529.762"/>
<text text-anchor="middle" x="919.75" y="-579.6" font-family="Times,serif" font-size="18.00" fill="red"> 2</text>
</g>
<!-- 11 -->
<g id="node23" class="node"><title>11</title>
<polygon fill="none" stroke="black" points="567,-388 505,-388 505,-326 567,-326 567,-388"/>
<text text-anchor="middle" x="536" y="-352.8" font-family="Times,serif" font-size="14.00">11</text>
</g>
<!-- 6&#45;&gt;11 -->
<g id="edge22" class="edge"><title>6&#45;&gt;11</title>
<path fill="none" stroke="black" d="M370.938,-477.922C388.653,-461.293 411.645,-440.683 433.5,-424 456.38,-406.534 483.878,-388.999 504.63,-376.397"/>
<text text-anchor="middle" x="440.75" y="-427.6" font-family="Times,serif" font-size="18.00" fill="red"> 1</text>
</g>
<!-- 6&#45;&gt;13 -->
<g id="edge26" class="edge"><title>6&#45;&gt;13</title>
<path fill="none" stroke="black" d="M319.966,-477.645C302.733,-451.535 278.01,-414.075 260.835,-388.053"/>
<text text-anchor="middle" x="303.75" y="-427.6" font-family="Times,serif" font-size="18.00" fill="red"> 1</text>
</g>
<!-- 7&#45;&gt;9 -->
<g id="edge18" class="edge"><title>7&#45;&gt;9</title>
<path fill="none" stroke="black" d="M516.062,-477.645C491.17,-451.535 455.459,-414.075 430.651,-388.053"/>
<text text-anchor="middle" x="489.75" y="-427.6" font-family="Times,serif" font-size="18.00" fill="red"> 1</text>
</g>
<!-- 10 -->
<g id="node22" class="node"><title>10</title>
<polygon fill="none" stroke="black" points="701,-388 639,-388 639,-326 701,-326 701,-388"/>
<text text-anchor="middle" x="670" y="-352.8" font-family="Times,serif" font-size="14.00">10</text>
</g>
<!-- 7&#45;&gt;10 -->
<g id="edge19" class="edge"><title>7&#45;&gt;10</title>
<path fill="none" stroke="black" d="M556.966,-477.822C564.512,-460.965 575.321,-440.166 588.5,-424 602.766,-406.501 622.333,-390.47 638.719,-378.589"/>
<text text-anchor="middle" x="595.75" y="-427.6" font-family="Times,serif" font-size="18.00" fill="red"> 3</text>
</g>
<!-- 8&#45;&gt;10 -->
<g id="edge20" class="edge"><title>8&#45;&gt;10</title>
<path fill="none" stroke="black" d="M757.74,-477.645C738.593,-451.535 711.122,-414.075 692.039,-388.053"/>
<text text-anchor="middle" x="738.75" y="-427.6" font-family="Times,serif" font-size="18.00" fill="red"> 3</text>
</g>
<!-- 8&#45;&gt;11 -->
<g id="edge21" class="edge"><title>8&#45;&gt;11</title>
<path fill="none" stroke="black" d="M748.601,-488.697C701.75,-459.895 614.06,-405.988 567.279,-377.229"/>
<text text-anchor="middle" x="679.75" y="-427.6" font-family="Times,serif" font-size="18.00" fill="red"> 1</text>
</g>
<!-- 12 -->
<g id="node24" class="node"><title>12</title>
<polygon fill="none" stroke="black" points="511,-236 449,-236 449,-174 511,-174 511,-236"/>
<text text-anchor="middle" x="480" y="-200.8" font-family="Times,serif" font-size="14.00">12</text>
</g>
<!-- 9&#45;&gt;12 -->
<g id="edge23" class="edge"><title>9&#45;&gt;12</title>
<path fill="none" stroke="black" d="M417.784,-325.645C431.362,-299.535 450.841,-262.075 464.372,-236.053"/>
<text text-anchor="middle" x="452.75" y="-275.6" font-family="Times,serif" font-size="18.00" fill="red"> 2</text>
</g>
<!-- s10 -->
<g id="node26" class="node"><title>s10</title>
<polygon fill="violet" stroke="black" points="701,-205 685.5,-236 654.5,-236 639,-205 654.5,-174 685.5,-174 701,-205"/>
<text text-anchor="middle" x="670" y="-200.8" font-family="Times,serif" font-size="14.00">s10</text>
</g>
<!-- 10&#45;&gt;s10 -->
<g id="edge27" class="edge"><title>10&#45;&gt;s10</title>
<path fill="none" stroke="black" d="M670,-325.645C670,-299.535 670,-262.075 670,-236.053"/>
<text text-anchor="middle" x="676.75" y="-275.6" font-family="Times,serif" font-size="18.00" fill="purple"> 3</text>
</g>
<!-- 11&#45;&gt;12 -->
<g id="edge24" class="edge"><title>11&#45;&gt;12</title>
<path fill="none" stroke="black" d="M524.668,-325.645C514.92,-299.535 500.935,-262.075 491.22,-236.053"/>
<text text-anchor="middle" x="518.75" y="-275.6" font-family="Times,serif" font-size="18.00" fill="red"> 2</text>
</g>
<!-- s12 -->
<g id="node27" class="node"><title>s12</title>
<polygon fill="violet" stroke="black" points="511,-53 495.5,-84 464.5,-84 449,-53 464.5,-22 495.5,-22 511,-53"/>
<text text-anchor="middle" x="480" y="-48.8" font-family="Times,serif" font-size="14.00">s12</text>
</g>
<!-- 12&#45;&gt;s12 -->
<g id="edge28" class="edge"><title>12&#45;&gt;s12</title>
<path fill="none" stroke="black" d="M480,-173.645C480,-147.535 480,-110.075 480,-84.0533"/>
<text text-anchor="middle" x="486.75" y="-123.6" font-family="Times,serif" font-size="18.00" fill="purple"> 2</text>
</g>
<!-- s13 -->
<g id="node28" class="node"><title>s13</title>
<polygon fill="violet" stroke="black" points="272,-205 256.5,-236 225.5,-236 210,-205 225.5,-174 256.5,-174 272,-205"/>
<text text-anchor="middle" x="241" y="-200.8" font-family="Times,serif" font-size="14.00">s13</text>
</g>
<!-- 13&#45;&gt;s13 -->
<g id="edge29" class="edge"><title>13&#45;&gt;s13</title>
<path fill="none" stroke="black" d="M241,-325.645C241,-299.535 241,-262.075 241,-236.053"/>
<text text-anchor="middle" x="247.75" y="-275.6" font-family="Times,serif" font-size="18.00" fill="purple"> 1</text>
</g>
</g>
</svg>
